<?xml version="1.0" encoding="utf-8"?>
<!-- Generator: Adobe Illustrator 28.0.0, SVG Export Plug-In . SVG Version: 6.00 Build 0)  -->
<svg version="1.1" id="Layer_1" xmlns="http://www.w3.org/2000/svg" xmlns:xlink="http://www.w3.org/1999/xlink" x="0px" y="0px"
	 viewBox="0 0 1026.01 792" style="enable-background:new 0 0 1026.01 792;" xml:space="preserve">
<style type="text/css">
	.st0{fill:none;stroke:#191815;stroke-width:3.277;stroke-linecap:round;stroke-linejoin:round;stroke-opacity:0.978;}
	.st1{fill:none;stroke:#191815;stroke-width:3.164;stroke-linecap:round;stroke-linejoin:round;stroke-opacity:0.965;}
	.st2{fill:none;stroke:#191815;stroke-width:3.066;stroke-linecap:round;stroke-linejoin:round;stroke-opacity:0.955;}
	.st3{fill:none;stroke:#191815;stroke-width:3.021;stroke-linecap:round;stroke-linejoin:round;stroke-opacity:0.947;}
	.st4{fill:none;stroke:#191815;stroke-width:3.133;stroke-linecap:round;stroke-linejoin:round;stroke-opacity:0.976;}
	.st5{fill:none;stroke:#191815;stroke-width:3.041;stroke-linecap:round;stroke-linejoin:round;stroke-opacity:0.969;}
	.st6{fill:none;stroke:#191815;stroke-width:3.223;stroke-linecap:round;stroke-linejoin:round;stroke-opacity:0.976;}
	.st7{fill:none;stroke:#191815;stroke-width:3.05;stroke-linecap:round;stroke-linejoin:round;stroke-opacity:0.942;}
	.st8{fill:none;stroke:#191815;stroke-width:3.313;stroke-linecap:round;stroke-linejoin:round;stroke-opacity:0.952;}
	.st9{fill:none;stroke:#191815;stroke-width:3.085;stroke-linecap:round;stroke-linejoin:round;stroke-opacity:0.945;}
	.st10{fill:none;stroke:#191815;stroke-width:2.928;stroke-linecap:round;stroke-linejoin:round;stroke-opacity:0.939;}
	.st11{fill:none;stroke:#191815;stroke-width:3.1;stroke-linecap:round;stroke-linejoin:round;stroke-opacity:0.977;}
	.st12{fill:none;stroke:#191815;stroke-width:3.306;stroke-linecap:round;stroke-linejoin:round;stroke-opacity:0.972;}
	.st13{fill:none;stroke:#191815;stroke-width:3.248;stroke-linecap:round;stroke-linejoin:round;stroke-opacity:0.906;}
	.st14{fill:none;stroke:#191815;stroke-width:3.291;stroke-linecap:round;stroke-linejoin:round;stroke-opacity:0.982;}
	.st15{fill:none;stroke:#191815;stroke-width:3.117;stroke-linecap:round;stroke-linejoin:round;stroke-opacity:0.974;}
	.st16{fill:none;stroke:#191815;stroke-width:3.273;stroke-linecap:round;stroke-linejoin:round;stroke-opacity:0.983;}
	.st17{fill:none;stroke:#191815;stroke-width:3.071;stroke-linecap:round;stroke-linejoin:round;stroke-opacity:0.963;}
	.st18{fill:none;stroke:#191815;stroke-width:2.927;stroke-linecap:round;stroke-linejoin:round;stroke-opacity:0.947;}
	.st19{fill:none;stroke:#191815;stroke-width:2.821;stroke-linecap:round;stroke-linejoin:round;stroke-opacity:0.905;}
	.st20{fill:none;stroke:#191815;stroke-width:2.656;stroke-linecap:round;stroke-linejoin:round;stroke-opacity:0.893;}
	.st21{fill:none;stroke:#191815;stroke-width:2.67;stroke-linecap:round;stroke-linejoin:round;stroke-opacity:0.877;}
	.st22{fill:none;stroke:#191815;stroke-width:2.507;stroke-linecap:round;stroke-linejoin:round;stroke-opacity:0.787;}
	.st23{fill:none;stroke:#191815;stroke-width:2.422;stroke-linecap:round;stroke-linejoin:round;stroke-opacity:0.745;}
	.st24{fill:none;stroke:#191815;stroke-width:2.666;stroke-linecap:round;stroke-linejoin:round;stroke-opacity:0.826;}
	.st25{fill:none;stroke:#191815;stroke-width:2.81;stroke-linecap:round;stroke-linejoin:round;stroke-opacity:0.875;}
	.st26{fill:none;stroke:#191815;stroke-width:2.502;stroke-linecap:round;stroke-linejoin:round;stroke-opacity:0.766;}
	.st27{fill:none;stroke:#191815;stroke-width:2.83;stroke-linecap:round;stroke-linejoin:round;stroke-opacity:0.886;}
	.st28{fill:none;stroke:#191815;stroke-width:2.598;stroke-linecap:round;stroke-linejoin:round;stroke-opacity:0.781;}
	.st29{fill:none;stroke:#191815;stroke-width:2.778;stroke-linecap:round;stroke-linejoin:round;stroke-opacity:0.834;}
	.st30{fill:none;stroke:#191815;stroke-width:2.554;stroke-linecap:round;stroke-linejoin:round;stroke-opacity:0.749;}
	.st31{fill:none;stroke:#191815;stroke-width:2.763;stroke-linecap:round;stroke-linejoin:round;stroke-opacity:0.852;}
</style>
<path id="STROKE_7648cdb6-7335-480f-bf32-f091cc00e6c6" class="st0" d="M65.12,68.03l-0.07,0.61L65,69.93
	c-0.02,0.45-0.01,3.93,0.04,10.43c0.05,6.5,0.04,17.16-0.03,31.98c-0.07,14.82-0.07,22.19,0.01,22.11c0.46-0.18,0.71-0.28,0.75-0.28
	c0.3-0.18,4.32-0.82,12.07-1.92c7.75-1.1,13.86-1.93,18.34-2.5c4.48-0.56,8.61-0.82,12.4-0.76c3.79,0.06,6.64,0.19,8.55,0.38
	c1.91,0.2,3.48,0.32,4.7,0.38c1.22,0.05,3.28-0.14,6.15-0.58c2.88-0.43,5.04-0.73,6.48-0.89c1.44-0.16,2.71-0.15,3.8,0.04
	s1.97,0.34,2.64,0.46c0.67,0.12,1.29,0.2,1.87,0.23c0.58,0.03,0.97,0.02,1.18-0.02c0.21-0.04,0.33-0.08,0.38-0.11
	c0.04-0.03,0.18-0.26,0.42-0.69c0.23-0.43,0.34-0.7,0.32-0.82c-0.02-0.12-0.06-0.45-0.1-0.99c-0.05-0.54-0.09-1.04-0.14-1.48
	c-0.05-0.45-0.08-1.12-0.09-2.02c-0.01-0.9-0.6-4.16-1.75-9.76c-1.16-5.6-2.16-10.74-3.02-15.42c-0.86-4.67-1.39-9.47-1.59-14.38
	c-0.2-4.92-0.33-8.53-0.38-10.83c-0.05-2.3-0.24-4.29-0.57-5.95c-0.33-1.67-0.58-2.67-0.76-3.01c-0.18-0.34-0.33-1.16-0.46-2.45
	c-0.12-1.29-0.28-2.62-0.48-3.97c-0.01-0.04-1.1-0.19-3.28-0.46c-2.17-0.27-4.97-0.12-8.39,0.46s-6.03,1.06-7.82,1.44
	c-1.79,0.38-3.35,0.62-4.66,0.71c-1.31,0.09-2.62,0.16-3.93,0.22c-1.3,0.06-2.97-0.05-4.99-0.33c-2.02-0.28-4.27-0.52-6.72-0.72
	c-2.46-0.2-5.57-0.03-9.33,0.53c-3.76,0.56-6.59,1.14-8.49,1.75c-1.9,0.61-3.57,0.95-5.02,1c-1.45,0.06-2.59,0.07-3.44,0.03
	c-0.85-0.04-1.39-0.06-1.63-0.06c-0.24,0-0.54,0-0.89-0.01c-0.35-0.01-0.54-0.01-0.57,0c-0.03,0.01-0.22-0.01-0.55-0.05
	c-0.33-0.04-0.62-0.1-0.86-0.2c-0.24-0.09-0.42-0.15-0.53-0.16c-0.18-0.25-0.28,1.81-0.28,6.17"/>
<path id="STROKE_b1fea4f9-18fa-4631-8501-f082d6930024" class="st1" d="M75.98,254.75l-0.56-1.56l0.01,0l-0.01,0.48
	c0,0.02,0.04,2.04,0.1,6.04c0.07,4.01,0.12,7.2,0.17,9.58c0.04,2.38,0.11,5.68,0.2,9.92c0.09,4.23,0.16,9.74,0.22,16.52l0.24-0.25
	c0.09-0.02,2.56-0.13,7.42-0.35c4.86-0.22,11.56-0.86,20.1-1.93c-1.62-0.64-2.87-3-3.75-7.07c-0.88-4.07-1.47-7.53-1.76-10.38
	c-0.29-2.85-0.2-10.38,0.29-22.57c0.03-0.04-1.06-0.25-3.25-0.64c-2.2-0.39-4.28-0.61-6.25-0.68c-1.97-0.07-4.02,0.25-6.16,0.93
	c-2.14,0.69-3.76,1.27-4.85,1.76c-1.1,0.49-2.13,1.01-3.08,1.57c-0.96,0.56-1.75,1.24-2.36,2.05c0.07,0.1,0.88,0.09,2.42-0.04"/>
<path id="STROKE_cefb87b2-c34e-498c-be99-425145a55245" class="st2" d="M82.61,405.03l0.02-0.96c-0.02-0.04,0.18,1.34,0.57,4.16
	c0.4,2.81,0.73,7.5,0.99,14.05c0.26,6.55,0.51,16.22,0.74,29c0.22,0.02,0.8-0.2,1.76-0.67c0.96-0.46,2.41-0.89,4.38-1.3
	c1.96-0.4,3.39-0.65,4.3-0.74c0.9-0.09,2.96-0.2,6.16-0.33c3.2-0.13,6.75-0.03,10.63,0.28c3.88,0.31,6.77,0.56,8.66,0.74
	c1.9,0.18,5.33,0.13,10.32-0.15c0.33-0.51,0.03-19.72-0.9-57.64c-0.01-0.02-0.18,0.01-0.52,0.08c-0.33,0.07-0.55,0.15-0.65,0.23
	c-0.1,0.08-0.61,0.52-1.52,1.32c-0.91,0.8-2.33,1.68-4.25,2.65c-1.92,0.97-5.14,2.09-9.66,3.36c-4.52,1.27-8.59,2.23-12.23,2.88
	c-3.63,0.65-6.88,1.06-9.74,1.24c-2.86,0.18-5.8,0.25-8.82,0.21c-0.09-0.01,0.38,0.07,1.42,0.25"/>
<path id="STROKE_3a76ba8c-9dc8-490d-a859-a8e87bab7c09" class="st3" d="M85.05,551.47c-0.13-0.11-0.24-0.18-0.31-0.2
	c-0.19,0.59-0.02,3.59,0.5,9.01c0.52,5.42,1.31,17.67,2.35,36.75c0.23-0.49,3.03-0.67,8.39-0.53c5.36,0.13,11.01,0.22,16.94,0.26
	c5.93,0.04,11.08-0.18,15.46-0.65c4.38-0.47,7.65-0.86,9.83-1.17c2.17-0.3,4.41-0.77,6.7-1.39c2.29-0.62,4.36-1.4,6.19-2.34
	c0.07-0.04-0.03-0.19-0.3-0.45c-0.27-0.27-0.72-1.28-1.37-3.03c-0.65-1.75-1.42-5.37-2.32-10.86c-0.9-5.49-2.47-16.71-4.71-33.68
	l-0.11-0.01c-0.86,1.42-1.68,2.72-2.48,3.9c-0.8,1.18-4.02,1.95-9.67,2.32c-5.65,0.37-10.08,0.62-13.31,0.76
	c-3.23,0.14-5.73,0.28-7.49,0.42c-1.77,0.14-4.31,0.4-7.62,0.77c-3.32,0.37-6.53,0.76-9.64,1.19c-3.11,0.42-5.61,0.71-7.52,0.86
	c-1.9,0.15-3.29-0.02-4.15-0.53c0.05,0.02,0.09,0.05,0.15,0.09"/>
<path id="STROKE_2a1af6ac-5265-4242-8ef9-c1e9ec29ac9e" class="st4" d="M146.83,475.03c-0.14-0.5-0.39-0.94-0.73-1.3
	c-0.26,0.15-0.24,8.74,0.04,25.75c0.04,0.17,0.84-0.18,2.39-1.05c1.55-0.88,3.14-1.63,4.76-2.26c1.62-0.63,4.09-1.06,7.42-1.3
	c3.33-0.24,6.19-0.28,8.59-0.12c2.4,0.16,4.34,0.37,5.84,0.64c1.5,0.27,3.54,0.63,6.12,1.07c2.59,0.44,4.98,0.79,7.18,1.03
	c2.2,0.24,4.34,0.23,6.43-0.03c2.09-0.26,4.82-1.41,8.19-3.45l0.26-0.93c0.12-0.69,0.01-2.34-0.33-4.93
	c-0.34-2.59-1.17-5.5-2.49-8.72c-1.32-3.22-2.52-6.05-3.59-8.48c-1.08-2.44-2-4.29-2.79-5.55c-0.78-1.26-1.51-2.28-2.17-3.05
	s-1.34-1.04-2.02-0.81c-0.68,0.24-2.25,0.44-4.72,0.6c-2.47,0.16-5.18,0.15-8.12-0.06c-2.95-0.2-6.2-0.21-9.76-0.03
	c-3.56,0.18-7.49,0.91-11.79,2.17c-4.3,1.27-8.28,2.42-11.94,3.47c-3.66,1.04-6.55,1.78-8.67,2.21c-2.12,0.43-3.81,0.78-5.05,1.05
	c0.01,0.01,2.04,1.78,6.09,5.33"/>
<path id="STROKE_09be339c-7499-4646-828f-6f9902e0022c" class="st5" d="M212.78,339.75c0.18-0.26,0.28-0.38,0.31-0.37
	c0.33-0.11,0.51-0.17,0.53-0.17c0.02,0,0.17,1.38,0.43,4.16c0.27,2.77,0.42,5,0.47,6.68c0.04,1.68,0.06,3.81,0.06,6.38
	c-0.01,2.57,0.05,4.92,0.18,7.04c0.12,2.12-0.39,8.24-1.55,18.36c0.18,0.07,1.03-0.09,2.55-0.49c1.52-0.4,4.26-0.73,8.23-0.97
	c3.97-0.24,8.48,0.04,13.55,0.82c5.07,0.79,9.06,1.58,11.98,2.39c2.92,0.8,6.25,1.42,9.99,1.83c3.74,0.42,6.72,0.62,8.95,0.61
	c2.23-0.01,4.56,0.49,6.98,1.51c0.11-0.2,0.22-1.7,0.34-4.5c0.12-2.8,0.15-5.38,0.09-7.73c-0.05-2.35-0.14-4.15-0.25-5.4
	c-0.12-1.25-0.26-4.92-0.44-11.02c-0.17-6.1-0.37-11.09-0.58-14.97c-0.21-3.89-0.7-7.17-1.47-9.84c-0.42-0.25-1.5,0.4-3.21,1.93
	c-1.72,1.53-3.74,2.8-6.07,3.8c-2.33,1-4.78,1.7-7.37,2.1c-2.59,0.4-5.76,0.8-9.5,1.19c-3.74,0.39-8.16,0.96-13.23,1.71
	c-5.08,0.75-9.19,1.41-12.33,1.98c-3.14,0.57-6.37,1.28-9.68,2.11c-0.07,0.04,1.67-0.07,5.23-0.32"/>
<path id="STROKE_7464ca93-a953-4b95-bdc5-dafe32bd7d44" class="st6" d="M216.16,234.84c-0.01-0.03,0.11-0.53,0.36-1.48
	c0.24,0.22,1.92,10.7,5.05,31.45l0.02,0.11l-0.07,1.02c-0.32,1.42,1.07,2.08,4.17,2c3.11-0.08,6.45-0.31,10.05-0.69
	c3.59-0.38,6.97-0.43,10.15-0.14c3.18,0.28,5.67,0.6,7.47,0.96c1.8,0.36,3.54,0.62,5.21,0.79c1.67,0.17,2.98,0.15,3.92-0.04
	s1.89-0.67,2.86-1.43s0.92-2.33-0.14-4.71s-1.99-4.9-2.78-7.56c-0.79-2.67-1.4-5.22-1.85-7.66c-0.45-2.44-1.34-7.58-2.69-15.41
	l-0.09,0.64c0.04,0.1-0.28,0.19-0.94,0.27c-0.66,0.08-2.17,0.18-4.52,0.28c-2.35,0.1-5.07,0.55-8.17,1.35
	c-3.1,0.79-10.34,2.78-21.72,5.97c-0.16,0.04,1.39-0.82,4.63-2.58"/>
<path id="STROKE_7288f8f5-84e3-4e6f-9333-6fa2a3ead059" class="st7" d="M148.29,294.69l0.07,0.02c0.18,0.17,0.72,2.81,1.6,7.94
	c0.88,5.13,1.43,10.13,1.65,15c0.22,4.87-0.03,9.63-0.76,14.29l-0.01,0.02c0.64-0.39,1.1-0.68,1.39-0.87
	c0.29-0.19,0.51-0.33,0.67-0.42c0.16-0.09,0.3-0.18,0.41-0.29c0.11-0.11,0.72-0.14,1.82-0.1c1.1,0.04,2.56,0.27,4.36,0.69
	c1.8,0.41,3.4,0.75,4.81,1c1.4,0.25,3.17,0.49,5.29,0.72c2.13,0.22,3.82,0.32,5.07,0.3c1.25-0.03,2.14-0.16,2.64-0.4
	c0.51-0.24,1.06-0.88,1.66-1.92"/>
<path id="STROKE_c1862351-0440-4b1e-bd9c-c9497d4d304b" class="st8" d="M189.75,288.59c-0.06,0.05,0.01,11.23,0.2,33.53
	c-0.13-0.04-0.57-0.42-1.33-1.16"/>
<path id="STROKE_2c2312cf-5a1f-41c2-8869-b1424558a795" class="st9" d="M157.69,291.84c0.67-0.09,3.3-0.03,7.9,0.19
	c4.6,0.22,10.42,1.08,17.46,2.59"/>
<path id="STROKE_8e099198-9795-4373-a699-366f615a98c5" class="st10" d="M368.31,140.16l0.08-1.87c0.06,0.09,0.47,4.11,1.25,12.06
	c0.77,7.95,1.4,14.22,1.86,18.8c0.47,4.58,0.72,9.19,0.76,13.83c0.04,4.64-0.01,8.19-0.15,10.66c-0.14,2.47-0.25,4.33-0.34,5.59
	c-0.09,1.26-0.16,2.19-0.23,2.8c-0.06-0.13-0.6-2.09-1.63-5.87"/>
<path id="STROKE_88573389-f9a8-48e8-987b-0457a96b3f65" class="st11" d="M368.4,138.83l-0.83-0.43c-0.15-0.09-1.08-0.29-2.79-0.58
	c-0.02-0.05,1.94-0.73,5.86-2.04c3.93-1.31,7.82-2.33,11.67-3.06c3.85-0.73,7.09-1.16,9.72-1.28c2.63-0.12,7.48-0.15,14.57-0.08
	l0,0.01c-0.03,0.21,0.37,3.71,1.2,10.51c0.83,6.8,1.63,12.42,2.41,16.87c0.78,4.45,1.79,8.9,3.03,13.34
	c1.24,4.45,2.64,8.6,4.2,12.46c1.56,3.86,2.81,7.1,3.77,9.7c0.96,2.61,1.46,5.13,1.52,7.56c-0.06,0.07-3.02,0.13-8.88,0.18
	c-5.85,0.04-10.94,0.07-15.26,0.08s-7.54,0.02-9.66,0.02c-2.13,0-4.05,0.17-5.77,0.5c-1.72,0.33-4.15,2.11-7.28,5.35l0.12,0.28"/>
<path id="STROKE_24d012a5-2ab5-4358-9e4d-4e25122afa9d" class="st12" d="M189.08,323.09l-0.27,0.15l-0.17,0.82
	c-0.06,0.68-0.04,1.68,0.06,3c0.1,1.32,0.07,2.25-0.1,2.8c-0.16,0.55-0.63,1.01-1.41,1.39c-0.77,0.38-1.51,0.58-2.2,0.61
	c-0.69,0.03-1.38,0.06-2.08,0.11c-0.69,0.04-2.54-0.64-5.55-2.06"/>
<path id="STROKE_485089c9-bfbd-4eb0-9ce4-f1391febbfb6" class="st13" d="M158.69,292.56c-0.04-0.03-0.87-0.18-2.5-0.44
	c-1.63-0.26-3.17-0.26-4.62-0.01c-1.45,0.25-2.77,1.05-3.94,2.39"/>
<path id="STROKE_4df86616-3ef2-4dde-813b-b0874f12d736" class="st14" d="M446.25,301.39l-0.08-2.3c-0.07,0.09-0.12,3.2-0.14,9.35
	c-0.02,6.15,0.27,12.68,0.86,19.59c0.59,6.91,1.02,12.75,1.26,17.51c0.25,4.76,0.35,9.68,0.3,14.75c-0.05,0.13,1.34,0.29,4.18,0.47
	c2.84,0.19,5.62,0.16,8.32-0.07c2.7-0.23,5.44-0.56,8.2-0.98c2.76-0.43,5.25-0.65,7.47-0.69c2.21-0.03,4.16,0.18,5.85,0.64
	s3.33,0.99,4.93,1.57c1.6,0.59,3.03,0.95,4.27,1.09c1.25,0.14,2.59-0.2,4.02-1.03c1.44-0.83,2.51-1.55,3.22-2.17
	c0.71-0.62,1.18-1.13,1.4-1.54c0.22-0.4,0.35-0.69,0.39-0.86c0.04-0.17,0.12-0.47,0.23-0.9s0.24-0.84,0.37-1.24
	c0.13-0.4,0.31-0.94,0.54-1.63c0.23-0.69,0.34-2.92,0.32-6.68c-0.01-3.77-0.03-8.27-0.07-13.51c-0.03-5.24,0-9.2,0.1-11.88
	c0.1-2.68,0.17-4.83,0.23-6.47c0.05-1.63-0.05-3.18-0.3-4.63c-0.25-1.45-0.61-2.52-1.08-3.21c-0.47-0.69-0.83-1.19-1.1-1.49
	c-0.27-0.3-0.47-0.56-0.6-0.76c-0.13-0.2-0.24-0.37-0.34-0.51c-0.09-0.13-0.15-0.22-0.16-0.26c-0.01-0.04-0.35-0.45-0.99-1.22
	c-0.65-0.77-1.37-1.34-2.17-1.71c-0.8-0.37-1.5-0.6-2.1-0.69s-1.14-0.13-1.6-0.11c-0.46,0.01-0.92,0.05-1.36,0.12
	c-0.44,0.07-1.02,0.22-1.74,0.45c-0.72,0.23-2,0.4-3.85,0.53c-1.85,0.13-3.9,0.2-6.14,0.21c-2.24,0.01-3.96,0.02-5.14,0.03
	c-1.18,0.01-2.07,0.08-2.65,0.21c-0.59,0.14-0.97,0.23-1.15,0.28c-0.18,0.05-0.39,0.09-0.65,0.13c-0.25,0.04-0.73,0.06-1.42,0.07
	c-0.69,0.01-1.07,0.01-1.14,0.01c-0.07,0-0.12-0.02-0.16-0.05c-0.04-0.03-3.4-0.04-10.08-0.01l-0.01-0.02
	c0.08-0.06,0.22-0.19,0.41-0.39"/>
<path id="STROKE_e9228280-4588-4831-9e2d-aa32975d79ce" class="st15" d="M378.84,477.49l0.11-2.39c0.08,0.04,0.4,5.8,0.96,17.29
	c0.56,11.49,0.94,21.04,1.14,28.67c0.2,7.63,0.38,14.11,0.56,19.44c0.18,5.33-0.12,11.46-0.89,18.38
	c-0.77,6.92-1.46,13.27-2.06,19.04c-0.6,5.77-0.96,10.25-1.07,13.44c-0.11,3.19-0.22,5.72-0.31,7.62c0.69,0.5,1.05,0.76,1.08,0.76
	c0.59,0.21,3.61,0.42,9.06,0.63c5.45,0.21,10.79,0.09,16.03-0.36c5.23-0.46,9.09-0.9,11.58-1.32c2.48-0.42,5.23-0.69,8.24-0.79
	c3.01-0.1,5.38-0.16,7.13-0.18c1.75-0.02,4.15,0.17,7.2,0.56c3.06,0.4,5.41,0.65,7.06,0.76c1.65,0.11,2.81,0.11,3.5,0
	c0.69-0.11,1.24-0.28,1.65-0.5c0.42-0.23,0.74-0.75,0.97-1.58c0.23-0.83-0.02-2.3-0.75-4.41c-0.73-2.11-1.56-4.41-2.49-6.91
	c-0.93-2.5-1.58-7.06-1.96-13.68c-0.37-6.62-0.67-11.99-0.89-16.12c-0.22-4.13-0.68-8.96-1.38-14.49
	c-0.7-5.53-1.19-10.04-1.47-13.53c-0.28-3.49-0.58-6.71-0.88-9.65c-0.3-2.94-0.69-6.89-1.15-11.86c-0.47-4.97-0.75-10.05-0.86-15.25
	c-0.1-5.2-0.16-9.61-0.16-13.25c0-3.64-0.01-6.27-0.02-7.89c-0.01-1.63-0.06-2.69-0.15-3.19c-0.09-0.5-0.2-0.95-0.33-1.35
	c-0.14-0.4-0.52-0.84-1.15-1.33c-0.63-0.49-1.38-0.8-2.23-0.92s-1.8-0.16-2.82-0.09c-1.02,0.07-1.89,0.15-2.59,0.24
	c-0.7,0.1-3.49,0.76-8.36,2s-8.74,2.33-11.62,3.29c-2.88,0.96-5.38,1.63-7.49,2c-2.11,0.38-3.77,0.62-4.97,0.73
	c-1.2,0.11-2.16-0.16-2.87-0.8c-0.71-0.64-1.52-1.25-2.44-1.8l-0.19-0.53"/>
<path id="STROKE_999f2616-0e28-496d-9365-984158f1d4ba" class="st16" d="M569.08,440.33c-0.29-0.34-0.56-0.66-0.82-0.95
	c-0.26-0.29-0.47-0.54-0.62-0.75c-0.15-0.21-0.27-0.43-0.37-0.67c0.64-0.17,1.74,1.56,3.32,5.19c1.58,3.63,2.76,6.76,3.54,9.4
	s1.44,4.48,1.96,5.54c0.52,1.05,1.35,2.56,2.48,4.51c1.13,1.95,2.19,3.71,3.17,5.26c0.98,1.55,1.16,5.4,0.55,11.56
	c0.03,0.13-0.09-0.43-0.37-1.69c0.09-0.23,1.98-0.91,5.66-2.02c3.68-1.12,6.53-2,8.56-2.64c2.03-0.64,7.58-1.53,16.64-2.65
	c9.07-1.12,15.97-1.91,20.71-2.35c4.74-0.45,8.27-0.85,10.59-1.22c2.32-0.37,6.02-0.93,11.11-1.68c5.08-0.75,10.46-1.51,16.14-2.26
	c5.68-0.75,10.75-1.36,15.23-1.83c4.48-0.47,7.93-0.84,10.36-1.11c2.43-0.27,5.78-0.72,10.05-1.34c4.27-0.63,7.5-1.07,9.7-1.32
	c2.2-0.25,3.69-0.47,4.49-0.65c0.8-0.18,1.47-0.66,2.01-1.45c0.55-0.79,0.79-3.92,0.74-9.39c-0.05-5.47,0.04-11.66,0.29-18.57
	c0.24-6.91,0.36-12.09,0.35-15.55c-0.01-3.46-0.08-6.13-0.22-8.01c-0.14-1.88-0.41-3.34-0.82-4.39c-0.02-0.06-0.24-0.02-0.65,0.13
	c-0.41,0.15-0.62,0.22-0.64,0.22c-0.02,0-0.37,0.17-1.06,0.51c-0.69,0.34-2.01,0.74-3.94,1.2c-1.93,0.46-4.38,0.73-7.33,0.83
	c-2.96,0.1-6.8,0.1-11.52,0.02c-4.72-0.08-9.93,0.1-15.61,0.55s-11.89,0.84-18.6,1.18c-6.71,0.34-13.66,0.56-20.84,0.66
	c-7.18,0.1-12.58,0.26-16.2,0.49c-3.62,0.23-7.11,0.48-10.47,0.77c-3.36,0.29-6.68,0.64-9.97,1.04s-7.98,0.83-14.06,1.28
	c-6.08,0.45-14.88,0.56-26.4,0.34l0.33,0.08c0.08,0,0.41,3.16,0.99,9.49c0.58,6.33,1.39,13.69,2.43,22.1
	c0.25,0.06,0.6-0.8,1.05-2.58c0.45-1.78-0.02-4.39-1.39-7.82"/>
<path id="STROKE_0dc88f56-e22e-44a6-8598-583b41fc6722" class="st17" d="M666.75,234.64c0.14-0.62,0.51-1.68,1.12-3.19l0.04,0
	c0.17,0.5,0.14,2.79-0.1,6.86c-0.23,4.07-0.37,8.74-0.41,14.02c-0.04,5.28-0.02,9.3,0.08,12.08c0.1,2.77,0.25,4.98,0.46,6.6
	c0.21,1.63,0.79,4.81,1.75,9.55c0.96,4.74,1.54,9.43,1.73,14.09l-0.03,0c-0.03-0.45-0.04-0.74-0.03-0.87
	c0.01-0.12-0.74-3.56-2.26-10.31c-1.51-6.75-2.69-12.78-3.52-18.09c-0.84-5.31-1.41-9.76-1.73-13.34c-0.32-3.59-0.53-6.36-0.65-8.32
	c-0.12-1.96-0.18-3.24-0.2-3.84c-0.02-0.6-0.02-1.28-0.02-2.03c0.01-0.75,0.04-1.39,0.09-1.93c0.06-0.54,0.15-1.11,0.27-1.73
	c0.12-0.61,0.18-0.94,0.18-0.98c0-0.04,0.09-0.27,0.27-0.68c0.19-0.42,0.42-0.81,0.7-1.17c0.28-0.36,0.75-0.77,1.41-1.23
	s1.28-0.78,1.88-0.97c0.6-0.19,1.06-0.34,1.39-0.42c0.33-0.09,2.53-0.12,6.59-0.1c4.06,0.02,7.92,0.01,11.58-0.04
	c3.66-0.04,7.71-0.51,12.13-1.4c4.42-0.89,9.15-1.54,14.19-1.94c5.03-0.4,10.8-0.57,17.31-0.49c6.5,0.07,11.42,0.11,14.74,0.12
	c3.32,0.01,7.99-0.26,13.99-0.78c6.01-0.53,10.61-0.89,13.81-1.08c3.2-0.19,5.61-0.29,7.22-0.3c1.61-0.01,3.24,0.25,4.89,0.77
	c1.64,0.52,2.93,1.16,3.85,1.93c0.92,0.77,1.65,2.47,2.18,5.11c0.53,2.64,1.02,5.7,1.48,9.17c0.46,3.47,0.97,6.8,1.54,9.99
	c0.57,3.19,1.35,6.47,2.33,9.85c0.99,3.38,1.87,6.32,2.67,8.84c0.79,2.51,1.83,5.98,3.1,10.41c-0.72,0.51-1.09,0.78-1.11,0.8
	s-1.69,0.63-5.02,1.81c-3.33,1.18-6.93,2.15-10.81,2.91c-3.87,0.76-8.9,1.23-15.06,1.43c-6.17,0.2-13.83,0.78-22.98,1.75
	c-9.15,0.97-17.45,1.93-24.88,2.89c-7.43,0.96-13.21,1.84-17.33,2.65c-4.12,0.81-8.42,1.34-12.89,1.61"/>
<g>
	<path id="STROKE_a20369c5-4b27-40db-af7f-f9d9afec4b10" class="st18" d="M564.39,109.5c-0.04,0.02,0.11,0.91,0.46,2.68l0.08,0
		c0.08-0.13-0.02-4.18-0.28-12.16c-0.27-7.98-0.35-15.21-0.24-21.7c0.11-6.49,0.55-12.92,1.32-19.29l0.06-0.05
		c0.21-0.26,2.47-1.5,6.78-3.71c4.31-2.21,8.82-3.88,13.54-4.99c4.71-1.12,8.42-1.89,11.13-2.31c2.71-0.42,4.72-0.69,6.04-0.81
		c1.32-0.12,5.13-0.03,11.44,0.27c6.31,0.3,11.9,0.54,16.78,0.71c4.88,0.18,10.44-0.25,16.68-1.29l0.17,0.13"/>
	<path id="STROKE_e4403e85-e79a-4137-9240-18a7e77d8b4f" class="st19" d="M647.41,50.33c0.05,0.48,0.01,3.73-0.14,9.77
		c-0.15,6.04-0.25,11.57-0.31,16.59c-0.06,5.02-0.08,8.78-0.06,11.27c0.02,2.49,0.09,4.33,0.19,5.53c0.1,1.2,0.24,2.16,0.4,2.88
		c0.16,0.72,0.87,4.76,2.12,12.13c-0.02,0.29-0.97-0.32-2.84-1.84"/>
	<path id="STROKE_b98b8efa-39d5-414b-8986-e4766ffd1c48" class="st20" d="M573.45,116.02l-0.67-0.13l-0.15-0.1
		c-0.13-0.1,3.97-0.78,12.32-2.05c8.34-1.26,14.91-2.19,19.72-2.79c4.81-0.59,8.29-1,10.44-1.21c2.15-0.21,5.38-0.5,9.68-0.88
		c4.31-0.38,8.58-0.63,12.81-0.76c4.23-0.13,8,0.1,11.32,0.68l-0.12,0.06"/>
	<path id="STROKE_d550a83e-9379-4540-b190-89b35a3596bb" class="st21" d="M565.12,118.53c-0.08-0.49-0.07-1.05,0.01-1.67
		c0.08-0.62,2.02-1.38,5.81-2.28c3.79-0.9,6.78-1.48,8.97-1.74c2.18-0.27,7.35-0.43,15.5-0.47c8.15-0.05,14.87,0.06,20.15,0.33
		c5.28,0.27,17.47-1.04,36.56-3.91"/>
	<path id="STROKE_ce4edb99-cd13-42c3-b4a8-a89180b658bd" class="st22" d="M567.89,55.24c-0.13,0.17-0.25,4.94-0.36,14.29
		c-0.12,9.35-0.32,16.61-0.61,21.77c-0.29,5.16-0.42,9.16-0.38,11.99s1,6.28,2.87,10.33"/>
</g>
<g>
	<path id="STROKE_06648626-082f-42a2-8ace-b6137bb249c3" class="st23" d="M215.63,633.69l-0.17,0.16c-0.21,0.76-0.19,2.78,0.05,6.07
		c0.25,3.29,0.55,6.39,0.91,9.3c0.36,2.91,0.64,5.13,0.83,6.66s0.72,5.92,1.58,13.19c0.86,7.26,1.44,13.84,1.75,19.71
		c0.31,5.88,0.47,10.28,0.5,13.21c0.02,2.93,0.04,5.39,0.05,7.38c0.01,1.99-0.4,5.38-1.21,10.17c-0.82,4.79-1.52,9.09-2.11,12.89
		c-0.59,3.8-0.77,7.34-0.53,10.6"/>
	<path id="STROKE_0f5164c2-52b5-4b4c-b9ae-e177fe10c26a" class="st24" d="M207.48,744.36l0.32,0.29c0.64,0.14,1.16,0.22,1.58,0.25
		c0.41,0.03,0.76,0.06,1.05,0.07c0.28,0.02,4.08-0.21,11.37-0.68c7.3-0.47,12.94-0.85,16.92-1.16c3.98-0.31,10.47-0.8,19.47-1.47
		c9-0.67,16.11-1.06,21.33-1.18c5.23-0.12,12.06-0.6,20.52-1.46c8.45-0.86,15.17-1.56,20.15-2.1c4.98-0.55,10.36-0.91,16.13-1.08
		l0.02-0.02c0.23,0.03-0.29-0.25-1.58-0.84c-1.28-0.58-2.35-1.26-3.22-2.01c-0.86-0.76-1.56-2.35-2.1-4.79s-0.85-4.92-0.94-7.43
		c-0.09-2.52-0.24-5.56-0.45-9.11c-0.21-3.55-0.53-7.87-0.98-12.94c-0.45-5.07-0.95-10.54-1.51-16.41s-1.84-20.95-3.83-45.27
		c-0.32-0.09-0.95,0-1.89,0.26"/>
	<path id="STROKE_d046b134-a34f-4e33-9df5-41b6d2c52112" class="st25" d="M327.61,638.13c-0.16-0.38-0.26-0.59-0.31-0.63l-0.44-0.62
		c-0.57-1.02-5.08-1.31-13.53-0.9c-8.45,0.42-15.18,0.79-20.17,1.11c-4.99,0.33-8.66,0.51-11.02,0.57
		c-2.35,0.05-4.17,0.08-5.45,0.09c-1.28,0.01-3.88,0.01-7.8,0c-3.92-0.01-8.07-0.17-12.46-0.47c-4.39-0.3-7.96-0.5-10.73-0.6
		c-2.77-0.1-5.46-0.13-8.07-0.09c-2.62,0.04-5.65,0.67-9.1,1.9c-3.45,1.23-6.14,2.34-8.07,3.33c-1.93,0.99-3.27,2.05-4.02,3.2
		l-0.01,0.47"/>
</g>
<g>
	<path id="STROKE_5ca0d019-a80a-4c70-aa10-50a671611380" class="st26" d="M650.66,570.58c0.04-0.11-0.21-1.56-0.76-4.36
		c0.01,0.01,0,3.66-0.03,10.94c-0.03,7.28-0.05,14.72-0.06,22.31c-0.01,7.59,0.08,13.74,0.26,18.44c0.19,4.7,0.43,8.27,0.75,10.69
		c0.31,2.43,0.66,4.3,1.06,5.62c0.39,1.32,1.2,2.15,2.44,2.49c0.17-0.24,0.14-1.5-0.07-3.77"/>
	<path id="STROKE_ef85f8af-4b3f-492b-9b49-aa66be268d8e" class="st27" d="M642.45,558.11c-1.04,0.21-1.72,0.4-2.03,0.56
		c-0.02,0.62,2.43,0.98,7.36,1.08s9.09,0.01,12.47-0.27c3.38-0.28,6.88-0.69,10.5-1.24c3.62-0.54,6.38-0.92,8.29-1.14
		c1.91-0.22,7.28-1.17,16.12-2.87c8.84-1.69,15.83-3.04,20.97-4.04c5.15-1,9.76-1.64,13.83-1.93c4.08-0.29,7.85-0.53,11.31-0.71
		c3.46-0.18,6.52-0.33,9.18-0.45c0.38,0.22,0.13,3.27-0.75,9.15c-0.88,5.88-1.64,11.43-2.29,16.65c-0.65,5.21-0.98,9.74-0.99,13.57
		c-0.01,3.83,0.03,6.91,0.11,9.25c0.08,2.34,1.74,10.33,4.98,23.98c0,0.08-5.09,0.13-15.29,0.16c-10.2,0.03-18.81,0.19-25.84,0.48
		c-7.03,0.29-13.13,0.46-18.28,0.51c-5.15,0.05-9.56,0.01-13.21-0.13c-3.66-0.14-6.95-0.27-9.89-0.41
		c-2.94-0.13-5.53-0.09-7.78,0.12c-2.25,0.21-8.11,2.46-17.59,6.75"/>
</g>
<g>
	<path id="STROKE_214a187e-e2cc-4a17-b157-4b08f3618344" class="st28" d="M828.85,386.45c0.06,0.14,0.13,3.93,0.21,11.35
		c0.07,7.43,0.09,13.71,0.04,18.83c-0.05,5.13,0.01,10.1,0.18,14.92c0.17,4.82,1.09,10.44,2.78,16.85c0.09,0.11-0.15-1.65-0.7-5.29"
		/>
	<path id="STROKE_10b1436c-c473-4b4e-aa50-2429fd9ceb00" class="st29" d="M812.43,391.17c0.01-0.42,0.04-1.03,0.08-1.85
		s0.28-1.47,0.71-1.97c0.43-0.5,1.49-0.81,3.17-0.95c1.68-0.14,5.16-0.14,10.43,0s11.76-0.12,19.45-0.79
		c7.7-0.67,14.3-1.36,19.81-2.08c5.51-0.72,10.77-1.13,15.8-1.22c5.03-0.1,8.65-0.14,10.85-0.14c2.2,0,5.24,0.26,9.13,0.79
		c3.88,0.53,10.54,1.57,19.97,3.12c0.47,0.24,0.21,3.77-0.77,10.6c-0.98,6.83-1.82,13.83-2.54,21.02
		c-0.71,7.18-1.06,12.95-1.05,17.3c0.01,4.35-0.01,7.8-0.06,10.34c-0.05,2.54,1.15,6.49,3.59,11.85c-0.04-0.05-1.25,0.01-3.63,0.18
		c-2.38,0.17-6.82,0.41-13.32,0.71c-6.5,0.31-11.38,0.46-14.63,0.46c-3.25,0-8.28-0.29-15.1-0.88c-6.82-0.59-12.41-1.15-16.77-1.68
		c-4.36-0.53-7.82-0.91-10.36-1.15c-2.55-0.24-5.53-1.24-8.95-3.01"/>
</g>
<path id="STROKE_8f3e233c-51aa-4117-99aa-397470fee69e" class="st30" d="M858.45,88.81c-0.13,0.24,0.32,5.62,1.36,16.16
	c1.04,10.53,1.75,19.15,2.13,25.86c0.38,6.71,0.6,11.57,0.67,14.59c0.07,3.02,0.08,5.31,0.03,6.86c-0.04,1.55-0.2,2.69-0.46,3.41
	c-0.26,0.72-0.56,1.26-0.9,1.62c-0.34,0.36-1.02,0.2-2.05-0.5"/>
<path id="STROKE_3e974350-1ef4-4101-a2df-39accfe5e651" class="st31" d="M855.26,80.58l-0.08-1.24c-0.06-0.34-0.14-0.62-0.24-0.85
	c-0.07,0.36,1.55,0.56,4.86,0.59c3.32,0.03,8.52-0.58,15.6-1.84c7.08-1.26,12.41-2.2,16-2.83c3.59-0.63,7.21-1.18,10.87-1.65
	c3.66-0.47,8.77-0.81,15.33-1.01c6.56-0.2,12.12-0.3,16.68-0.27c4.56,0.02,11.91-0.26,22.04-0.84c-0.07,0.1-0.13,0.2-0.17,0.28
	c-0.04,0.09-0.15,0.5-0.32,1.23c-0.17,0.73-0.29,1.36-0.37,1.88c-0.08,0.53-0.3,3.99-0.66,10.41c-0.36,6.41-0.38,12.32-0.05,17.71
	c0.33,5.39,0.7,9.37,1.1,11.95c0.41,2.57,1.01,5.96,1.82,10.15c0.81,4.19,1.45,8.29,1.95,12.3c0.49,4.01,0.82,6.99,1,8.95
	c0.18,1.96,0.32,3.79,0.43,5.48c0.11,1.69-0.01,3.06-0.35,4.11c-0.34,1.05-0.99,1.97-1.95,2.75s-2.65,1.28-5.09,1.52
	c-2.44,0.23-6,0.46-10.67,0.67c-4.68,0.21-8.67,0.38-12,0.51c-3.32,0.13-7.12,0.22-11.4,0.27c-4.28,0.05-9.42,0.07-15.42,0.06
	s-12.18-0.16-18.54-0.46c-6.36-0.29-14.83-1.47-25.4-3.54c-0.01,0.08,0.02,0.26,0.09,0.55"/>
</svg>
