<?xml version="1.0" encoding="utf-8"?>
<!-- Generator: Adobe Illustrator 28.0.0, SVG Export Plug-In . SVG Version: 6.00 Build 0)  -->
<svg version="1.1" id="Layer_1" xmlns="http://www.w3.org/2000/svg" xmlns:xlink="http://www.w3.org/1999/xlink" x="0px" y="0px"
	 viewBox="0 0 1227 792" style="enable-background:new 0 0 1227 792;" xml:space="preserve">
<style type="text/css">
	.st0{fill:none;stroke:#191815;stroke-width:2.909;stroke-linecap:round;stroke-linejoin:round;stroke-opacity:0.888;}
	.st1{fill:none;stroke:#191815;stroke-width:2.814;stroke-linecap:round;stroke-linejoin:round;stroke-opacity:0.865;}
	.st2{fill:none;stroke:#191815;stroke-width:2.789;stroke-linecap:round;stroke-linejoin:round;stroke-opacity:0.866;}
	.st3{fill:none;stroke:#191815;stroke-width:2.977;stroke-linecap:round;stroke-linejoin:round;stroke-opacity:0.876;}
	.st4{fill:none;stroke:#191815;stroke-width:2.842;stroke-linecap:round;stroke-linejoin:round;stroke-opacity:0.905;}
	.st5{fill:none;stroke:#191815;stroke-width:2.956;stroke-linecap:round;stroke-linejoin:round;stroke-opacity:0.899;}
	.st6{fill:none;stroke:#191815;stroke-width:2.864;stroke-linecap:round;stroke-linejoin:round;stroke-opacity:0.889;}
	.st7{fill:none;stroke:#191815;stroke-width:2.695;stroke-linecap:round;stroke-linejoin:round;stroke-opacity:0.895;}
	.st8{fill:none;stroke:#191815;stroke-width:2.907;stroke-linecap:round;stroke-linejoin:round;stroke-opacity:0.857;}
	.st9{fill:none;stroke:#191815;stroke-width:2.779;stroke-linecap:round;stroke-linejoin:round;stroke-opacity:0.919;}
	.st10{fill:none;stroke:#191815;stroke-width:2.916;stroke-linecap:round;stroke-linejoin:round;stroke-opacity:0.897;}
	.st11{fill:none;stroke:#191815;stroke-width:3.077;stroke-linecap:round;stroke-linejoin:round;stroke-opacity:0.89;}
	.st12{fill:none;stroke:#191815;stroke-width:2.864;stroke-linecap:round;stroke-linejoin:round;stroke-opacity:0.884;}
	.st13{fill:none;stroke:#191815;stroke-width:2.761;stroke-linecap:round;stroke-linejoin:round;stroke-opacity:0.924;}
	.st14{fill:none;stroke:#191815;stroke-width:2.957;stroke-linecap:round;stroke-linejoin:round;stroke-opacity:0.952;}
	.st15{fill:none;stroke:#191815;stroke-width:2.635;stroke-linecap:round;stroke-linejoin:round;stroke-opacity:0.878;}
	.st16{fill:none;stroke:#191815;stroke-width:2.832;stroke-linecap:round;stroke-linejoin:round;stroke-opacity:0.854;}
	.st17{fill:none;stroke:#191815;stroke-width:2.697;stroke-linecap:round;stroke-linejoin:round;stroke-opacity:0.874;}
	.st18{fill:none;stroke:#191815;stroke-width:2.678;stroke-linecap:round;stroke-linejoin:round;stroke-opacity:0.858;}
	.st19{fill:none;stroke:#191815;stroke-width:2.611;stroke-linecap:round;stroke-linejoin:round;stroke-opacity:0.857;}
	.st20{fill:none;stroke:#191815;stroke-width:2.796;stroke-linecap:round;stroke-linejoin:round;stroke-opacity:0.922;}
	.st21{fill:none;stroke:#191815;stroke-width:2.704;stroke-linecap:round;stroke-linejoin:round;stroke-opacity:0.903;}
	.st22{fill:none;stroke:#191815;stroke-width:2.755;stroke-linecap:round;stroke-linejoin:round;stroke-opacity:0.904;}
	.st23{fill:none;stroke:#191815;stroke-width:2.592;stroke-linecap:round;stroke-linejoin:round;stroke-opacity:0.846;}
	.st24{fill:none;stroke:#191815;stroke-width:2.625;stroke-linecap:round;stroke-linejoin:round;stroke-opacity:0.848;}
	.st25{fill:none;stroke:#191815;stroke-width:2.615;stroke-linecap:round;stroke-linejoin:round;stroke-opacity:0.874;}
	.st26{fill:none;stroke:#191815;stroke-width:2.556;stroke-linecap:round;stroke-linejoin:round;stroke-opacity:0.865;}
	.st27{fill:none;stroke:#191815;stroke-width:2.68;stroke-linecap:round;stroke-linejoin:round;stroke-opacity:0.923;}
</style>
<path id="STROKE_4c9d928a-4484-473d-8fea-26358856958b" class="st0" d="M239.16,630.1c-0.18-0.54-0.76-1.71-1.76-3.5
	c-1-1.79-2.57-3.5-4.7-5.13c-2.14-1.63-4.1-2.82-5.88-3.56c-1.79-0.75-3.86-1.26-6.23-1.55s-4.52-0.14-6.44,0.43
	c-1.92,0.58-3.82,1.52-5.71,2.85c-1.88,1.32-3.59,2.61-5.14,3.87c-1.55,1.26-3.34,2.97-5.37,5.12c-2.04,2.16-3.77,4.49-5.22,6.99
	c-1.44,2.5-2.52,4.69-3.25,6.57c-0.72,1.88-1.25,3.24-1.57,4.09c-0.32,0.85-0.74,2.51-1.26,4.99c-0.52,2.48-0.86,5.22-1.02,8.21
	c-0.16,3-0.09,5.89,0.2,8.68c0.29,2.79,0.91,5.51,1.86,8.15c0.95,2.65,2.27,5.3,3.97,7.96c1.7,2.66,3.69,5.01,5.99,7.04
	c2.29,2.04,4.95,3.87,7.97,5.49c3.02,1.62,6.18,2.78,9.49,3.47c3.31,0.69,6.94,1.1,10.88,1.23c3.94,0.13,7.5-0.04,10.68-0.5
	c3.18-0.46,5.6-0.92,7.26-1.38s3.74-1.11,6.23-1.97c2.49-0.85,5.43-2.36,8.82-4.51c3.39-2.15,6.25-4.22,8.57-6.2
	c2.32-1.98,4.08-3.68,5.29-5.11c1.21-1.43,2.26-2.96,3.14-4.6c0.88-1.64,1.52-3.67,1.93-6.09c0.4-2.42,0.58-4.71,0.53-6.85
	c-0.05-2.14-0.33-4.14-0.83-6c-0.5-1.86-1.25-4.08-2.25-6.68c-1-2.6-2.31-5.48-3.92-8.65c-1.61-3.17-3.77-6.17-6.47-9
	c-2.7-2.83-5.17-5.17-7.39-7.02c-2.23-1.85-6.61-4.29-13.15-7.33"/>
<path id="STROKE_91584b3d-d07f-4379-8244-e77e0b2a488e" class="st1" d="M151.89,439.8c0.02,0.35-0.41,1.86-1.29,4.53
	c-0.88,2.68-1.35,5.64-1.43,8.9c-0.08,3.26-0.08,5.74-0.02,7.45c0.06,1.71,0.36,3.57,0.91,5.58c0.55,2.01,1.36,4.07,2.42,6.17
	c1.06,2.1,2.54,3.96,4.44,5.58c1.9,1.61,4.16,3.09,6.8,4.44c2.64,1.34,5.25,2.4,7.83,3.19c2.58,0.78,4.63,1.34,6.14,1.67
	c1.51,0.33,4.33,0.65,8.46,0.96c4.13,0.31,8.2,0.29,12.22-0.07c4.02-0.36,7.53-0.89,10.55-1.59c3.01-0.7,6.14-1.99,9.36-3.87
	c3.23-1.88,6.04-3.86,8.43-5.95c2.39-2.09,4.52-4.3,6.38-6.62c1.86-2.33,3.58-5.39,5.17-9.19c1.58-3.8,2.65-7.44,3.2-10.93
	c0.55-3.49,0.9-6.15,1.04-7.98c0.14-1.83-0.08-4.03-0.67-6.62c-0.59-2.59-1.66-5.4-3.2-8.44c-1.55-3.04-3.19-5.63-4.93-7.76
	c-1.74-2.14-3.17-3.69-4.29-4.67c-1.12-0.98-2.56-2.12-4.34-3.45c-1.77-1.32-3.99-2.67-6.64-4.05c-2.65-1.38-5.88-2.4-9.67-3.07
	c-3.79-0.67-6.85-0.99-9.19-0.97c-2.34,0.02-4.64,0.18-6.9,0.49c-2.26,0.31-5.11,1.23-8.53,2.78c-3.42,1.55-6.08,2.86-7.99,3.94
	c-1.91,1.08-4.09,2.76-6.57,5.05c-2.47,2.29-4.38,4.15-5.73,5.57c-1.35,1.42-3.14,3.37-5.36,5.85c-2.22,2.48-4.52,6.48-6.89,12.01"
	/>
<path id="STROKE_bc5aca87-045d-4b1d-a731-6de9aef5e44c" class="st2" d="M204.54,212.35c-0.24,0.13-1.29,0.57-3.15,1.3
	c-1.86,0.74-3.52,1.41-4.98,2.03c-1.46,0.62-2.83,1.85-4.1,3.71s-2.45,3.99-3.55,6.4c-1.1,2.41-1.83,5.63-2.19,9.64
	c-0.36,4.02-0.55,7.44-0.58,10.28c-0.03,2.84,0.44,6.09,1.39,9.75c0.96,3.66,1.8,6.49,2.53,8.48c0.73,1.99,1.57,4.01,2.53,6.05
	c0.96,2.04,2.28,4.17,3.96,6.39c1.68,2.22,3.73,4.18,6.14,5.88c2.42,1.7,4.6,2.99,6.56,3.87c1.95,0.88,3.73,1.6,5.34,2.16
	c1.61,0.56,4.05,0.93,7.32,1.11c3.27,0.18,6.13,0.24,8.59,0.2c2.46-0.05,5.52-0.66,9.17-1.84c3.66-1.18,7.08-2.56,10.26-4.15
	c3.18-1.59,5.89-3.16,8.12-4.7c2.23-1.55,4.15-3.05,5.76-4.52c1.6-1.47,3.34-3.19,5.22-5.16c1.87-1.97,3.72-4.38,5.54-7.22
	c1.82-2.84,3.28-6.31,4.36-10.41c1.08-4.1,1.76-7.42,2.02-9.96c0.26-2.54,0.44-5.21,0.54-8c0.09-2.79-0.01-5.49-0.31-8.1
	c-0.3-2.61-1.05-5.25-2.24-7.92c-1.19-2.67-3.47-5.59-6.86-8.75c-3.38-3.16-6.37-5.67-8.96-7.54c-2.59-1.87-5.03-3.33-7.32-4.37
	c-2.29-1.05-4.99-1.73-8.11-2.06c-3.12-0.33-6.1-0.33-8.94-0.01c-2.84,0.32-6.94,1.48-12.32,3.47c-5.37,1.99-14.7,6.68-27.98,14.07"
	/>
<path id="STROKE_869e7a66-1c4c-4377-9418-8a1e65211e88" class="st3" d="M405.7,311.47c-0.91-0.06-2.61-0.27-5.11-0.62
	c-2.5-0.35-4.64-0.5-6.42-0.44c-1.78,0.06-3.5,0.47-5.15,1.24c-1.65,0.77-3.13,1.69-4.45,2.76c-1.32,1.08-2.75,2.95-4.29,5.61
	c-1.54,2.67-2.85,6.01-3.93,10.03c-1.08,4.02-1.78,7.42-2.1,10.18c-0.32,2.77-0.44,5.08-0.36,6.94c0.08,1.86,0.33,3.42,0.75,4.69
	s1.15,2.48,2.17,3.63c1.02,1.15,2.2,2,3.53,2.56c1.33,0.56,2.78,0.98,4.35,1.26c1.57,0.29,3.84,0.14,6.84-0.44
	c2.99-0.58,6.06-1.45,9.18-2.62c3.13-1.17,5.52-2.24,7.19-3.2c1.66-0.96,3.14-2.18,4.42-3.65c1.29-1.47,2.3-3.07,3.05-4.81
	c0.75-1.74,1.18-3.84,1.28-6.32c0.11-2.48-0.05-4.59-0.48-6.34c-0.42-1.75-0.98-3.43-1.67-5.02c-0.69-1.59-1.52-3.02-2.5-4.28
	c-0.98-1.26-2.44-2.33-4.37-3.22c-1.94-0.89-4.41-1.52-7.42-1.88c-3.01-0.37-7.63,0.62-13.87,2.97"/>
<path id="STROKE_7b09b832-bb1f-46ba-b293-c2b82fdb3db6" class="st4" d="M383.65,148.38c-0.4-0.31-1.35-1.06-2.86-2.26
	c-1.51-1.2-2.8-1.86-3.88-1.99c-1.07-0.13-2.1,0.05-3.09,0.53c-0.98,0.48-2.22,1.78-3.7,3.9c-1.48,2.12-2.87,4.62-4.16,7.49
	c-1.29,2.88-2.46,6.78-3.51,11.7c-1.06,4.93-1.76,8.65-2.11,11.17c-0.35,2.52-0.58,5.56-0.69,9.13c-0.11,3.57-0.08,6.34,0.1,8.32
	c0.18,1.98,0.68,4.05,1.52,6.22c0.84,2.16,2,4.17,3.5,6.02c1.5,1.85,3.45,3.29,5.86,4.32s4.4,1.75,5.98,2.16
	c1.58,0.41,3.65,0.7,6.2,0.86c2.55,0.17,5.1,0.06,7.65-0.31c2.55-0.37,5.21-1.16,8-2.36c2.78-1.2,5.25-2.55,7.4-4.05
	c2.15-1.5,3.97-3.24,5.46-5.24c1.49-1.99,2.88-4.01,4.15-6.04c1.28-2.03,2.21-4.15,2.81-6.34c0.59-2.19,0.98-3.85,1.15-4.96
	c0.17-1.11,0.23-3.03,0.17-5.74c-0.06-2.71-0.3-5.21-0.72-7.51c-0.42-2.3-1.09-4.75-1.99-7.36c-0.91-2.6-2.04-4.98-3.4-7.13
	c-1.36-2.15-2.84-3.89-4.43-5.23c-1.59-1.34-3.39-2.42-5.39-3.23c-2-0.81-4.07-1.32-6.21-1.53c-2.14-0.21-4.41-0.06-6.82,0.44
	c-2.41,0.5-6.53,3.15-12.36,7.95"/>
<path id="STROKE_b6e72ab0-209c-46a0-a17f-eca008a3ff8b" class="st5" d="M293.52,47.27c-0.03,0.44-0.09,1.9-0.18,4.36
	c-0.09,2.47-0.11,4.24-0.06,5.3c0.05,1.06-0.15,2.22-0.6,3.46c-0.45,1.25-2.14,2.08-5.07,2.49c-2.93,0.42-5.19,0.63-6.77,0.65
	c-1.58,0.02-3.54-0.3-5.88-0.95c-2.34-0.65-4.39-1.55-6.17-2.71c-1.78-1.16-3.29-2.23-4.53-3.2c-1.24-0.98-2.5-2.36-3.77-4.14
	c-1.27-1.78-2.26-3.71-2.97-5.79s-1.15-4.68-1.29-7.82c-0.15-3.14-0.16-5.88-0.06-8.22c0.11-2.34,0.45-4.37,1.03-6.08
	c0.58-1.71,1.33-3.13,2.26-4.26c0.93-1.13,1.78-2.02,2.54-2.68c0.76-0.66,2.38-1.36,4.86-2.09c2.48-0.73,4.75-1.1,6.81-1.11
	c2.06-0.01,3.43-0.01,4.11,0.01c0.68,0.02,2.43,0.61,5.24,1.77c2.81,1.16,5.4,2.55,7.75,4.18c2.35,1.63,4.46,3.27,6.34,4.9
	c1.88,1.64,3.5,3.59,4.87,5.85c1.37,2.26,2.36,4.41,2.96,6.45c0.6,2.04,0.81,4.08,0.63,6.12c-0.18,2.05-1.29,4.66-3.32,7.85
	s-3.97,5.73-5.79,7.63c-1.83,1.9-3.23,3.29-4.22,4.18s-2.05,1.64-3.2,2.26c-1.15,0.62-2.17,1.04-3.06,1.24
	c-0.89,0.21-1.69,0.29-2.4,0.23c-0.7-0.05-1.44-0.46-2.19-1.22c-0.76-0.76-1.6-1.91-2.55-3.44"/>
<path id="STROKE_fa0e39cb-74d9-4092-b7f0-0709ef89abcb" class="st6" d="M355.82,498.52c-0.08-0.07-0.74-0.4-1.99-0.98
	c-1.25-0.59-2.45-0.91-3.6-0.98c-1.15-0.07-2.21,0.14-3.17,0.64c-0.96,0.49-1.79,2.03-2.48,4.62c-0.69,2.59-1.05,5.43-1.1,8.53
	c-0.05,3.1,0.3,6.34,1.05,9.73c0.75,3.39,1.53,6.2,2.35,8.43s1.76,4.15,2.83,5.75c1.07,1.61,2.26,3,3.58,4.19
	c1.32,1.19,2.8,2.14,4.46,2.85c1.66,0.71,3.39,1.07,5.19,1.07c1.8,0,3.86-0.58,6.16-1.77c2.31-1.18,4.52-2.81,6.66-4.87
	c2.13-2.07,3.91-4.17,5.34-6.31c1.43-2.14,2.52-4.35,3.27-6.65c0.75-2.29,1.16-4.48,1.22-6.56c0.06-2.08-0.04-3.96-0.31-5.63
	c-0.27-1.67-0.92-3.41-1.95-5.19c-1.03-1.79-2.16-3.38-3.4-4.77s-3-2.84-5.28-4.32c-2.28-1.48-4.47-2.52-6.58-3.11
	c-2.1-0.59-3.91-0.98-5.42-1.19c-1.51-0.21-2.96-0.11-4.35,0.29s-3,1.48-4.83,3.26c-1.83,1.77-3.96,5.61-6.39,11.52"/>
<path id="STROKE_72d4f022-a1b6-4551-b7a8-8acdc44862bd" class="st7" d="M660.55,414.72c-1.06-0.27-2.6-0.57-4.62-0.91
	c-2.03-0.34-4.06-0.58-6.1-0.72c-2.04-0.14-4.46,0.37-7.24,1.54c-2.78,1.17-5.7,2.87-8.76,5.11c-3.06,2.24-5.41,4.13-7.04,5.67
	c-1.63,1.54-3.09,3.26-4.38,5.16c-1.29,1.9-2.62,4.46-3.99,7.68c-1.37,3.22-2.57,6.61-3.59,10.17s-1.73,7.04-2.12,10.44
	c-0.39,3.4-0.6,6.81-0.64,10.25s0.05,6.27,0.24,8.48c0.2,2.22,0.67,4.56,1.4,7.02c0.74,2.46,1.85,4.9,3.35,7.32
	c1.49,2.42,3.11,4.59,4.85,6.52c1.74,1.92,3.92,3.6,6.55,5.02c2.62,1.42,5.77,2.5,9.45,3.25c3.68,0.74,7.13,1.1,10.36,1.08
	c3.23-0.02,5.59-0.19,7.08-0.51s2.86-0.68,4.09-1.09c1.23-0.41,2.21-0.73,2.94-0.96c0.73-0.23,2.47-1.12,5.22-2.68
	c2.75-1.55,5.28-3.29,7.59-5.21c2.31-1.92,4.41-4.07,6.29-6.45c1.89-2.38,3.24-4.35,4.05-5.91c0.82-1.56,1.64-3.77,2.46-6.62
	c0.82-2.86,1.4-6.07,1.72-9.63c0.33-3.56,0.18-7.36-0.42-11.39c-0.61-4.03-1.55-8.09-2.82-12.18c-1.28-4.09-2.61-7.62-3.99-10.58
	c-1.39-2.96-2.94-5.53-4.66-7.71c-1.72-2.19-3.75-4.14-6.1-5.87c-2.35-1.73-4.46-3.07-6.32-4.04c-1.87-0.97-4.2-1.71-7.01-2.23
	c-2.8-0.51-7.8,0.42-15,2.79"/>
<path id="STROKE_d28bbb73-d43c-40a2-9ba9-b0ab41b86510" class="st8" d="M494.1,422.14c-0.04-0.03-0.47,0.01-1.28,0.11
	c-0.81,0.1-1.87,0.4-3.17,0.89c-1.3,0.49-2.34,1.16-3.11,2.02c-0.78,0.86-1.63,2.22-2.56,4.1c-0.93,1.87-1.57,4.65-1.92,8.34
	c-0.35,3.69-0.47,6.84-0.37,9.46c0.1,2.62,0.5,4.87,1.19,6.76c0.7,1.89,1.34,3.3,1.94,4.2c0.6,0.91,1.15,1.67,1.65,2.29
	c0.5,0.62,1.58,1.38,3.22,2.28c1.64,0.91,3.3,1.45,4.98,1.64c1.67,0.19,3.72,0.07,6.13-0.37c2.41-0.43,4.44-1.06,6.08-1.87
	c1.64-0.81,3.16-1.82,4.57-3.03c1.41-1.21,2.64-2.56,3.68-4.07c1.04-1.5,1.79-2.91,2.24-4.23s0.8-3.24,1.04-5.78
	c0.24-2.53-0.01-5.26-0.74-8.17c-0.73-2.91-1.77-5.51-3.11-7.79c-1.34-2.28-2.58-4.11-3.72-5.49c-1.14-1.38-2.36-2.44-3.67-3.16
	c-1.3-0.73-2.61-1.07-3.92-1.03c-1.31,0.04-2.66,0.79-4.05,2.23"/>
<path id="STROKE_e6d4d307-5100-4e28-b4d9-4247e0ab11da" class="st9" d="M599.11,187.13c-0.51,0-1.86-0.18-4.04-0.54
	c-2.18-0.36-4.17-0.38-5.98-0.05c-1.8,0.33-3.11,0.77-3.93,1.33c-0.81,0.55-1.76,1.18-2.85,1.88c-1.09,0.7-2.55,2.37-4.39,5.02
	s-3.22,4.94-4.14,6.89c-0.92,1.94-1.73,3.67-2.44,5.17c-0.7,1.51-1.77,4.07-3.19,7.69c-1.42,3.62-2.54,7.49-3.35,11.61
	s-1.31,8-1.5,11.63c-0.19,3.63-0.13,6.89,0.18,9.78c0.31,2.89,1,5.55,2.07,7.99c1.07,2.44,2.43,4.66,4.09,6.67
	c1.66,2.01,3.62,3.92,5.88,5.73c2.26,1.81,4.69,3.19,7.3,4.13c2.61,0.94,5.54,1.48,8.8,1.63c3.26,0.15,6.13,0.09,8.61-0.18
	c2.48-0.27,5.07-1.04,7.77-2.31c2.7-1.27,5.03-2.51,6.99-3.71c1.96-1.21,3.89-2.65,5.82-4.33c1.92-1.68,3.45-3.1,4.58-4.23
	c1.13-1.14,2.7-2.91,4.71-5.32c2.01-2.41,3.52-4.34,4.53-5.79c1.01-1.45,2.19-3.49,3.54-6.11c1.35-2.62,2.34-5.53,2.96-8.74
	c0.63-3.2,0.96-5.72,1.01-7.56c0.05-1.84,0.03-3.97-0.06-6.4c-0.09-2.43-0.41-4.8-0.98-7.11c-0.56-2.31-1.41-4.34-2.53-6.1
	c-1.12-1.76-2.78-3.49-4.96-5.18c-2.18-1.69-4.85-3.17-8-4.43c-3.15-1.26-5.6-2.15-7.35-2.66c-1.75-0.51-3.7-0.92-5.86-1.23
	c-2.16-0.31-4.33-0.51-6.53-0.61c-2.2-0.09-3.94-0.16-5.23-0.19c-1.29-0.03-2.9-0.05-4.86-0.04c-1.95,0.01-4.1-0.06-6.43-0.2"/>
<path id="STROKE_f44d66cd-546a-4f12-9a8a-a6a83f12169b" class="st10" d="M581.03,50.25c-0.13-0.3-0.53-0.98-1.22-2.04
	c-0.69-1.06-1.31-1.84-1.88-2.34c-0.56-0.5-1.4-0.85-2.5-1.04c-1.1-0.2-2.19,0.3-3.28,1.5c-1.09,1.19-2.38,3.65-3.88,7.38
	c-1.5,3.73-2.52,7.27-3.06,10.62c-0.54,3.35-0.83,5.93-0.88,7.75c-0.04,1.81-0.07,3.53-0.09,5.16c-0.01,1.63,0.19,3.25,0.61,4.86
	c0.42,1.62,1.27,3.07,2.56,4.36c1.29,1.29,2.81,2.29,4.57,2.99s3.69,1.07,5.79,1.11c2.1,0.03,4.45-0.42,7.05-1.35
	c2.6-0.93,5.06-2.18,7.39-3.75c2.33-1.57,4.54-3.45,6.64-5.65s3.82-4.38,5.17-6.54c1.35-2.16,2.33-4.15,2.93-5.98
	s0.93-3.44,0.98-4.85c0.06-1.4-0.15-2.62-0.62-3.66c-0.47-1.04-1.17-1.98-2.09-2.83c-0.92-0.85-2.45-2.26-4.6-4.24
	c-2.15-1.98-3.95-3.62-5.4-4.93c-1.45-1.31-2.82-2.41-4.11-3.32c-1.29-0.91-3.8-0.81-7.54,0.3"/>
<path id="STROKE_cc5ad83f-c470-4767-8cb2-3a4439caf66c" class="st11" d="M457.2,39.71c0.02-0.15-0.18-0.56-0.59-1.23
	c-0.41-0.67-1.11-1.06-2.1-1.18c-0.32,0.33-0.55,1.79-0.7,4.37c-0.15,2.58-0.09,4.79,0.17,6.64c0.26,1.84,0.73,3.42,1.42,4.74
	c0.69,1.31,1.41,2.33,2.18,3.06c0.77,0.73,2.08,1.29,3.96,1.69c1.87,0.4,3.43-0.21,4.68-1.82c1.25-1.61,2.11-3.46,2.59-5.55
	c0.47-2.09,0.69-3.7,0.65-4.85c-0.04-1.14-0.32-2.27-0.83-3.39c-0.51-1.11-1.92-2.01-4.23-2.68c-2.31-0.67-5.1-0.5-8.39,0.52"/>
<path id="STROKE_31161c76-b1cb-4aef-bc47-490a94e75e9b" class="st12" d="M667.43,678.46c0.37,0.48,1.24,2.19,2.62,5.13
	c1.37,2.94,2.35,5.53,2.92,7.78c0.57,2.25,1.16,4.9,1.76,7.94c0.6,3.04,1.01,5.5,1.23,7.37c0.22,1.87,0.36,3.7,0.41,5.48
	c0.06,1.78,0.02,3.34-0.13,4.66c-0.15,1.33-0.63,2.44-1.45,3.35c-0.82,0.91-1.69,1.54-2.6,1.91c-0.91,0.37-2.32,0.64-4.22,0.82
	c-1.9,0.18-4.48-0.34-7.74-1.56c-3.26-1.22-6.5-2.79-9.71-4.69c-3.21-1.9-5.93-3.62-8.16-5.14c-2.23-1.52-5.2-3.58-8.9-6.18
	s-6.71-4.76-9.04-6.47c-2.33-1.72-4.25-3.71-5.76-5.97c-1.51-2.26-2.61-4.17-3.3-5.72c-0.68-1.55-1.26-3.12-1.72-4.72
	c-0.47-1.6-0.73-3.64-0.79-6.12c-0.06-2.48-0.02-4.5,0.13-6.06c0.15-1.56,0.51-3.46,1.09-5.68c0.58-2.23,1.8-4.94,3.66-8.15
	s3.43-5.79,4.72-7.75c1.29-1.96,3.32-4.16,6.11-6.58c2.79-2.42,5.62-4.47,8.49-6.13c2.87-1.66,5.64-3.02,8.31-4.08
	c2.68-1.06,5.59-1.76,8.75-2.11c3.16-0.35,6.13-0.44,8.89-0.26c2.77,0.18,5.82,0.9,9.16,2.16s6.26,2.54,8.77,3.83
	c2.51,1.3,4.79,2.85,6.85,4.67c2.05,1.82,3.75,3.73,5.1,5.74c1.35,2.01,2.3,3.59,2.85,4.74c0.55,1.15,0.95,2.09,1.18,2.82
	c0.23,0.73,0.5,1.76,0.78,3.09c0.29,1.33,0.51,3,0.67,5.02c0.16,2.02,0.25,3.94,0.29,5.76c0.04,1.82-0.1,4.2-0.41,7.13
	c-0.31,2.93-0.97,5.75-1.97,8.44c-1,2.69-1.92,4.75-2.76,6.16c-0.83,1.41-2.05,2.94-3.64,4.58c-1.59,1.64-3.25,3.04-4.98,4.2
	c-1.73,1.16-4.27,2.08-7.64,2.77c-3.37,0.69-9.79,1.09-19.28,1.2"/>
<path id="STROKE_8b570f5c-5b3c-48a7-b58b-053e87423849" class="st13" d="M883.43,604.22c0.05-0.22,0.15-1.08,0.29-2.56
	c0.14-1.48,0.19-2.74,0.15-3.76c-0.04-1.02-0.31-1.8-0.8-2.34c-0.49-0.53-0.97-0.87-1.43-1c-0.46-0.13-0.88-0.19-1.26-0.17
	c-0.38,0.02-0.89,0.23-1.55,0.64c-0.66,0.41-1.74,1.73-3.25,3.96c-1.51,2.23-2.82,5.09-3.93,8.59c-1.11,3.5-1.93,6.25-2.46,8.26
	c-0.53,2.01-0.91,4.52-1.15,7.51c-0.24,3-0.31,5.47-0.22,7.41c0.09,1.95,0.5,3.72,1.21,5.33c0.71,1.6,1.89,2.95,3.55,4.05
	c1.65,1.09,3.64,1.86,5.97,2.31c2.33,0.44,4.72,0.56,7.17,0.34c2.44-0.22,5-0.89,7.67-2.02c2.67-1.13,5.28-2.81,7.84-5.03
	c2.56-2.22,4.43-4.03,5.62-5.42s2.54-3.17,4.07-5.33c1.53-2.16,2.69-3.92,3.48-5.28c0.79-1.36,1.41-2.47,1.85-3.36
	c0.44-0.88,0.99-2.48,1.64-4.8c0.65-2.32,1.18-4.32,1.57-6c0.39-1.68,0.68-4.44,0.86-8.29c0.18-3.84,0.24-7.13,0.18-9.86
	c-0.06-2.73-0.44-5.13-1.16-7.21c-0.72-2.07-1.49-3.69-2.3-4.85c-0.82-1.16-1.62-2.17-2.4-3.05c-0.78-0.88-2.15-2.06-4.11-3.55
	c-1.96-1.49-4.05-2.76-6.29-3.82c-2.23-1.06-4.87-1.8-7.91-2.23c-3.04-0.42-5.7-0.44-8-0.05c-2.3,0.39-4.05,0.79-5.27,1.2
	c-1.22,0.41-3.1,1.37-5.66,2.88c-2.56,1.51-5.49,3.39-8.82,5.63c-3.32,2.24-6.3,4.48-8.93,6.69c-2.63,2.22-5,4.63-7.1,7.23
	c-2.1,2.6-4.48,6.79-7.15,12.56"/>
<path id="STROKE_81ea3fe1-1c66-4762-880b-14e65ab65159" class="st14" d="M1080.42,591.55c-0.55-0.61-1.4-1.33-2.54-2.16
	c-1.15-0.82-2.36-1.37-3.64-1.65c-1.28-0.28-2.64,0.12-4.07,1.19c-1.43,1.08-2.74,2.44-3.91,4.09c-1.18,1.65-2.32,3.75-3.44,6.29
	c-1.11,2.54-1.98,5.33-2.61,8.37s-1.02,5.58-1.18,7.64c-0.16,2.05-0.07,3.99,0.26,5.8c0.33,1.81,0.88,3.3,1.63,4.47
	c0.76,1.17,1.98,2.29,3.67,3.36c1.69,1.07,3.56,1.88,5.62,2.42c2.06,0.54,3.88,0.75,5.45,0.64c1.57-0.11,3.38-0.62,5.43-1.53
	c2.05-0.91,4.03-2.48,5.94-4.7c1.92-2.22,3.53-4.6,4.83-7.14c1.3-2.54,2.19-5.95,2.66-10.23c0.47-4.28,0.69-7.61,0.66-10
	c-0.03-2.39-0.08-4.09-0.13-5.1c-0.06-1.01-0.27-1.98-0.64-2.9s-1.05-1.62-2.03-2.07c-0.98-0.45-6.1-0.62-15.34-0.51"/>
<path id="STROKE_65be0e34-f243-4053-bb72-ae0128333bf2" class="st15" d="M1003.74,353.68c-0.55-0.04-1.8-0.1-3.75-0.18
	c-1.95-0.07-3.61-0.02-4.99,0.15c-1.38,0.17-2.99,0.81-4.82,1.91c-1.83,1.1-3.63,2.96-5.38,5.56s-3.37,5.49-4.86,8.64
	c-1.48,3.16-2.77,6.19-3.85,9.1c-1.09,2.91-1.94,5.21-2.56,6.88s-1.32,4.28-2.08,7.82s-1.28,6.72-1.54,9.54
	c-0.27,2.82-0.29,5.13-0.08,6.95s0.59,3.35,1.15,4.61c0.55,1.26,1.38,2.45,2.47,3.59c1.09,1.14,3.01,2.47,5.77,4.01
	c2.76,1.54,5.75,2.84,8.98,3.9c3.23,1.06,6.58,1.65,10.05,1.78c3.47,0.12,6.58,0.01,9.35-0.34c2.77-0.34,5.79-1.18,9.07-2.51
	c3.28-1.33,6.13-2.74,8.57-4.24c2.44-1.5,4.57-3.1,6.4-4.81c1.83-1.71,3.3-3.63,4.4-5.75c1.11-2.12,1.9-4.39,2.37-6.79
	c0.48-2.4,0.74-5.16,0.79-8.29c0.05-3.12-0.44-6.88-1.47-11.27c-1.03-4.39-2.03-8.09-3.01-11.1c-0.98-3.01-2.14-5.74-3.49-8.2
	c-1.35-2.45-2.54-4.41-3.56-5.86c-1.03-1.45-2.68-2.93-4.97-4.43c-2.29-1.5-9.74-2.9-22.36-4.2"/>
<path id="STROKE_935a008d-2f3e-4e9a-a9c6-24092db26342" class="st16" d="M873.49,262.11c-0.53-0.03-1.16-0.04-1.9-0.01
	c-0.74,0.03-1.54,0.21-2.41,0.54c-0.87,0.33-1.8,1.01-2.8,2.03c-1,1.02-2.04,2.58-3.11,4.7c-1.08,2.12-1.99,4.83-2.75,8.14
	s-1.2,6.15-1.32,8.51c-0.12,2.37-0.11,4.37,0.03,6.02c0.14,1.64,0.59,3.1,1.33,4.38c0.74,1.27,2.02,2.31,3.82,3.11
	c1.8,0.8,3.64,1.32,5.51,1.54c1.87,0.22,3.56,0.22,5.05-0.03c1.5-0.24,2.99-0.58,4.48-1.02c1.49-0.44,3.24-1.53,5.25-3.27
	c2.01-1.74,3.73-3.73,5.17-5.97c1.44-2.24,2.45-4.07,3.05-5.5c0.59-1.42,1.04-2.7,1.36-3.84c0.31-1.13,0.49-2.55,0.52-4.26
	c0.04-1.7-0.01-3.06-0.12-4.06c-0.12-1-0.36-1.85-0.71-2.54c-0.35-0.69-1.01-1.55-1.98-2.57c-0.97-1.02-2.45-1.88-4.44-2.59
	c-1.99-0.71-3.73-1.29-5.21-1.74c-1.48-0.45-7.74-0.29-18.78,0.47"/>
<path id="STROKE_14a03c04-8b6c-4b33-9830-7c7f1616fccc" class="st17" d="M801.73,442.64c-0.39-0.14-1.42-0.25-3.11-0.32
	c-1.69-0.07-3.04,0.01-4.04,0.24c-1.01,0.23-2.4,1.13-4.18,2.7c-1.78,1.57-3.38,3.4-4.79,5.48c-1.41,2.08-2.83,4.61-4.27,7.58
	c-1.43,2.98-2.48,6.54-3.16,10.68c-0.68,4.14-1.02,7.84-1.04,11.08s0.12,5.96,0.4,8.15c0.28,2.19,0.99,4.19,2.12,6.03
	c1.14,1.83,2.25,3.26,3.35,4.29c1.1,1.03,2.63,1.97,4.61,2.83c1.98,0.85,4.51,1.35,7.59,1.51c3.08,0.15,5.79,0.11,8.12-0.11
	c2.33-0.23,4.85-1.03,7.54-2.42c2.7-1.39,5.38-3.25,8.05-5.6c2.67-2.34,4.74-4.36,6.21-6.07c1.47-1.71,2.84-3.58,4.11-5.63
	c1.27-2.05,2.18-4.35,2.75-6.9c0.57-2.55,0.87-4.78,0.92-6.68c0.04-1.9-0.36-3.68-1.21-5.33c-0.85-1.65-2.06-3.32-3.62-5.01
	c-1.56-1.68-3.31-3.3-5.24-4.84c-1.93-1.54-3.88-2.77-5.86-3.68c-1.98-0.92-4.31-1.45-6.99-1.58c-2.68-0.14-5.02-0.16-7.02-0.08
	s-3.63-0.21-4.89-0.88"/>
<path id="STROKE_43ab45f8-925a-4f4f-8d92-d86314ba2f04" class="st18" d="M984.67,45.54c-0.01-0.53,0-1.72,0.02-3.58
	c0.02-1.86-0.32-3.54-1.04-5.04c-0.71-1.5-1.49-2.64-2.31-3.43c-0.83-0.78-1.78-1.27-2.86-1.44c-1.08-0.18-2.2,0.05-3.35,0.68
	c-1.16,0.63-2.57,2.08-4.25,4.35c-1.68,2.27-3.4,5.9-5.18,10.91c-1.77,5.01-3.1,9.4-3.98,13.18c-0.88,3.78-1.51,7.27-1.91,10.49
	c-0.4,3.21-0.64,6.11-0.74,8.7c-0.1,2.59-0.05,4.82,0.13,6.7c0.19,1.88,0.62,3.5,1.3,4.87c0.68,1.36,1.73,2.56,3.13,3.59
	s3.41,1.71,6.01,2.05c2.6,0.34,5.1,0.48,7.5,0.42c2.4-0.06,5.13-0.86,8.18-2.4c3.06-1.54,5.67-3.16,7.86-4.86
	c2.18-1.69,4.06-3.47,5.63-5.34c1.57-1.86,2.73-3.43,3.47-4.69c0.74-1.26,1.45-2.85,2.13-4.76c0.68-1.91,1.21-4.05,1.58-6.41
	c0.37-2.36-0.04-5.4-1.22-9.11c-1.19-3.72-2.2-6.59-3.04-8.62c-0.84-2.03-1.84-3.88-3.01-5.56c-1.16-1.67-2.22-2.97-3.16-3.89
	c-0.94-0.92-2.02-1.79-3.23-2.6c-1.21-0.81-2.94-1.71-5.21-2.71c-2.27-1-6.36-1.26-12.27-0.77"/>
<path id="STROKE_c55211aa-3958-4e88-9a6f-78f72bc47150" class="st19" d="M801.33,49.66c-0.43-0.56-1.2-1.18-2.31-1.86
	c-1.11-0.68-2.39-1.13-3.86-1.35c-1.47-0.22-2.93,0.04-4.38,0.78s-2.82,1.84-4.11,3.31c-1.29,1.46-2.76,3.56-4.41,6.29
	c-1.65,2.73-3.14,5.88-4.48,9.44s-2.29,8.14-2.85,13.73s-0.82,10.05-0.77,13.37c0.05,3.32,0.19,5.97,0.42,7.96
	c0.23,1.98,0.76,3.88,1.58,5.7c0.82,1.82,2.12,3.25,3.88,4.3c1.76,1.05,3.84,1.72,6.25,2c2.4,0.28,4.91,0.08,7.51-0.6
	c2.6-0.68,4.97-1.52,7.1-2.53c2.13-1.01,4.24-2.13,6.34-3.37c2.09-1.24,4.73-3.44,7.91-6.59c3.18-3.15,5.71-6,7.59-8.55
	c1.89-2.55,3.24-4.7,4.04-6.45c0.81-1.75,1.31-3.21,1.5-4.36c0.19-1.15,0.36-2.66,0.51-4.51c0.15-1.85-0.14-3.93-0.86-6.24
	c-0.72-2.31-2.73-5.55-6.04-9.73c-3.3-4.18-5.94-7.46-7.92-9.86s-3.76-4.27-5.36-5.61c-1.6-1.34-3.37-2.33-5.31-2.97
	c-1.94-0.64-3.63-0.93-5.08-0.89c-1.45,0.05-2.92,0.37-4.4,0.96c-1.49,0.59-4.29,4.75-8.4,12.48"/>
<path id="STROKE_fa73921e-7489-4e97-82dc-9d0697887482" class="st20" d="M1154.25,181.1c-0.04,0.02-0.95,0-2.72-0.07
	c-1.77-0.06-3.33-0.02-4.67,0.13c-1.35,0.15-2.4,0.39-3.16,0.72c-0.75,0.33-1.99,1.4-3.72,3.23c-1.72,1.83-3.26,4.44-4.61,7.84
	c-1.35,3.4-2.28,6.97-2.79,10.72c-0.51,3.75-0.82,6.85-0.93,9.31s0.11,4.66,0.66,6.6s1.29,3.6,2.25,4.99
	c0.96,1.38,2.07,2.66,3.32,3.83c1.25,1.17,3.08,2.23,5.48,3.17c2.4,0.94,5.01,1.42,7.84,1.41c2.83,0,5.19-0.1,7.08-0.28
	c1.89-0.18,3.87-0.82,5.93-1.93c2.07-1.1,3.88-2.4,5.44-3.89c1.56-1.49,2.83-3.04,3.81-4.66c0.98-1.62,1.7-3.39,2.17-5.29
	c0.47-1.91,0.45-4.13-0.05-6.67c-0.5-2.54-1.65-5.34-3.46-8.41c-1.81-3.07-3.39-5.51-4.76-7.32c-1.37-1.81-3.08-3.49-5.13-5.05
	c-2.05-1.56-3.71-2.71-4.97-3.47c-1.26-0.76-2.74-1.41-4.44-1.96c-1.69-0.55-5.33,0.52-10.9,3.21"/>
<path id="STROKE_56885320-a0bf-4921-88c0-ad5d20cdf9c1" class="st21" d="M971.5,163.79c-0.5,0.3-1.25,0.67-2.25,1.11
	c-0.99,0.44-2.06,1.83-3.21,4.19c-1.15,2.36-2.04,5.69-2.7,10c-0.65,4.31-1,7.91-1.04,10.79c-0.04,2.88,0.07,5.29,0.32,7.22
	c0.25,1.93,0.7,3.67,1.34,5.21c0.64,1.54,1.57,2.81,2.8,3.81s3.04,1.7,5.44,2.1c2.4,0.4,4.55,0.61,6.44,0.63s3.75-0.01,5.57-0.11
	c1.82-0.09,4.12-0.68,6.9-1.77c2.78-1.09,5.33-2.39,7.66-3.91c2.33-1.52,4.32-3.21,5.97-5.06c1.65-1.85,2.95-3.86,3.89-6.03
	c0.94-2.17,1.45-4.46,1.54-6.88c0.09-2.41,0.14-4.26,0.16-5.53c0.01-1.27-0.54-3.34-1.67-6.19c-1.13-2.86-2.7-5.53-4.71-8.02
	c-2.01-2.49-3.68-4.39-4.99-5.7c-1.31-1.31-2.83-2.56-4.54-3.73c-1.71-1.18-3.5-2.02-5.35-2.53c-1.86-0.51-3.7-0.71-5.53-0.62
	c-1.83,0.1-4.34,1.39-7.54,3.9"/>
<path id="STROKE_8eb01a2a-dcfd-4a7d-8c41-7b2cff46ba26" class="st22" d="M782.19,181.16c-0.38,0.41-1.32,1.15-2.82,2.24
	c-1.5,1.09-2.94,2.3-4.32,3.64c-1.38,1.33-2.49,3.34-3.34,6.02c-0.85,2.68-1.29,5.25-1.33,7.74c-0.04,2.48-0.01,4.35,0.1,5.59
	c0.11,1.25,0.41,2.42,0.9,3.5c0.5,1.09,1.43,2.1,2.82,3.03c1.38,0.93,3.45,1.46,6.2,1.59c2.75,0.13,4.94,0.13,6.57-0.01
	c1.63-0.14,3.54-0.6,5.74-1.39c2.2-0.78,4.94-2.1,8.21-3.95c3.27-1.85,5.99-3.73,8.14-5.63c2.15-1.9,3.92-3.75,5.29-5.52
	c1.38-1.78,2.61-3.53,3.69-5.25c1.08-1.72,1.74-3.71,1.97-5.95c0.23-2.24,0.29-4.09,0.2-5.55c-0.1-1.46-0.62-3.08-1.56-4.86
	c-0.94-1.78-2.18-3.57-3.73-5.34c-1.54-1.78-3.24-3.14-5.08-4.07c-1.84-0.94-3.75-1.49-5.73-1.68c-1.98-0.18-3.81-0.17-5.49,0.02
	c-1.68,0.2-4.73,2.38-9.15,6.55"/>
<path id="STROKE_7e36bfab-0807-40bd-85be-688883d4a8d9" class="st23" d="M441.65,699.16c-0.13-0.65-0.58-1.72-1.37-3.23
	c-0.79-1.51-1.72-2.7-2.81-3.57c-1.09-0.88-2.23-1.44-3.41-1.69c-1.18-0.25-2.37-0.18-3.54,0.2c-1.18,0.38-2.68,1.68-4.51,3.92
	s-3.3,4.24-4.42,6.03c-1.12,1.78-2.23,3.96-3.32,6.54c-1.09,2.58-1.9,4.63-2.42,6.16c-0.52,1.53-1.05,3.83-1.61,6.89
	c-0.55,3.06-0.86,6.45-0.91,10.17c-0.06,3.72,0.12,6.98,0.51,9.79c0.4,2.81,1.04,5.32,1.92,7.54c0.88,2.22,1.94,4.16,3.16,5.82
	c1.22,1.67,2.51,3.12,3.85,4.36c1.35,1.24,3.06,2.05,5.14,2.43c2.08,0.38,3.72,0.51,4.93,0.39c1.21-0.12,2.96-0.54,5.25-1.27
	c2.29-0.72,4.55-1.72,6.78-2.98c2.23-1.26,4.56-3.13,6.99-5.6c2.43-2.48,4.51-4.97,6.22-7.48c1.71-2.51,3-4.56,3.85-6.14
	c0.85-1.58,1.52-3.36,1.99-5.32c0.47-1.97,0.73-3.68,0.77-5.13c0.04-1.45-0.28-3.22-0.96-5.29c-0.68-2.07-2.05-4.19-4.13-6.35
	c-2.07-2.17-4.31-4.1-6.71-5.8c-2.4-1.7-5.22-3.17-8.46-4.41c-3.24-1.24-6.41-2.08-9.49-2.53c-3.08-0.45-5.64-0.66-7.69-0.64
	c-2.04,0.02-4.05-0.76-6.01-2.35"/>
<path id="STROKE_156a09fd-a1d6-44a6-aad3-802ca357d1e6" class="st24" d="M59.72,719c-0.25,0.22-1.2,0.95-2.85,2.19
	c-1.66,1.24-2.99,2.55-3.99,3.92c-1.01,1.38-1.72,3.12-2.14,5.22c-0.42,2.11-0.64,4.36-0.64,6.77c-0.01,2.41,0.1,4.45,0.32,6.12
	c0.22,1.68,0.47,3.23,0.75,4.65c0.28,1.43,0.96,3.88,2.04,7.36c1.07,3.48,2.42,6.69,4.03,9.62c1.61,2.94,3.06,5.21,4.34,6.81
	c1.28,1.6,2.55,2.87,3.83,3.8c1.27,0.93,2.83,1.51,4.66,1.75c1.84,0.24,3.8,0.22,5.9-0.08c2.1-0.29,4.34-1.06,6.73-2.32
	c2.38-1.25,4.84-3.28,7.36-6.07c2.52-2.79,4.66-5.66,6.4-8.62c1.74-2.96,3.06-5.43,3.94-7.42c0.88-1.99,1.6-4.47,2.14-7.46
	c0.54-2.99,0.75-5.55,0.62-7.7c-0.13-2.14-0.42-3.97-0.86-5.47c-0.44-1.5-2.75-3.93-6.94-7.28s-7.66-5.94-10.42-7.77
	s-5.1-3.28-7.01-4.34c-1.91-1.07-3.46-1.78-4.66-2.16c-1.2-0.37-2.43-0.6-3.7-0.7c-1.27-0.1-2.25,0.1-2.95,0.58
	c-0.69,0.49-1.14,1-1.35,1.55c-0.2,0.54-0.68,2.24-1.44,5.09"/>
<path id="STROKE_1b721818-4848-451b-a704-80d2a7995059" class="st25" d="M100.05,524.07c-0.48-0.36-1.26-0.67-2.36-0.96
	c-1.1-0.28-2.19-0.37-3.3-0.27c-1.1,0.1-2.35,0.75-3.73,1.95c-1.38,1.19-2.71,3.11-3.97,5.74c-1.26,2.64-2.1,5.99-2.51,10.05
	c-0.41,4.06-0.57,7.4-0.49,10.01c0.08,2.61,0.25,4.72,0.5,6.34c0.25,1.62,0.67,3.5,1.26,5.64c0.59,2.14,1.27,3.99,2.04,5.54
	c0.78,1.55,1.57,2.82,2.39,3.81c0.81,0.99,1.73,1.78,2.75,2.37c1.02,0.59,2.17,0.99,3.44,1.21s2.74,0.21,4.39-0.02
	c1.65-0.23,3.81-1.4,6.47-3.51c2.66-2.11,5.19-4.73,7.59-7.86c2.4-3.13,4.37-6.33,5.9-9.59c1.53-3.26,2.72-6.56,3.57-9.89
	c0.84-3.33,1.29-6.24,1.35-8.74c0.06-2.5,0.04-4.37-0.05-5.62c-0.09-1.24-0.62-3.02-1.59-5.33c-0.97-2.31-3.08-5.47-6.31-9.5
	c-3.24-4.02-5.8-7.01-7.68-8.95c-1.88-1.95-3.53-3.63-4.96-5.05c-1.43-1.42-4.14-2.1-8.15-2.05"/>
<path id="STROKE_59604a77-6585-49c5-8261-0ccbd9b0b7de" class="st26" d="M154.74,88.14c0.14-0.69,0-2.19-0.42-4.48
	c-0.42-2.29-0.88-3.99-1.37-5.1c-0.49-1.11-1.04-2.06-1.65-2.83c-0.61-0.77-1.34-1.18-2.19-1.22c-0.85-0.04-1.74,0.4-2.67,1.31
	c-0.94,0.92-1.92,3.13-2.96,6.65c-1.04,3.52-1.64,8.15-1.82,13.88s-0.25,10.28-0.2,13.65c0.05,3.37,0.38,6.83,1,10.38
	c0.62,3.55,1.44,6.85,2.46,9.89c1.02,3.04,2.08,5.49,3.16,7.35c1.08,1.86,2.17,3.33,3.27,4.41c1.1,1.08,2.42,1.86,3.98,2.35
	c1.56,0.49,3.68,0.37,6.36-0.33c2.68-0.71,5.38-2.03,8.1-3.96c2.71-1.93,5.07-4.04,7.07-6.32c2-2.28,3.8-4.85,5.41-7.7
	c1.6-2.85,2.83-5.85,3.68-9.02s1.38-5.89,1.59-8.16c0.21-2.28,0.05-4.42-0.48-6.43c-0.53-2.01-1.14-3.63-1.84-4.86
	c-0.7-1.23-1.66-2.63-2.88-4.19s-2.65-3.22-4.28-4.96c-1.63-1.75-3.54-3.61-5.73-5.6s-4.13-3.63-5.82-4.92
	c-1.69-1.29-3.5-2.21-5.43-2.76c-1.94-0.55-3.37-0.85-4.3-0.92s-2.09,0.15-3.49,0.63c-1.39,0.48-3.14,1.98-5.24,4.49"/>
<path id="STROKE_7db965c1-e384-4e3a-af73-2852af50287b" class="st27" d="M726.63,322.55c-0.24,0.57-1.33,2.41-3.29,5.52
	c-1.96,3.11-3.62,5.72-5,7.82c-1.37,2.1-2.4,4.13-3.07,6.08c-0.67,1.95-0.99,3.56-0.97,4.82c0.02,1.26,0.23,2.15,0.61,2.68
	c0.39,0.53,1.32,0.94,2.8,1.24c1.48,0.3,3.27,0.12,5.36-0.55c2.09-0.67,4.95-2.4,8.57-5.2c3.62-2.8,6.71-5.53,9.27-8.2
	c2.57-2.67,4.61-5.05,6.13-7.16c1.52-2.11,2.79-4.25,3.81-6.44c1.02-2.19,1.77-4.32,2.27-6.41c0.5-2.09,0.69-3.76,0.58-5.01
	c-0.11-1.25-0.37-2.52-0.78-3.8c-0.41-1.28-1.84-2.17-4.28-2.68c-2.44-0.51-4.96-0.63-7.57-0.36c-2.61,0.27-5.61,1.16-9.01,2.66
	c-3.4,1.51-7.51,3.87-12.33,7.1"/>
</svg>
