<?xml version="1.0" encoding="utf-8"?>
<!-- Generator: Adobe Illustrator 28.0.0, SVG Export Plug-In . SVG Version: 6.00 Build 0)  -->
<svg version="1.1" id="Layer_1" xmlns="http://www.w3.org/2000/svg" xmlns:xlink="http://www.w3.org/1999/xlink" x="0px" y="0px"
	 viewBox="0 0 1273.9 942.72" style="enable-background:new 0 0 1273.9 942.72;" xml:space="preserve">
<style type="text/css">
	.st0{fill:none;stroke:#191815;stroke-width:3.676;stroke-linecap:round;stroke-linejoin:round;}
	.st1{fill:none;stroke:#191815;stroke-width:3.812;stroke-linecap:round;stroke-linejoin:round;}
	.st2{fill:none;stroke:#191815;stroke-width:3.522;stroke-linecap:round;stroke-linejoin:round;stroke-opacity:0.99;}
	.st3{fill:none;stroke:#191815;stroke-width:3.622;stroke-linecap:round;stroke-linejoin:round;stroke-opacity:0.995;}
	.st4{fill:none;stroke:#191815;stroke-width:3.804;stroke-linecap:round;stroke-linejoin:round;stroke-opacity:0.999;}
	.st5{fill:none;stroke:#191815;stroke-width:3.711;stroke-linecap:round;stroke-linejoin:round;stroke-opacity:0.994;}
	.st6{fill:none;stroke:#191815;stroke-width:3.957;stroke-linecap:round;stroke-linejoin:round;stroke-opacity:0.999;}
	.st7{fill:none;stroke:#191815;stroke-width:3.736;stroke-linecap:round;stroke-linejoin:round;stroke-opacity:0.999;}
	.st8{fill:none;stroke:#191815;stroke-width:3.989;stroke-linecap:round;stroke-linejoin:round;stroke-opacity:0.999;}
	.st9{fill:none;stroke:#191815;stroke-width:3.872;stroke-linecap:round;stroke-linejoin:round;stroke-opacity:0.999;}
	.st10{fill:none;stroke:#191815;stroke-width:4.155;stroke-linecap:round;stroke-linejoin:round;}
	.st11{fill:none;stroke:#191815;stroke-width:3.807;stroke-linecap:round;stroke-linejoin:round;stroke-opacity:0.968;}
	.st12{fill:none;stroke:#191815;stroke-width:4.003;stroke-linecap:round;stroke-linejoin:round;stroke-opacity:0.998;}
	.st13{fill:none;stroke:#191815;stroke-width:3.928;stroke-linecap:round;stroke-linejoin:round;stroke-opacity:0.999;}
	.st14{fill:none;stroke:#191815;stroke-width:3.574;stroke-linecap:round;stroke-linejoin:round;stroke-opacity:0.997;}
	.st15{fill:none;stroke:#191815;stroke-width:3.661;stroke-linecap:round;stroke-linejoin:round;stroke-opacity:0.994;}
	.st16{fill:none;stroke:#191815;stroke-width:3.705;stroke-linecap:round;stroke-linejoin:round;}
	.st17{fill:none;stroke:#191815;stroke-width:3.804;stroke-linecap:round;stroke-linejoin:round;}
	.st18{fill:none;stroke:#191815;stroke-width:3.77;stroke-linecap:round;stroke-linejoin:round;stroke-opacity:0.997;}
	.st19{fill:none;stroke:#191815;stroke-width:3.575;stroke-linecap:round;stroke-linejoin:round;stroke-opacity:0.997;}
	.st20{fill:none;stroke:#191815;stroke-width:3.578;stroke-linecap:round;stroke-linejoin:round;}
	.st21{fill:none;stroke:#191815;stroke-width:3.528;stroke-linecap:round;stroke-linejoin:round;stroke-opacity:0.995;}
	.st22{fill:none;stroke:#191815;stroke-width:3.837;stroke-linecap:round;stroke-linejoin:round;stroke-opacity:0.999;}
	.st23{fill:none;stroke:#191815;stroke-width:3.435;stroke-linecap:round;stroke-linejoin:round;stroke-opacity:0.983;}
	.st24{fill:none;stroke:#191815;stroke-width:3.679;stroke-linecap:round;stroke-linejoin:round;stroke-opacity:0.995;}
	.st25{fill:none;stroke:#191815;stroke-width:3.19;stroke-linecap:round;stroke-linejoin:round;stroke-opacity:0.975;}
	.st26{fill:none;stroke:#191815;stroke-width:3.542;stroke-linecap:round;stroke-linejoin:round;stroke-opacity:0.997;}
	.st27{fill:none;stroke:#191815;stroke-width:3.099;stroke-linecap:round;stroke-linejoin:round;stroke-opacity:0.932;}
	.st28{fill:none;stroke:#191815;stroke-width:3.633;stroke-linecap:round;stroke-linejoin:round;stroke-opacity:0.999;}
	.st29{fill:none;stroke:#191815;stroke-width:3.569;stroke-linecap:round;stroke-linejoin:round;stroke-opacity:0.996;}
	.st30{fill:none;stroke:#191815;stroke-width:3.495;stroke-linecap:round;stroke-linejoin:round;stroke-opacity:0.998;}
</style>
<g>
	<path id="STROKE_1952905b-f2ab-4b95-b5fc-f28cb1015b8f" class="st0" d="M213.39,102.07c0.02,0.02,0.11-0.04,0.28-0.15
		c0.17-0.12,0.25-0.19,0.25-0.23l-0.27-0.1c0.01-0.01-0.27-0.04-0.84-0.09c-0.57-0.05-1.05-0.05-1.45-0.02
		c-0.4,0.03-0.93,0.23-1.6,0.6c-0.67,0.37-1.22,0.73-1.65,1.09c-0.43,0.36-0.79,0.69-1.09,1.01c-0.29,0.31-0.61,0.7-0.95,1.16
		c-0.34,0.46-0.65,0.98-0.93,1.55c-0.28,0.57-0.41,0.87-0.42,0.9c0,0.03-0.02,0.06-0.04,0.1c-0.03,0.03-0.18,0.53-0.45,1.48
		c-0.27,0.95-0.47,1.95-0.58,2.98c-0.12,1.03-0.14,1.79-0.08,2.27c0.06,0.48,0.18,0.84,0.34,1.07c0.16,0.23,0.36,0.46,0.59,0.68
		c0.23,0.22,0.35,0.34,0.36,0.36c0.01,0.01,0.58,0.41,1.71,1.18c1.13,0.77,2.18,1.3,3.17,1.6s1.78,0.44,2.38,0.43
		c0.6,0,1.04-0.04,1.31-0.1c0.27-0.06,0.79-0.32,1.56-0.78c0.77-0.46,1.43-0.89,1.98-1.31c0.55-0.42,1.09-0.87,1.63-1.35
		c0.54-0.49,0.99-0.96,1.35-1.4c0.36-0.45,0.54-0.68,0.54-0.71s0.02-0.05,0.05-0.07c0.03-0.02,0.18-0.48,0.45-1.4
		c0.27-0.91,0.41-1.65,0.42-2.22c0.01-0.56-0.12-1.18-0.4-1.84c-0.28-0.66-0.57-1.2-0.86-1.62c-0.3-0.42-0.5-0.7-0.6-0.86
		c-0.1-0.16-0.16-0.25-0.19-0.27c-0.03-0.02-0.19-0.28-0.49-0.77c-0.3-0.5-0.61-0.99-0.91-1.49c-0.3-0.5-0.65-0.9-1.03-1.19
		c-0.38-0.3-0.65-0.47-0.8-0.52c-0.15-0.05-1.46-0.18-3.92-0.39"/>
	<path id="STROKE_b4f625ec-8b1c-4ba6-89b1-c12e098f7452" class="st1" d="M221.14,117.6l0.03-1.93l0.19-0.68
		c0.04,0,1.22-0.13,3.53-0.37c2.31-0.24,4.6-0.17,6.86,0.21c2.27,0.38,4.03,0.83,5.29,1.34c1.26,0.51,2.56,1.23,3.9,2.14
		c1.33,0.92,2.46,1.86,3.37,2.83c0.91,0.97,2.08,2.65,3.49,5.03c1.41,2.38,2.44,5.1,3.09,8.16c0.64,3.06,1.04,6.53,1.19,10.41
		c0.15,3.89,0.21,6.99,0.17,9.32c-0.04,2.33-0.54,5.22-1.49,8.69c-0.96,3.47-1.83,6.16-2.63,8.09c-0.8,1.92-1.62,3.76-2.46,5.51
		c-0.84,1.75-1.67,3.33-2.48,4.74c-0.81,1.41-1.7,2.87-2.67,4.38c-0.97,1.51-2.5,3.59-4.61,6.24c-2.11,2.65-4.1,5.47-5.99,8.45
		c-1.89,2.98-3.82,6.33-5.8,10.06c-1.98,3.72-4.02,7.42-6.11,11.09c-2.09,3.67-4.08,8.1-5.96,13.29c-1.88,5.19-3.21,9.01-4.01,11.47
		c-0.79,2.46-1.4,4.86-1.82,7.2c-0.42,2.34-0.7,4.16-0.84,5.46c-0.14,1.29-0.31,3.11-0.49,5.43c-0.18,2.33-0.27,5.26-0.25,8.81
		c0.02,3.54,0.4,7.07,1.15,10.57c0.75,3.5,1.64,6.62,2.67,9.36c1.04,2.73,2.19,5.07,3.47,7.02c1.28,1.94,3.3,3.83,6.07,5.65
		c2.77,1.83,5.15,3.46,7.14,4.91c1.99,1.45,3.77,2.81,5.36,4.1c1.58,1.28,3.43,2.54,5.55,3.78c0.09-0.05,0.15-0.06,0.18-0.04
		c0.02,0.02,0.12-0.04,0.28-0.19c0.16-0.15,0.38-0.34,0.64-0.56c0.26-0.23,0.52-0.44,0.77-0.62c0.25-0.19,0.77-0.52,1.55-1.01
		c0.78-0.48,1.41-0.81,1.88-0.99c0.47-0.17,1.01-0.3,1.61-0.38c0.61-0.08,1.16-0.12,1.66-0.1c0.5,0.01,0.91,0.04,1.23,0.09
		c0.32,0.05,0.73,0.51,1.24,1.37c0.5,0.87,0.85,1.64,1.04,2.33c0.19,0.69,0.29,1.05,0.3,1.09c0.01,0.04,0.04,0.55,0.1,1.54
		c0.05,0.99,0.06,2.25,0.01,3.76c-0.04,1.51-0.08,2.32-0.1,2.44c-0.03,0.12-0.14,0.39-0.35,0.82s-0.33,0.65-0.36,0.68
		s-0.14,0.1-0.32,0.24c-0.18,0.14-1.19,0.27-3.02,0.39c-1.84,0.12-3.16,0.14-3.97,0.06c-0.81-0.08-1.65-0.42-2.52-1.05
		c-0.87-0.62-1.46-1.06-1.77-1.3c-0.31-0.25-0.65-0.53-1.02-0.86c-0.37-0.33-0.69-0.68-0.95-1.05c-0.27-0.38-0.4-0.59-0.39-0.64
		c0.01-0.05,0-0.11-0.03-0.18c-0.03-0.07-0.03-0.36,0.01-0.88c0.03-0.52,0.09-0.89,0.16-1.11c0.07-0.22,0.18-0.52,0.33-0.89
		c0.15-0.37,0.34-0.78,0.59-1.23c0.25-0.45,0.56-0.96,0.95-1.52"/>
</g>
<g>
	<path id="STROKE_acb9e910-4dc7-4bb0-9dc9-fb188e5e9b98" class="st2" d="M458.11,271.86l-0.76,0.61c-0.3,0.16-1.06,2.43-2.29,6.81
		c-1.23,4.38-2.4,8.27-3.52,11.67c-1.12,3.4-2.33,6.28-3.64,8.64c-1.31,2.36-2.36,4.22-3.15,5.58c-0.79,1.36-2.25,3.3-4.39,5.82
		c-2.14,2.52-4.17,4.65-6.09,6.4c-1.92,1.74-3.93,3.5-6.04,5.26c-2.1,1.77-4.07,3.48-5.9,5.13c-1.83,1.65-3.89,3.4-6.18,5.25
		c-2.29,1.85-4.68,3.6-7.16,5.26c-2.48,1.66-5.7,3.67-9.67,6.04c-3.96,2.37-8.14,4.5-12.54,6.39c-4.39,1.89-9.58,4.02-15.55,6.41
		c-5.97,2.39-12.12,4.87-18.44,7.45c-6.33,2.58-11.06,4.48-14.21,5.71c-3.15,1.23-6.8,2.58-10.95,4.07
		c-4.15,1.48-8.33,3.02-12.55,4.62c-4.21,1.59-7.4,2.85-9.58,3.78c-2.17,0.93-4.13,1.75-5.88,2.46c-1.75,0.72-3.59,1.54-5.52,2.47
		c-1.94,0.93-4.11,2-6.52,3.21c-2.41,1.2-5.38,2.68-8.91,4.43c-3.53,1.75-7.57,4.04-12.1,6.87c-4.54,2.83-8.15,5.18-10.84,7.05
		c-2.69,1.87-4.73,3.37-6.13,4.52c-1.4,1.14-3.73,3.27-6.99,6.37c-3.26,3.1-5.72,5.51-7.36,7.2c-1.64,1.7-3.16,3.44-4.54,5.22
		c-1.39,1.78-2.91,4.47-4.58,8.06c-1.67,3.59-3.19,7.4-4.56,11.45c-1.37,4.05-2.3,7.84-2.8,11.37c-0.49,3.53-0.74,6.23-0.76,8.1
		c-0.01,1.87-0.03,3.34-0.05,4.42c-0.02,1.08,0.37,2.86,1.18,5.33c0.8,2.47,1.97,4.91,3.51,7.32c1.54,2.4,2.69,4.4,3.46,5.98
		c-0.25,0.23-0.38,0.35-0.4,0.36c-0.02,0.01-0.16,0.15-0.43,0.42c-0.27,0.27-0.68,0.62-1.22,1.03c-0.54,0.41-0.83,0.62-0.85,0.62
		c-0.03,0-0.19,0.05-0.48,0.13c-0.29,0.08-0.73,0.1-1.32,0.04c0.23-0.79,0.37-1.19,0.42-1.21c0.17-0.18,0.4-0.4,0.7-0.67
		c0.3-0.27,0.5-0.45,0.6-0.53c0.1-0.08,0.18-0.14,0.24-0.17c0.06-0.03,0.1-0.08,0.13-0.14c0.03-0.06,0.39-0.21,1.09-0.43
		c0.7-0.22,1.29-0.34,1.77-0.35c0.48-0.01,0.89,0,1.24,0.03c0.35,0.03,0.58,0.04,0.69,0.05c0.11,0.01,0.6,0.25,1.49,0.73
		c0.88,0.48,1.61,1.12,2.2,1.9s0.96,1.37,1.15,1.77c0.18,0.4,0.36,0.88,0.55,1.45c0.18,0.57,0.33,1.41,0.45,2.51
		c0.12,1.11,0.09,2.12-0.08,3.05c-0.17,0.93-0.52,1.84-1.05,2.75s-1.12,1.69-1.76,2.34c-0.64,0.65-1.41,1.18-2.3,1.57
		c-0.89,0.39-1.69,0.57-2.41,0.55c-0.72-0.02-1.83-0.61-3.32-1.77s-2.6-2.21-3.34-3.17c-0.74-0.96-1.25-1.74-1.52-2.34
		c-0.27-0.6-0.49-1.57-0.66-2.89c-0.17-1.33,0.81-3.09,2.92-5.3l0.94,1.05"/>
	<path id="STROKE_8cebf032-ae8b-4ac1-859c-841b10bb7845" class="st3" d="M461.7,269.21c-0.16,0.41-0.26,0.64-0.31,0.71
		c-0.05,0.07-0.16,0.21-0.34,0.44c-0.17,0.23-0.27,0.35-0.28,0.37c-0.01,0.02-0.1,0.08-0.27,0.18c-0.17,0.1-0.27,0.15-0.3,0.15
		c-0.03,0-0.5,0-1.41-0.01c-0.91-0.01-1.66-0.09-2.26-0.25c-0.59-0.16-1.2-0.49-1.83-1c-0.62-0.51-1.11-1.09-1.45-1.73
		c-0.35-0.64-0.58-1.6-0.72-2.87c-0.13-1.27,0.18-2.5,0.94-3.67c0.76-1.18,1.95-2.32,3.57-3.42c1.62-1.11,3.02-1.89,4.19-2.35
		c1.17-0.46,2.06-0.7,2.66-0.72c0.6-0.02,1.29,0.25,2.07,0.8c0.78,0.56,1.56,1.52,2.35,2.89c0.79,1.37,1.31,2.49,1.55,3.36
		c0.25,0.87,0.37,1.49,0.38,1.86c0,0.37-0.22,1-0.68,1.87c-0.46,0.87-0.92,1.6-1.38,2.18c-0.46,0.58-1.15,1.16-2.07,1.72
		c-0.91,0.57-1.68,0.95-2.28,1.15c-0.61,0.2-1.09,0.33-1.45,0.38c-0.36,0.06-0.96,0.09-1.79,0.1c-0.84,0.01-1.51-0.05-2.01-0.17
		c-0.5-0.12-0.8-0.23-0.88-0.31c-0.08-0.08-0.3-0.48-0.65-1.19"/>
</g>
<g>
	<path id="STROKE_feee10ee-9524-48b1-93a0-f50323661b6e" class="st4" d="M442.02,490.49l0.05-0.61l0.09-0.47
		c-0.02,0.55-0.04,0.83-0.06,0.86c-0.14,0.65-0.43,2.75-0.86,6.32c-0.44,3.56-1.23,9.58-2.37,18.04
		c-1.14,8.46-2.06,15.71-2.75,21.74c-0.69,6.03-1.14,10.68-1.33,13.95c-0.19,3.27-0.47,5.77-0.81,7.5c-0.35,1.73-0.68,3.05-1,3.96
		c-0.32,0.91-0.49,1.38-0.52,1.42c-0.02,0.04-0.29,0.63-0.78,1.78c-0.09,0.23-0.31,0.69-0.68,1.38c-0.36,0.69-0.62,1.16-0.78,1.41
		c-0.16,0.25-0.3,0.45-0.42,0.61s-0.43,0.46-0.93,0.9c-0.5,0.44-0.86,0.72-1.06,0.85c-0.2,0.12-0.78,0.37-1.74,0.73
		c-0.96,0.36-1.66,0.57-2.12,0.62c-0.45,0.05-2.77,1.3-6.94,3.74c-4.18,2.44-8.06,4.68-11.64,6.7s-6.49,3.6-8.73,4.73
		c-2.23,1.13-4.5,2.41-6.81,3.84c-2.31,1.43-5.36,3.37-9.14,5.83c-3.78,2.46-6.96,4.46-9.54,6c-2.58,1.54-4.66,2.63-6.23,3.26
		c-1.57,0.63-3.75,1.9-6.54,3.82c-2.79,1.92-5.69,3.99-8.71,6.21c-3.01,2.22-5.36,3.77-7.03,4.65c-1.67,0.88-3.14,1.82-4.41,2.83
		c-1.27,1.01-2.47,2.49-3.6,4.43c-1.14,1.94-1.97,3.63-2.51,5.06c-0.54,1.43-1.29,3.4-2.26,5.91c-0.97,2.51-1.8,4.58-2.49,6.21
		c-0.69,1.63-1.13,3.25-1.34,4.87c-0.21,1.61-0.07,3.37,0.41,5.27c0.48,1.9,1.02,4.36,1.63,7.38c0.61,3.02,0.99,5.42,1.15,7.22
		c0.15,1.8,0.57,3.51,1.25,5.13c0.68,1.62,1.48,2.94,2.41,3.95c0.93,1.01,2.02,2.37,3.29,4.1c1.26,1.73,2.35,3.3,3.26,4.71
		c0.91,1.41,1.95,2.68,3.12,3.81c1.17,1.12,1.97,1.87,2.4,2.25c0.43,0.37,0.75,0.74,0.96,1.1c0.22,0.36,0.44,0.69,0.69,0.97
		c1.3,0.09,2.25,0.13,2.87,0.12c0.62-0.02,1.11-0.02,1.47,0c0.37,0.02,0.73,0.05,1.09,0.08c0.36,0.03,0.79,0.22,1.29,0.57
		c0.5,0.35,0.89,0.78,1.19,1.3c0.3,0.52,0.52,1.18,0.66,1.98c0.14,0.81,0.23,1.42,0.28,1.83c0.04,0.41-0.05,1.25-0.29,2.5
		c-0.23,1.25-0.54,2.24-0.92,2.97c-0.38,0.72-0.79,1.48-1.23,2.25c-0.45,0.78-0.9,1.39-1.36,1.84s-0.96,0.74-1.5,0.89
		c-0.54,0.14-1.17,0.13-1.9-0.05c-0.73-0.17-1.41-0.49-2.03-0.95c-0.62-0.46-1.15-0.86-1.6-1.21c-0.44-0.35-1.19-1.05-2.25-2.08
		c-1.05-1.03-1.75-1.92-2.08-2.68c-0.33-0.75-0.51-1.29-0.53-1.61c-0.02-0.32,0.06-0.76,0.25-1.31c0.19-0.55,0.7-1.23,1.53-2.04
		c0.83-0.81,1.54-1.42,2.11-1.85c0.57-0.43,1.08-0.75,1.51-0.98c0.43-0.23,0.77-0.37,1.01-0.42c0.24-0.05,0.44-0.06,0.59-0.01
		c0.16,0.04,0.4,0.11,0.72,0.21c0.33,0.09,0.85,0.26,1.56,0.49"/>
	<path id="STROKE_4d00d790-34b1-4274-a651-fb6a5d93d48b" class="st5" d="M445.33,490.43l-0.85,0.01l-1.03,0.08l-0.93-0.03l-0.9-0.2
		c-0.9-0.41-1.36-0.63-1.38-0.65c-0.02-0.02-0.28-0.18-0.78-0.48c-0.49-0.3-1.19-0.76-2.09-1.38c-0.9-0.62-1.66-1.4-2.29-2.33
		c-0.63-0.93-0.99-2.01-1.08-3.27c-0.1-1.25-0.04-2.26,0.18-3.03c0.21-0.77,0.45-1.33,0.71-1.69c0.26-0.36,0.9-1.01,1.92-1.95
		c1.02-0.94,1.79-1.61,2.32-2c0.52-0.39,1.11-0.71,1.77-0.95c0.66-0.24,1.3-0.36,1.92-0.35c0.63,0.01,1.61,0.76,2.97,2.24
		c1.35,1.48,2.33,2.56,2.92,3.26c0.59,0.69,1.01,1.34,1.24,1.94s0.1,1.45-0.4,2.53c-0.5,1.09-2.46,2.4-5.9,3.95l-0.37,0.05"/>
</g>
<g>
	<path id="STROKE_1e907bf2-d62e-4369-a7f8-2f0f7b76fd0a" class="st6" d="M601.66,611.19c0.01-0.41,0-1-0.03-1.75
		c-0.03-0.75,0.22-1.93,0.75-3.52c0.07-0.09-0.8-0.22-2.61-0.39c-1.81-0.17-3.39-0.23-4.74-0.16c-1.35,0.07-2.38,0.26-3.08,0.57
		c-0.7,0.31-1.37,0.71-2.01,1.18s-0.96,0.71-0.96,0.72c-0.01,0.01-0.32,0.28-0.94,0.8c-0.62,0.53-1.14,0.98-1.58,1.36
		c-0.44,0.38-1.22,0.98-2.35,1.78c-1.13,0.8-2.52,1.92-4.17,3.34c-1.65,1.42-2.99,2.74-4,3.94c-1.02,1.2-1.99,2.69-2.91,4.47
		c-0.92,1.78-1.42,4.45-1.48,8.01c-0.07,3.56-0.08,6.29-0.03,8.21c0.04,1.91,0.18,3.35,0.4,4.31c0.23,0.96,0.8,2.46,1.71,4.49
		c0.91,2.04,1.59,3.77,2.05,5.19c0.46,1.43,0.78,2.56,0.96,3.4c0.18,0.84,0.34,2.43,0.49,4.78c0.14,2.34,0.2,4.06,0.18,5.15
		s-0.25,2.5-0.67,4.23c-0.42,1.73-1.56,3.43-3.42,5.11c-1.85,1.68-3.33,3-4.43,3.96c-1.1,0.96-1.8,1.63-2.11,2
		c-0.31,0.37-0.64,0.77-0.99,1.21c-0.35,0.44-0.68,0.88-0.99,1.3c-0.31,0.43-0.64,0.91-1,1.44c-0.36,0.54-0.65,1-0.88,1.39
		c-0.23,0.39-0.4,0.66-0.52,0.8s-0.53,0.89-1.25,2.23c-0.72,1.34-0.86,3.34-0.41,6c0.45,2.66,0.94,5.25,1.49,7.77
		c0.55,2.52,0.99,4.38,1.32,5.58c0.33,1.2,0.8,2.71,1.42,4.53c0.61,1.82,1.3,4.56,2.07,8.22c0.77,3.66,1.76,7.5,2.96,11.54
		c1.21,4.04,2.27,7.22,3.18,9.55c0.92,2.32,1.51,4.14,1.76,5.43c0.25,1.3,0.4,3.24,0.43,5.81c0.03,2.57,0.05,4.98,0.05,7.21
		c0.01,2.23,0.05,3.8,0.14,4.69c0.09,0.89,0.54,2.3,1.36,4.24c0.82,1.93,2.64,3.96,5.46,6.08c2.82,2.12,5.78,3.85,8.88,5.19
		c3.1,1.33,6.14,2.39,9.14,3.16c3,0.77,5.36,1.28,7.1,1.52c1.74,0.24,4.58,0.36,8.51,0.35c3.93,0,7.12-0.03,9.57-0.08
		c2.45-0.05,5.22,0.43,8.31,1.43c3.09,1,5.75,1.88,7.96,2.62c2.22,0.74,5.31,1.19,9.28,1.34c3.97,0.15,7.29,0.22,9.95,0.23
		c2.66,0.01,5.76-0.53,9.28-1.63c3.53-1.1,7.02-2.53,10.47-4.29c3.45-1.77,6.29-3.35,8.52-4.76c2.23-1.4,4.01-2.84,5.35-4.32
		s2.27-2.67,2.77-3.6c0.51-0.93,0.83-1.64,0.97-2.13c0.14-0.5,0.24-1.07,0.32-1.71c0.08-0.64,0.24-2.42,0.49-5.32
		c0.51-0.38,0.77-0.61,0.79-0.67c0.25-0.18,1.57-1.36,3.94-3.53c2.38-2.17,4.59-4.35,6.65-6.54c2.06-2.18,3.97-4.61,5.72-7.28
		c1.76-2.67,3.15-5.55,4.19-8.64c1.04-3.09,1.71-5.7,2.03-7.81c0.32-2.12,0.5-3.66,0.53-4.63c0.03-0.97-0.01-2.15-0.11-3.53
		c-0.1-1.39-0.35-2.62-0.74-3.7c-0.39-1.08-0.94-2.38-1.64-3.9c-0.71-1.52-1.45-2.85-2.22-3.99c-0.78-1.14-1.92-2.21-3.44-3.21
		c-1.51-1.01-2.78-1.85-3.81-2.52c-1.02-0.67-1.6-1.75-1.72-3.23c-0.12-1.48-0.47-3.05-1.04-4.72c-0.57-1.66-1.48-3.26-2.72-4.81
		c-1.24-1.54-2.31-2.76-3.21-3.66c-0.9-0.89-1.76-2.49-2.58-4.78c-0.82-2.29-1.35-4.5-1.6-6.62c-0.25-2.12-0.52-4.49-0.8-7.1
		c-0.29-2.61-0.35-4.86-0.19-6.76c0.16-1.9,0.44-3.32,0.83-4.26c0.39-0.94,1.14-2.23,2.24-3.87c1.11-1.64,2.37-3.05,3.8-4.23
		c1.43-1.18,3.47-2.24,6.13-3.16c2.66-0.92,4.64-1.51,5.93-1.76c1.29-0.25,2.29-0.39,2.99-0.41c0.7-0.02,1.26,0.08,1.7,0.3
		c0.43,0.23,0.82,0.48,1.17,0.78c0.35,0.29,0.7,0.59,1.05,0.9s1.6,1.29,3.73,2.94l0.03,0.08c0.67,0.67,1.06,0.99,1.17,0.97
		c0.65,0.23,1.72,0.4,3.24,0.5c1.51,0.1,2.71,0.02,3.58-0.23c0.88-0.26,1.51-0.51,1.9-0.77c0.39-0.26,0.7-0.51,0.95-0.75
		c0.24-0.24,0.41-0.42,0.51-0.55s0.16-0.2,0.18-0.23c0.03-0.03,0.17-0.33,0.43-0.91c0.26-0.58,0.43-1.35,0.53-2.32
		c0.09-0.97,0.14-1.87,0.15-2.7c0.01-0.83-0.14-1.72-0.44-2.68c-0.3-0.96-0.6-1.64-0.9-2.04s-0.5-0.64-0.6-0.72
		c-0.1-0.08-0.36-0.24-0.78-0.48c-0.42-0.24-0.72-0.4-0.87-0.46c-0.16-0.06-0.25-0.1-0.28-0.13c-0.03-0.03-0.76-0.15-2.19-0.36
		c-1.44-0.22-2.58-0.3-3.44-0.26c-0.86,0.04-1.51,0.11-1.96,0.21c-0.45,0.1-0.79,0.19-1.02,0.28c-0.23,0.09-0.44,0.16-0.61,0.23
		c-0.18,0.07-0.43,0.24-0.77,0.51c-0.34,0.27-0.77,0.8-1.29,1.59s-1.04,1.94-1.53,3.45c-0.49,1.51-0.75,2.73-0.76,3.65
		c-0.01,0.92,0.06,1.64,0.2,2.16c0.15,0.52,0.38,0.89,0.7,1.11c0.32,0.22,0.48,0.34,0.48,0.36c0,0.02,0.05,0.05,0.14,0.1
		c0.1,0.05,0.19,0.16,0.27,0.31"/>
	<path id="STROKE_aa1467d4-9f37-4568-b621-65c0bab9d036" class="st7" d="M604.12,606.21c-0.27-0.24-0.46-0.4-0.57-0.47
		c-0.12-0.1,0.14,1.37,0.79,4.41c0.06,0.05,0.39,0.15,0.98,0.3c0.59,0.15,1.48-0.05,2.67-0.58c1.19-0.54,2.24-1.25,3.13-2.14
		c0.89-0.89,1.5-1.6,1.83-2.14c0.33-0.53,0.5-0.81,0.53-0.84c0.03-0.03,0.21-0.98,0.56-2.86c0.34-1.88,0.51-3.48,0.5-4.78
		c-0.01-1.3-0.14-2.48-0.39-3.53s-0.66-1.88-1.23-2.51c-0.57-0.63-1.07-1.07-1.5-1.33c-0.43-0.26-0.9-0.42-1.41-0.49
		c-0.51-0.07-1.19-0.06-2.04,0.02c-0.85,0.08-1.44,0.18-1.76,0.29c-0.32,0.11-0.75,0.26-1.28,0.43c-0.53,0.18-1.18,0.46-1.94,0.85
		c-0.77,0.39-1.5,1.02-2.21,1.87c-0.71,0.86-1.15,2.02-1.33,3.49c-0.18,1.47-0.24,2.68-0.18,3.64c0.05,0.95,0.2,1.69,0.44,2.2
		c0.24,0.52,0.44,0.86,0.61,1.03c0.17,0.17,0.38,0.34,0.64,0.51c0.26,0.17,0.63,0.42,1.11,0.76"/>
</g>
<g>
	<path id="STROKE_2c664ec4-141e-44a6-adfe-e9d81f399bd3" class="st8" d="M656.5,352.15c-0.06-0.29,0.5-1.41,1.66-3.38
		c0.11-0.16-0.15,0.88-0.77,3.12c-0.62,2.24-0.99,4.26-1.11,6.05c-0.12,1.79-0.16,3.14-0.12,4.05c0.04,0.91,0.27,1.68,0.7,2.29
		c0.43,0.61,1.61,1.43,3.55,2.44c1.94,1.01,3.48,1.92,4.6,2.73c1.13,0.81,2.07,1.43,2.82,1.88c0.75,0.45,1.9,1.07,3.43,1.85
		c1.54,0.79,3.26,2.64,5.18,5.55c1.92,2.91,3.59,5.4,5.04,7.45c1.44,2.06,2.99,3.96,4.64,5.72c1.65,1.76,3.16,4.03,4.51,6.82
		c1.35,2.79,2.44,6.22,3.27,10.31c0.82,4.09,1.42,7.09,1.78,9.02c0.36,1.93,0.52,3.82,0.46,5.66c-0.06,1.84-0.46,3.65-1.2,5.42
		c-0.74,1.77-1.36,3.11-1.85,4.01c-0.49,0.9-1.81,2.12-3.95,3.66c-2.14,1.53-3.92,2.69-5.34,3.47c-1.42,0.78-2.8,1.3-4.14,1.55
		c-1.34,0.25-3.46,0.39-6.35,0.42c-2.89,0.03-5.14,0.11-6.75,0.26c-1.61,0.15-3.31-0.2-5.11-1.05c-1.8-0.85-3.51-1.59-5.15-2.22
		c-1.64-0.63-3.22-1.11-4.73-1.45c-1.52-0.34-4.99-0.58-10.42-0.73c-5.43-0.15-9.58-0.3-12.46-0.47c-2.87-0.16-5.56-0.03-8.05,0.4
		c-2.49,0.43-4.57,1.1-6.25,2.02c-1.68,0.92-3.12,1.8-4.32,2.63c-1.2,0.83-2.27,1.61-3.2,2.32c-0.94,0.72-2.16,2.28-3.67,4.71
		c-1.51,2.42-2.63,4.43-3.38,6.03c-0.75,1.59-1.27,2.78-1.57,3.56c-0.3,0.78-0.52,1.51-0.66,2.2c-0.14,0.69-0.25,1.43-0.31,2.23
		c-0.07,0.8-0.11,2.25-0.13,4.35c-0.02,2.1,0.07,3.92,0.27,5.46c0.2,1.54,0.47,2.75,0.83,3.63c0.36,0.88,0.82,1.87,1.39,2.99
		c0.57,1.11,2.15,2.53,4.73,4.25c2.58,1.72,5.32,3.62,8.22,5.68c2.9,2.07,5.35,3.7,7.35,4.9c2,1.2,3.65,2.06,4.95,2.57
		c1.29,0.51,2.79,1.38,4.49,2.62c1.7,1.24,2.91,2.36,3.64,3.35c0.73,0.99,1.68,2.51,2.85,4.56c1.17,2.05,2.11,3.9,2.83,5.54
		c0.72,1.64,1.14,3.27,1.26,4.88c0.12,1.61-0.18,3.25-0.92,4.92c-0.73,1.67-1.93,3.31-3.58,4.92s-3.44,2.77-5.36,3.5
		c-1.92,0.72-4.55,1.19-7.91,1.41c-3.36,0.21-6.17,0.28-8.44,0.21c-2.27-0.08-4.14-0.29-5.59-0.65c-1.46-0.36-2.78-0.72-3.97-1.09
		c-1.19-0.37-2.13-0.67-2.81-0.9c-0.69-0.23-1.22-0.39-1.61-0.49c-0.39-0.1-1.97-0.71-4.76-1.85c-2.79-1.13-5.19-2.26-7.21-3.36
		c-2.02-1.11-4.19-2.21-6.51-3.32c-2.32-1.1-4.87-2.19-7.65-3.26c-2.78-1.07-4.85-1.87-6.21-2.39c-1.36-0.53-3.02-1.01-4.99-1.44
		s-4.41-0.71-7.34-0.83c-2.93-0.12-5.98,0.05-9.16,0.52c-3.17,0.46-6.2,1.24-9.07,2.34c-2.87,1.1-5.68,2.57-8.43,4.41
		c-2.75,1.85-5.57,3.85-8.47,6.01s-5.08,3.77-6.55,4.82c-1.47,1.05-3.06,2.55-4.77,4.5c-1.71,1.95-3.25,4.31-4.62,7.07
		c-1.36,2.76-2.42,5.43-3.17,8.01s-1.04,5.63-0.88,9.16c0.16,3.52,0.5,6.41,1.02,8.66c0.52,2.25-0.18,5.31-2.11,9.18
		c-0.19-0.17-0.53-0.35-1.01-0.54c-0.48-0.18-1.27-0.34-2.39-0.47c-1.11-0.13-2.18-0.08-3.21,0.15s-1.99,0.69-2.91,1.37
		s-1.55,1.72-1.9,3.11c-0.36,1.39-0.51,2.5-0.48,3.32c0.04,0.83,0.17,1.5,0.39,2.02c0.22,0.52,0.45,0.93,0.67,1.24
		c0.23,0.31,0.4,0.53,0.52,0.67c0.11,0.14,0.39,0.44,0.84,0.89c0.45,0.45,0.74,0.73,0.88,0.83s0.39,0.3,0.77,0.57s1.15,0.61,2.33,1
		c1.18,0.39,2.53,0.06,4.05-0.97c1.52-1.04,2.64-1.92,3.36-2.65c0.71-0.73,1.16-1.24,1.36-1.54c0.19-0.3,0.4-0.77,0.63-1.43
		c0.23-0.65,0.37-1.4,0.43-2.23c0.06-0.83,0-1.55-0.17-2.15c-0.17-0.61-0.36-1.03-0.55-1.28s-0.38-0.44-0.55-0.59
		c-0.17-0.15-0.47-0.36-0.9-0.65c-0.43-0.28-0.78-0.5-1.05-0.64c-0.27-0.14-0.58-0.31-0.92-0.52c-0.34-0.2-0.79-0.56-1.36-1.06"/>
	<path id="STROKE_158a89d1-5198-4b82-af97-e8ae9d9932c8" class="st9" d="M658.54,348.04l-0.82,0.04c-1.07,0.06-2.07,0.07-2.97,0.05
		c-0.91-0.02-1.73-0.16-2.46-0.43c-0.73-0.27-1.23-0.53-1.51-0.78c-0.28-0.25-0.53-0.58-0.74-0.98c-0.22-0.4-0.33-0.61-0.34-0.62
		c-0.01-0.02-0.05-0.49-0.11-1.41c-0.06-0.93-0.05-1.61,0.03-2.04c0.08-0.44,0.37-1.15,0.86-2.13c0.5-0.98,1.08-1.78,1.74-2.39
		c0.66-0.61,1.55-1.2,2.65-1.77c1.1-0.58,2.37-1.13,3.79-1.65c1.42-0.53,2.9-0.65,4.43-0.36c1.53,0.28,2.61,0.6,3.23,0.94
		c0.62,0.34,1.07,0.63,1.36,0.88c0.29,0.24,0.49,0.44,0.6,0.58c0.11,0.15,0.26,0.44,0.45,0.87c0.19,0.43,0.24,1,0.15,1.71
		c-0.09,0.71-0.22,1.21-0.4,1.49c-0.17,0.29-0.33,0.56-0.46,0.81c-0.13,0.25-0.61,0.83-1.42,1.74c-0.82,0.91-1.5,1.59-2.03,2.06
		c-0.54,0.47-0.95,0.83-1.24,1.08c-0.29,0.25-0.7,0.58-1.24,0.99c-0.54,0.41-0.9,0.67-1.09,0.77c-0.18,0.11-0.41,0.21-0.67,0.32
		c-0.26,0.1-2.15,0.25-5.66,0.44"/>
</g>
<g>
	<path id="STROKE_70822c09-98ce-4738-944c-acee17290182" class="st10" d="M642.79,43.16c0.03-0.29,0.07-0.55,0.11-0.77
		c0.04-0.22,0.08-0.33,0.11-0.34c0.03-0.01,0.06,0,0.09,0.04c0.03,0.03-0.23,0.39-0.8,1.05c-0.57,0.67-1.38,1.27-2.45,1.82
		c-1.07,0.55-2.21,1.07-3.43,1.57c-1.22,0.5-3.08,1.73-5.59,3.69s-4.66,3.96-6.44,5.98c-1.78,2.02-3.15,3.81-4.11,5.37
		c-0.95,1.55-1.8,3.46-2.53,5.71c-0.73,2.25-1.25,4.26-1.57,6.04c-0.32,1.78-0.54,3.37-0.67,4.79c-0.13,1.42-0.27,2.67-0.43,3.75
		s-0.34,3.39-0.56,6.93c-0.22,3.53-0.36,6.34-0.43,8.42c-0.07,2.08,0.2,4.35,0.79,6.83c0.59,2.48,1.56,5.73,2.9,9.74
		c1.34,4.01,2.59,7.62,3.74,10.83c1.15,3.21,2.18,6.04,3.1,8.49c0.92,2.45,1.59,4.35,2.01,5.69c0.42,1.35,1.28,3.64,2.59,6.9
		c1.31,3.25,2.38,7.58,3.21,12.97c0.83,5.39,1.24,10.06,1.23,14c-0.01,3.94-0.02,6.82-0.01,8.63c0,1.81-0.44,4.2-1.33,7.18
		s-1.71,5.36-2.46,7.17c-0.76,1.8-1.94,3.92-3.56,6.34c-1.61,2.42-3.23,4.36-4.85,5.81c-1.62,1.45-3.23,2.73-4.84,3.85
		c-1.61,1.12-3.38,1.86-5.31,2.22c-1.93,0.36-4.13,0.59-6.6,0.68c-2.47,0.09-4.97-0.16-7.52-0.77s-5.12-1.61-7.72-3.02
		c-2.6-1.41-4.69-2.64-6.27-3.7c-1.57-1.06-2.74-1.91-3.5-2.55c-0.76-0.64-1.33-1.15-1.73-1.54c-0.39-0.39-0.86-0.97-1.4-1.73
		c-0.54-0.77-0.99-1.45-1.35-2.05c-0.36-0.6-0.84-1.58-1.44-2.93c-0.6-1.36-1.15-2.71-1.65-4.05c-0.5-1.34-1.06-2.92-1.71-4.74
		c-0.64-1.82-1.04-3.87-1.19-6.17c-0.15-2.29-0.18-4.19-0.1-5.69s0.52-3.16,1.29-4.98c0.78-1.82,1.66-3.37,2.65-4.66
		c0.99-1.28,1.98-2.27,2.98-2.96c1-0.69,2.42-1.37,4.26-2.04c1.84-0.67,3.84-1.24,5.97-1.72c2.14-0.48,4.18-0.52,6.11-0.11
		c1.94,0.41,3.55,0.98,4.83,1.73c1.28,0.75,2.32,1.32,3.11,1.71c0.79,0.39,1.9,1.19,3.32,2.4c1.42,1.21,2.37,2.14,2.84,2.78
		c0.47,0.64,0.77,1.04,0.89,1.19c0.12,0.15,0.37,0.73,0.75,1.72c0.38,0.99,0.62,1.88,0.7,2.67c0.08,0.79,0.1,1.57,0.05,2.34
		c-0.05,0.77-0.08,1.19-0.1,1.27c-0.02,0.07-0.06,0.23-0.12,0.47c-0.06,0.24-0.09,0.39-0.11,0.43c-0.02,0.05-0.05,0.17-0.1,0.36
		c-0.05,0.19-0.18,0.6-0.4,1.23c-0.22,0.63-0.46,1.21-0.73,1.73c-0.26,0.52-0.5,0.91-0.7,1.15c-0.2,0.25-0.44,0.49-0.71,0.72
		c-0.27,0.23-0.42,0.36-0.45,0.37c-0.02,0.01-0.24,0.16-0.65,0.42c-0.41,0.27-1.2,0.65-2.36,1.15c-1.16,0.5-2.19,0.73-3.09,0.71
		c-0.9-0.02-1.75-0.2-2.56-0.55s-1.39-0.65-1.76-0.9c-0.37-0.25-0.64-0.44-0.79-0.58c-0.15-0.14-0.37-0.34-0.64-0.62
		c-0.27-0.28-0.49-0.52-0.64-0.71c-0.16-0.2-0.26-0.34-0.3-0.42c-0.04-0.08-0.08-0.13-0.11-0.13c-0.04,0-0.26-0.62-0.67-1.84
		l-0.49-0.21l-0.72-0.07c-0.05-0.01-0.18,0.03-0.39,0.13c-0.21,0.1-0.63,0.65-1.25,1.65c-0.62,1-0.96,1.85-1.02,2.54
		c-0.06,0.7-0.11,1.46-0.15,2.29c-0.04,0.83,0.06,1.71,0.31,2.65c0.25,0.93,0.5,1.62,0.77,2.07c0.27,0.44,0.58,0.83,0.93,1.17
		c0.36,0.34,0.74,0.62,1.17,0.82c0.42,0.21,0.65,0.31,0.66,0.3c0.02,0,0.13,0.02,0.33,0.06c0.21,0.04,0.58,0,1.1-0.12
		c0.53-0.13,0.88-0.25,1.05-0.37c0.17-0.12,0.34-0.25,0.53-0.38c0.18-0.14,0.4-0.31,0.65-0.53c0.25-0.22,0.38-0.34,0.39-0.37
		c0.01-0.03,0.05-0.05,0.14-0.09c0.08-0.03,0.28-0.34,0.58-0.93c0.31-0.59,0.49-1.05,0.54-1.39c0.06-0.34,0.09-0.64,0.1-0.91
		c0.01-0.26,0-0.59-0.01-0.99c-0.02-0.39-0.09-0.78-0.21-1.16c-0.12-0.38-0.26-0.7-0.42-0.95c-0.15-0.25-0.36-0.54-0.62-0.86
		c-0.26-0.32-0.46-0.57-0.6-0.73c-0.14-0.16-0.33-0.34-0.56-0.54c-0.23-0.2-0.37-0.32-0.43-0.37c-0.06-0.05-0.24-0.13-0.56-0.24
		c-0.31-0.11-0.85-0.17-1.6-0.18"/>
	<path id="STROKE_b90b8495-008a-4e81-8104-ff05f09c8dde" class="st11" d="M652.06,47.66c-0.36-0.18-0.55-0.3-0.57-0.36l-0.48-0.56
		l-1.05-1.33l-0.59-0.69l-0.45-0.36c-0.14-0.09-0.39-0.26-0.74-0.5c-0.35-0.24-0.67-0.5-0.96-0.76c-0.29-0.27-0.43-0.41-0.44-0.42
		c-0.01-0.01-0.2-0.15-0.59-0.42c-0.39-0.27-0.77-0.46-1.14-0.59c-0.08-0.05-0.07,0.16,0.04,0.62c0.11,0.47,0.52,0.98,1.25,1.55
		c0.72,0.57,1.61,0.89,2.67,0.96c1.05,0.07,1.97,0,2.74-0.23c0.77-0.23,1.62-0.76,2.53-1.58c0.91-0.82,1.63-1.67,2.14-2.54
		c0.51-0.87,0.82-1.98,0.92-3.34c0.1-1.36-0.03-2.58-0.38-3.64c-0.35-1.07-0.66-1.82-0.93-2.27c-0.27-0.44-0.72-0.85-1.34-1.23
		c-0.63-0.38-1.19-0.58-1.68-0.62c-0.49-0.03-0.99-0.05-1.49-0.06c-0.5-0.01-1.19,0.04-2.07,0.15c-0.88,0.11-1.97,0.51-3.27,1.19
		s-2.38,1.57-3.24,2.64c-0.86,1.07-1.5,2.36-1.93,3.86c-0.43,1.5-0.61,2.81-0.54,3.95c0.07,1.13,0.3,2,0.67,2.58
		c0.37,0.59,0.67,0.97,0.9,1.13c0.22,0.16,0.95,0.5,2.17,1.01c1.22,0.51,2.67,1.28,4.35,2.32"/>
</g>
<g>
	<path id="STROKE_b2d0d6c3-37a6-4a76-9034-7eb4bfcbc6bf" class="st12" d="M971.01,264.71c-0.22-0.22-0.79-0.66-1.7-1.33
		c-0.91-0.67-2.09-1.27-3.52-1.81c-1.43-0.54-3.73-0.92-6.9-1.14c-3.16-0.22-5.92-0.25-8.27-0.08c-2.35,0.17-4.26,0.42-5.72,0.77
		c-1.46,0.35-2.49,0.61-3.09,0.79c-0.6,0.18-1.49,0.47-2.68,0.88c-1.19,0.41-2.65,1.02-4.39,1.82c-1.74,0.81-3.37,1.72-4.89,2.75
		c-1.52,1.03-3.23,2.72-5.13,5.07c-1.9,2.35-3.3,4.16-4.21,5.42c-0.91,1.26-2.02,4.05-3.34,8.37s-2.4,7.63-3.25,9.92
		s-1.36,4.05-1.55,5.26c-0.19,1.21-0.09,2.27,0.29,3.16c0.38,0.89,0.71,1.66,0.99,2.31c0.27,0.65,0.43,1.14,0.47,1.46
		c0.04,0.32,0.07,0.58,0.09,0.77c0.02,0.19,0.04,0.47,0.04,0.83c0.01,0.36-0.14,1.7-0.45,4.01c-0.31,2.32-0.5,4.26-0.55,5.83
		c-0.06,1.57-0.1,3.01-0.11,4.3c-0.02,1.29-0.01,3.02,0.04,5.19c0.04,2.17,0.05,3.77,0.02,4.8c-0.03,1.03,0.24,2.15,0.83,3.36
		c0.59,1.21,1.17,2.48,1.74,3.82c0.58,1.34,0.95,3.22,1.11,5.64c0.16,2.42,0.15,5.01-0.05,7.77c-0.2,2.76-0.27,4.95-0.23,6.57
		c0.04,1.62,0.3,3.4,0.76,5.32c0.46,1.92,2.23,4.6,5.3,8.03c3.07,3.43,5.9,6.47,8.48,9.11c2.58,2.64,4.93,4.88,7.05,6.71
		c2.12,1.83,4.65,3.48,7.59,4.95c2.94,1.46,5.75,2.5,8.45,3.12c2.69,0.62,5.09,0.99,7.19,1.12c2.1,0.13,5.46,0.17,10.08,0.13
		c4.61-0.04,8.41-0.15,11.39-0.33c2.98-0.18,6.71-0.57,11.18-1.14c4.47-0.58,8.47-1.3,11.98-2.17c3.51-0.87,6.32-1.66,8.43-2.39
		c2.11-0.72,4.27-1.8,6.47-3.21c2.2-1.42,4.71-3.57,7.52-6.45c2.81-2.88,5.25-5.46,7.3-7.74c2.05-2.28,3.78-5.07,5.19-8.39
		c1.41-3.32,2.42-6.09,3.04-8.33c0.61-2.23,1.25-4.52,1.92-6.87c0.67-2.34,1.27-4.87,1.8-7.57c0.53-2.7,0.37-6.47-0.5-11.29
		c-0.86-4.83-2.27-9.78-4.23-14.84c-1.96-5.07-3.43-8.71-4.41-10.94c-0.98-2.23-2.2-4.81-3.66-7.75c-1.46-2.94-2.62-5.08-3.48-6.43
		c-0.87-1.35-1.59-2.44-2.16-3.29c-0.58-0.85-1.56-1.98-2.96-3.39c-1.4-1.41-3.08-2.72-5.04-3.94c-1.96-1.22-6.09-2.19-12.38-2.92
		l-0.64-0.43c-0.33-0.18-0.84-0.7-1.53-1.54c-0.69-0.85-1.11-1.71-1.28-2.58c-0.16-0.87-0.19-1.68-0.1-2.42
		c0.09-0.74,0.3-1.41,0.64-2c0.33-0.59,0.68-1.04,1.03-1.36c0.35-0.32,0.72-0.55,1.09-0.71c0.38-0.16,0.7-0.26,0.97-0.29
		c0.27-0.04,0.42-0.06,0.45-0.07c0.03-0.01,0.22-0.01,0.57,0.02c0.35,0.02,0.67,0.13,0.96,0.32c0.29,0.19,0.58,0.5,0.87,0.94
		c0.29,0.44,0.47,0.76,0.55,0.95c0.08,0.19,0.23,0.53,0.44,1.02c0.22,0.48,0.38,0.85,0.49,1.11c0.11,0.25,0.2,0.49,0.26,0.7
		c0.06,0.21,0.1,0.33,0.1,0.35c0,0.03,0.04,0.22,0.12,0.56s-0.06,0.94-0.41,1.78c-0.36,0.84-0.75,1.47-1.18,1.91
		c-0.43,0.43-0.66,0.66-0.67,0.69c-0.01,0.02-0.24,0.2-0.67,0.52c-0.43,0.32-0.9,0.52-1.4,0.6s-1.73-0.15-3.68-0.69"/>
	<path id="STROKE_b1ad8281-dba1-451d-809b-93bf0b2d7ee4" class="st13" d="M972.99,265.96l-0.59-0.38l0.43-0.13l0.93-0.23
		c0.77-0.3,1.8-1.06,3.09-2.26c1.29-1.2,2.04-2.16,2.27-2.88c0.23-0.72,0.36-1.32,0.41-1.81s0.06-0.83,0.06-1.04
		c-0.01-0.21-0.16-0.53-0.45-0.96c-0.3-0.43-0.73-0.78-1.29-1.05c-0.56-0.27-0.98-0.44-1.24-0.51c-0.27-0.07-0.41-0.1-0.43-0.11
		c-0.02-0.01-0.37-0.05-1.04-0.12c-0.67-0.07-1.37-0.08-2.08-0.03c-0.71,0.05-1.14,0.1-1.27,0.15c-0.13,0.05-0.23,0.1-0.29,0.15
		c-0.07,0.05-0.22,0.2-0.46,0.46c-0.24,0.26-0.38,0.39-0.42,0.41c-0.04,0.02-0.36,0.78-0.96,2.28c-0.6,1.51-1.01,2.77-1.22,3.79
		c-0.21,1.02-0.33,1.76-0.35,2.24c-0.02,0.47,0.52,1.75,1.63,3.84"/>
</g>
<g>
	<path id="STROKE_52827e0d-7c49-41b6-ae6e-dfa5ee2bf54e" class="st14" d="M872.02,512.32c-0.41-0.64-0.65-0.95-0.74-0.95
		c-0.03-0.06-0.64-0.19-1.82-0.4c-1.18-0.21-3.04,0.15-5.59,1.08c-2.55,0.93-4.97,2.06-7.26,3.38c-2.29,1.32-4.37,2.88-6.22,4.68
		c-1.86,1.79-3.38,3.74-4.58,5.83c-1.2,2.09-1.96,4.24-2.3,6.44c-0.33,2.2-0.45,4.09-0.36,5.68c0.09,1.58,0.82,3.39,2.18,5.43
		c1.36,2.04,2.57,3.57,3.63,4.59c1.05,1.02,2.72,2.14,5,3.36c2.28,1.22,4.89,2.01,7.83,2.36c2.94,0.36,5.28,0.52,7.01,0.49
		c1.73-0.03,3.18-0.19,4.34-0.48c1.17-0.29,2.03-0.56,2.6-0.79c0.57-0.24,1.68-0.92,3.34-2.06c1.66-1.14,3.01-2.25,4.05-3.34
		c1.04-1.09,1.98-2.15,2.81-3.2c0.83-1.05,1.67-2.43,2.52-4.14c0.85-1.72,1.42-3.45,1.73-5.19c0.31-1.75,0.47-3.35,0.5-4.8
		c0.03-1.46,0.01-2.62-0.05-3.48c-0.06-0.86-0.38-2.18-0.97-3.94c-0.59-1.77-1.44-3.5-2.54-5.21c-1.1-1.7-3.32-3.14-6.65-4.32
		c-3.33-1.17-6.03-1.98-8.09-2.4c-2.06-0.43-4.29-1.68-6.69-3.75l0.15-0.01"/>
	<path id="STROKE_b72dd800-55dd-4a48-a3f7-0172b12fb628" class="st15" d="M858.52,559.69c-0.01,0.18-0.03-1.6-0.08-5.34
		c-0.06-0.54-0.82,2.02-2.28,7.65c-1.46,5.64-2.65,10.13-3.57,13.46c-0.92,3.34-1.68,5.81-2.27,7.41c-0.6,1.6-1.69,5.27-3.28,10.98
		c-1.59,5.72-2.77,10.31-3.53,13.79s-1.26,6.06-1.48,7.77c-0.23,1.71-0.38,3.26-0.46,4.65c-0.08,1.4-0.01,2.89,0.2,4.46
		s1.34,3.23,3.38,4.95c2.05,1.72,3.68,2.97,4.91,3.74c1.22,0.77,2.87,1.99,4.94,3.66c2.07,1.66,3.98,3.1,5.73,4.32
		c1.75,1.21,3.3,2.07,4.64,2.56c1.34,0.49,3.19,0.93,5.53,1.32c2.34,0.38,4.08,0.68,5.21,0.87s2.36,0.6,3.67,1.2
		c1.32,0.61,2.72,1.08,4.21,1.44c1.49,0.35,2.92,0.53,4.3,0.54c1.38,0.01,2.67-0.35,3.87-1.08c0.1-0.38,0.15-0.58,0.15-0.59
		s0.01-0.44,0.03-1.27c-0.05,0.26-0.08,0.38-0.11,0.36"/>
	<path id="STROKE_6076e14f-262d-4f74-acba-28b527953123" class="st16" d="M895.99,632.41c-0.17,0.36-0.81,1.91-1.92,4.67
		c-1.11,2.76-2.01,5.28-2.7,7.57c-0.69,2.29-0.84,4.8-0.45,7.55c0.39,2.75,0.8,4.82,1.23,6.23c0.43,1.41,0.85,2.54,1.27,3.39
		s0.99,1.63,1.73,2.35c0.73,0.71,2.54,1.19,5.42,1.44c2.88,0.25,6.03,0.11,9.45-0.4c3.42-0.51,6.46-1.24,9.1-2.18
		c2.64-0.94,4.94-1.99,6.91-3.14c1.96-1.15,3.74-2.45,5.32-3.89c1.58-1.44,2.99-3.34,4.22-5.7c1.23-2.36,2.03-4.53,2.4-6.49
		c0.37-1.96,0.56-3.6,0.58-4.91c0.02-1.31-0.66-3.06-2.04-5.24s-2.7-4.03-3.99-5.53c-1.28-1.5-2.61-2.76-3.99-3.77
		c-1.38-1.01-4.01-1.66-7.89-1.93c-3.88-0.27-6.84-0.47-8.88-0.6c-2.04-0.13-4.42,0.34-7.14,1.43c-2.72,1.08-4.94,2.16-6.67,3.24
		c-1.73,1.07-2.96,1.95-3.7,2.62c-0.74,0.67-1.19,1.2-1.35,1.57c-0.17,0.37-0.25,0.64-0.26,0.8c-0.01,0.17,0.02,0.37,0.08,0.61
		c0.06,0.24,0.13,0.46,0.21,0.64c0.08,0.18,0.35,0.7,0.81,1.54"/>
</g>
<g>
	<path id="STROKE_983d6f44-7aa9-4baa-9d33-a756fd1d2664" class="st17" d="M804.74,183.43c-0.16-0.5-0.24-0.75-0.26-0.75
		c-0.02,0-0.1-0.09-0.24-0.27c-0.51,0.34-0.77,0.54-0.78,0.59c-0.38,0.89-0.56,1.34-0.56,1.35c0,0.01-0.11,0.32-0.33,0.91
		c-0.22,0.6-0.98,2.35-2.27,5.26c-1.3,2.91-2.4,6.29-3.3,10.14c-0.91,3.86-1.44,6.82-1.61,8.9c-0.17,2.07-0.55,4.95-1.15,8.64
		c-0.61,3.68-1.2,7.41-1.78,11.18c-0.58,3.77-0.93,6.65-1.03,8.62c-0.1,1.98,0.01,5.56,0.33,10.76c0.32,5.2,0.57,9.53,0.74,13.01
		c0.17,3.48,0.24,7.61,0.22,12.39c-0.03,4.78-0.01,8.5,0.07,11.15c0.07,2.65-0.09,12.56-0.49,29.72c-0.4,17.16-0.64,34.36-0.72,51.6
		l-0.1-0.29l-0.33-0.55c-0.35-0.39-0.96-0.68-1.84-0.85c-0.88-0.17-1.9,0-3.07,0.52c-1.17,0.52-2.12,1.02-2.87,1.51
		c-0.75,0.49-1.6,1.37-2.57,2.64s-1.68,2.35-2.14,3.26c-0.46,0.9-0.76,1.83-0.88,2.76c-0.12,0.94-0.18,1.9-0.16,2.87
		s0.64,2.36,1.89,4.15c1.24,1.79,2.41,3.22,3.52,4.3c1.1,1.07,2.26,1.78,3.47,2.13c1.21,0.35,2.57,0.27,4.06-0.26
		c1.5-0.53,2.99-1.44,4.47-2.74c1.48-1.3,2.57-2.49,3.26-3.56c0.69-1.07,1.14-2.16,1.35-3.26c0.21-1.1-0.39-2.73-1.77-4.89
		c-1.39-2.16-3.26-5.64-5.6-10.43l-0.21,0.12c-0.05-0.01-0.24-0.13-0.56-0.35"/>
	<path id="STROKE_6a2816c2-452b-44d7-98d0-532f13e48f8d" class="st18" d="M807.26,181.63c-0.08,0.85-0.37,1.8-0.88,2.86
		c-0.2-0.02-0.69-0.32-1.46-0.89c-0.77-0.57-1.46-1.15-2.07-1.73c-0.61-0.58-1.17-1.15-1.67-1.71c-0.5-0.57-0.91-1.06-1.23-1.48
		c-0.32-0.42-0.84-1.19-1.57-2.31c-0.73-1.12-1.34-2.7-1.83-4.74c-0.5-2.04-0.77-3.69-0.83-4.97c-0.06-1.27,0.05-2.33,0.33-3.18
		c0.28-0.84,1.22-2.04,2.83-3.58c1.61-1.55,3.07-2.72,4.36-3.54c1.3-0.81,2.51-1.41,3.66-1.8c1.14-0.39,2.14-0.61,2.98-0.66
		c0.85-0.05,1.76,0.18,2.74,0.69c0.98,0.51,1.78,1.04,2.4,1.59c0.62,0.55,1.74,1.39,3.36,2.52c1.62,1.13,2.71,2.34,3.27,3.62
		c0.56,1.28,0.81,2.92,0.74,4.93s-0.27,3.79-0.61,5.36c-0.33,1.56-1.13,3.35-2.4,5.36c-1.26,2.01-5.46,3.94-12.6,5.78"/>
</g>
<g>
	<path id="STROKE_d90882d4-e739-4f2e-a3d8-2f70014abd83" class="st19" d="M203.84,673.22c-0.11-0.18-0.21-0.34-0.31-0.48
		c-0.1-0.13-0.22-0.28-0.36-0.43c-0.14-0.15-0.3-0.28-0.48-0.4c-0.18-0.12-0.28-0.17-0.32-0.16c-0.03,0.01-0.14-0.02-0.32-0.08
		c-0.18-0.06-1.1,0.7-2.75,2.29c-1.66,1.59-3.49,4.05-5.49,7.39c-2,3.34-3.55,6.66-4.64,9.94c-1.09,3.29-2.03,6.31-2.79,9.06
		c-0.77,2.75-1.45,6.5-2.03,11.24c-0.59,4.74-1.01,8.42-1.26,11.04c-0.25,2.62-0.41,5.73-0.47,9.32c-0.07,3.6-0.07,6.47-0.03,8.63
		c0.05,2.15,0.29,4.34,0.72,6.56c0.43,2.22,0.81,4.02,1.12,5.41c0.31,1.38,0.85,3.37,1.6,5.96c0.75,2.59,1.93,5.42,3.55,8.48
		c1.61,3.06,3.44,5.78,5.49,8.15c2.05,2.37,3.58,4.05,4.59,5.05c1.01,0.99,3.31,3.25,6.91,6.78c3.59,3.53,6.44,6.27,8.53,8.22
		c2.1,1.96,5.5,5.21,10.19,9.76c4.69,4.55,8.3,7.95,10.83,10.2c2.52,2.25,4.34,3.98,5.46,5.19c1.11,1.21,2.17,2.43,3.17,3.66
		c1,1.23,2.59,3.51,4.74,6.85c2.16,3.34,3.88,5.85,5.17,7.53c1.29,1.68,3.12,4.18,5.47,7.51c2.36,3.33,4.14,5.94,5.35,7.84
		c1.21,1.9,2.35,3.88,3.42,5.93c1.07,2.05,1.88,3.64,2.45,4.78c0.56,1.13,1.17,2.3,1.82,3.5c0.65,1.2,1.94,4.01,3.88,8.41
		c1.94,4.4,3.35,7.73,4.24,9.97c0.89,2.24,1.62,3.98,2.2,5.22c0.57,1.24,0.39,4.14-0.55,8.71l-0.2-0.07l-0.48-0.01l-1.09-0.04
		c-0.49-0.01-1.48-0.01-2.96-0.02c-1.48-0.01-2.81,0.16-3.99,0.49c-1.17,0.33-1.99,0.77-2.45,1.32c-0.46,0.55-0.79,1.29-0.98,2.23
		c-0.19,0.93-0.26,2.28-0.22,4.04c0.04,1.76,0.26,3.11,0.66,4.06c0.4,0.94,0.9,1.7,1.51,2.26c0.61,0.56,1.19,0.94,1.76,1.15
		c0.57,0.21,0.92,0.32,1.05,0.35c0.14,0.03,0.61,0.12,1.42,0.27c0.81,0.15,1.74,0.21,2.82,0.19c1.07-0.02,1.86-0.15,2.36-0.39
		c0.5-0.24,1.01-0.72,1.53-1.43c0.52-0.71,0.94-1.39,1.27-2.04c0.33-0.64,0.68-1.28,1.06-1.91c0.37-0.63,0.74-1.91,1.09-3.85
		c0.36-1.94,0.52-3.47,0.48-4.62c-0.04-1.14-0.24-2.07-0.6-2.8c-0.36-0.73-0.73-1.25-1.11-1.58c-0.38-0.33-0.7-0.58-0.97-0.75
		c-0.27-0.17-0.55-0.35-0.85-0.52c-0.3-0.17-0.6-0.36-0.89-0.55c-0.29-0.19-0.55-0.37-0.75-0.53c-0.21-0.16-0.72-0.63-1.53-1.41"/>
	<path id="STROKE_15b97294-347b-41b2-be24-b6893eaa29c3" class="st20" d="M204.32,670.44l-0.31-0.41c-0.91-0.48-1.37-0.76-1.38-0.83
		c-0.31-0.36-0.46-0.56-0.46-0.6c0-0.04-0.58-0.85-1.73-2.44c-1.16-1.58-2.01-3.15-2.58-4.69c-0.56-1.54-0.9-2.75-1.02-3.61
		c-0.12-0.87-0.09-2,0.09-3.4c0.17-1.4,0.87-2.88,2.08-4.44c1.21-1.56,2.44-2.78,3.68-3.67c1.24-0.89,2.2-1.4,2.89-1.52
		c0.68-0.12,1.79-0.08,3.32,0.14c1.53,0.21,2.77,0.44,3.73,0.67c0.95,0.23,1.62,0.43,1.99,0.59c0.37,0.16,0.97,0.74,1.79,1.74
		c0.83,1,1.36,1.79,1.62,2.36c0.25,0.57,0.57,1.52,0.95,2.85c0.38,1.32,0.67,2.64,0.85,3.95c0.18,1.31,0.28,2.19,0.29,2.63
		s-0.05,1.06-0.16,1.84c-0.12,0.78-0.26,1.46-0.42,2.04c-0.16,0.58-0.48,1.3-0.94,2.15c-0.47,0.85-0.87,1.38-1.21,1.57
		c-0.34,0.2-0.57,0.32-0.69,0.37c-0.13,0.05-0.3,0.12-0.53,0.21c-0.23,0.09-3.14,0.55-8.72,1.38c-0.28-0.44-0.48-0.95-0.61-1.53"/>
</g>
<g>
	<path id="STROKE_ffc9e679-aa60-4c0a-8067-944ddc6eebec" class="st21" d="M136.18,497.07c-0.09-0.15-0.24-0.34-0.45-0.57
		c-0.2-0.23-0.47-0.36-0.81-0.4c-0.34-0.04-0.79,0.15-1.35,0.56c-0.56,0.4-1.26,1.1-2.1,2.08c-0.84,0.98-1.73,2.04-2.66,3.18
		c-0.93,1.14-3,4.18-6.2,9.12c-3.2,4.94-5.64,8.88-7.32,11.81c-1.68,2.94-3.04,5.42-4.09,7.45c-1.05,2.03-2.26,4.37-3.62,7.03
		c-1.36,2.66-2.84,6.02-4.42,10.08c-1.58,4.06-3.09,9.5-4.52,16.32c-1.43,6.81-2.52,12.75-3.28,17.82
		c-0.76,5.06-1.26,9.34-1.51,12.84s0.03,8.22,0.8,14.19c0.78,5.96,1.45,10.64,2.01,14.05c0.56,3.4,0.92,5.88,1.07,7.44
		c0.15,1.56,0.38,4.96,0.68,10.21c0.31,5.25,0.55,9.46,0.72,12.62c0.17,3.16,0.34,7.45,0.51,12.86c0.16,5.41,0.24,9.44,0.21,12.11
		c-0.02,2.67-0.19,6.19-0.5,10.58c-0.31,4.38-0.57,7.93-0.78,10.64c-0.21,2.71-0.67,6-1.36,9.87c-0.7,3.87-1.6,7.73-2.71,11.59
		c-1.11,3.86-2.09,7.03-2.93,9.51c-0.84,2.48-1.96,4.89-3.35,7.22c-1.39,2.33-2.56,3.97-3.49,4.93c-0.93,0.96-1.68,1.61-2.27,1.96
		c-0.58,0.35-1.03,0.53-1.36,0.56c-0.32,0.02-0.66,0-1.02-0.08c-0.35-0.07-0.72-0.14-1.09-0.21c-0.38-0.07-0.74-0.13-1.09-0.17
		c-0.35-0.04-0.56-0.06-0.62-0.06c-0.06,0-0.32,0-0.75,0.01c-0.44,0.01-1.13,0.27-2.09,0.78c-0.96,0.51-1.7,1.06-2.24,1.64
		c-0.53,0.58-0.97,1.13-1.3,1.64c-0.34,0.51-0.55,0.87-0.65,1.09c-0.1,0.22-0.25,0.62-0.44,1.2c-0.19,0.58-0.33,1.32-0.42,2.22
		s-0.03,1.94,0.16,3.12c0.19,1.18,1.06,1.99,2.6,2.43s2.84,0.54,3.92,0.31c1.07-0.24,1.86-0.55,2.36-0.93
		c0.5-0.38,0.77-0.61,0.81-0.68c0.05-0.07,0.1-0.12,0.17-0.16c0.07-0.04,0.46-0.63,1.16-1.78c0.7-1.14,1.17-2.09,1.42-2.83
		c0.24-0.74,0.44-1.41,0.58-2.02c0.15-0.61,0.24-1.35,0.27-2.24c0.04-0.09-0.57-0.67-1.81-1.75c-1.24-1.08-2.89-2.09-4.93-3.03"/>
	<path id="STROKE_ffda43a1-709d-4281-ab1b-7d6f894512d2" class="st22" d="M139.23,498.58c-0.67-0.97-1.07-1.56-1.21-1.76
		c-0.14-0.21-0.74-0.85-1.8-1.92c-1.06-1.07-2.13-2.3-3.21-3.68s-1.76-2.95-2.04-4.7c-0.28-1.76-0.35-3.13-0.22-4.11
		c0.13-0.98,0.28-1.64,0.43-1.96c0.15-0.33,0.41-0.75,0.77-1.27c0.36-0.52,0.8-1.05,1.33-1.59c0.52-0.54,1.17-1.13,1.93-1.78
		c0.76-0.64,1.52-1.2,2.27-1.69c0.75-0.48,1.74-0.81,2.98-0.99c1.23-0.18,2.3-0.19,3.22-0.05c0.92,0.14,1.97,0.5,3.17,1.08
		c1.2,0.58,2.12,1.27,2.78,2.09c0.66,0.81,1.29,1.77,1.9,2.86c0.61,1.09,1.02,2.43,1.22,4.01c0.2,1.58,0.28,2.83,0.22,3.75
		c-0.05,0.92-0.3,1.82-0.74,2.71c-0.44,0.89-1.74,1.76-3.91,2.61c-2.16,0.85-4.15,1.41-5.97,1.68c-1.82,0.27-3.73,0.25-5.75-0.08
		l-0.22-0.18"/>
</g>
<g>
	<path id="STROKE_0e08de45-ffff-43a8-ae82-2dfbe48d3cf8" class="st23" d="M136.98,87.41c-0.09,0-0.42-0.08-0.99-0.24
		c-0.58-0.16-1.81,1.17-3.69,3.98s-3.52,5.88-4.91,9.2s-2.44,5.97-3.16,7.96c-0.72,1.99-1.49,4.59-2.31,7.8
		c-0.82,3.21-1.4,5.75-1.74,7.61c-0.34,1.86-0.66,3.74-0.96,5.64c-0.3,1.9-0.64,6.59-1.02,14.09c-0.38,7.5-0.61,13.24-0.7,17.23
		c-0.09,3.99-0.16,7.21-0.2,9.67c-0.04,2.45,0.3,5.78,1.02,9.97c0.72,4.19,1.75,8.06,3.09,11.6c1.34,3.54,2.4,6.17,3.17,7.89
		c0.77,1.71,3.41,6.16,7.9,13.33c4.49,7.17,8.12,12.88,10.89,17.14c2.76,4.25,4.85,7.35,6.26,9.3c1.41,1.95,2.57,3.54,3.49,4.77
		c0.92,1.23,2.5,3.67,4.74,7.31c2.24,3.64,4.01,6.77,5.3,9.39c1.29,2.62,2.9,5.81,4.81,9.57c1.92,3.76,3.54,7.48,4.89,11.16
		c1.34,3.69,2.32,6.72,2.94,9.09c0.62,2.37,1.09,4.22,1.41,5.54c0.32,1.32,0.78,3.78,1.39,7.37c0.6,3.59,0.98,7.35,1.12,11.3
		c0.14,3.95-0.01,8-0.45,12.15c-0.44,4.15-0.83,7.41-1.17,9.76c-0.34,2.35-0.55,4.26-0.62,5.74l0,0.01
		c-0.23-0.09-0.37-0.1-0.42-0.03l-0.52-0.03c-0.02-0.01-0.63,0.05-1.84,0.18c-1.2,0.13-2.33,0.58-3.37,1.35
		c-1.04,0.77-1.74,1.47-2.09,2.09c-0.35,0.62-0.6,1.63-0.76,3.03c-0.15,1.4-0.15,2.76,0,4.07c0.15,1.31,0.74,2.49,1.77,3.54
		c1.02,1.05,2.33,1.7,3.9,1.96c1.58,0.26,2.8,0.35,3.67,0.26c0.86-0.09,1.82-0.6,2.87-1.53c1.05-0.93,1.81-1.76,2.27-2.5
		c0.47-0.74,0.91-1.86,1.32-3.36c0.41-1.5,0.6-2.77,0.56-3.8c-0.04-1.04-0.22-1.79-0.55-2.27c-0.33-0.48-0.65-0.86-0.97-1.14
		c-0.32-0.28-0.78-0.62-1.38-1.04c-0.6-0.42-1.25-0.81-1.93-1.19c-0.68-0.38-1.11-0.61-1.29-0.69c-0.18-0.08-0.65-0.19-1.41-0.33
		l-0.32,0.19"/>
	<path id="STROKE_51cc250e-8486-4c7c-a160-51915c458dee" class="st24" d="M139.23,88.86l-0.37-1.15c-1.45-0.36-2.23-0.55-2.35-0.57
		c-0.11-0.02-0.79-0.5-2.03-1.43s-2.19-2.3-2.85-4.11c-0.66-1.81-0.9-3.42-0.72-4.84c0.17-1.41,0.44-2.48,0.8-3.22
		c0.36-0.73,0.69-1.28,0.98-1.64c0.29-0.36,0.73-0.88,1.34-1.55c0.61-0.67,1.41-1.31,2.41-1.93c1-0.62,2.04-1.08,3.13-1.39
		c1.09-0.3,2-0.33,2.75-0.09s1.49,0.88,2.25,1.9c0.76,1.03,1.33,2.1,1.72,3.23c0.39,1.13,0.64,2.26,0.76,3.4
		c0.12,1.14-0.03,2.25-0.43,3.33c-0.41,1.08-0.8,1.88-1.19,2.4c-0.39,0.52-0.78,0.97-1.18,1.35c-0.4,0.38-0.66,0.61-0.76,0.7
		c-0.1,0.09-0.38,0.21-0.83,0.39s-0.8,0.22-1.05,0.14c-0.25-0.08-0.58-0.33-0.99-0.74c-0.41-0.41-0.68-0.73-0.8-0.94
		c-0.12-0.21-0.32-0.54-0.6-0.99c-0.28-0.45-0.76-1.07-1.45-1.85"/>
</g>
<g>
	<path id="STROKE_70c023f1-3e96-41db-adb8-51105a78279b" class="st25" d="M1181.09,505.32c-0.56,0.6-2.02,4.62-4.38,12.06
		c-2.37,7.44-4.13,13.16-5.29,17.15c-1.16,3.99-2.1,6.93-2.85,8.82c-0.74,1.89-1.62,4.1-2.65,6.65c-1.03,2.54-2.71,7.27-5.05,14.17
		s-4.41,12.73-6.23,17.47c-1.81,4.74-3.31,8.23-4.49,10.48c-1.18,2.25-2.45,4.81-3.8,7.68s-3.67,6.69-6.96,11.47
		c-3.29,4.78-6.32,8.9-9.09,12.38c-2.78,3.47-5,6.42-6.69,8.83c-1.68,2.42-3.32,4.56-4.91,6.42c-1.59,1.86-3.36,3.76-5.3,5.68
		c-1.94,1.92-3.77,3.71-5.47,5.37s-3.78,3.71-6.23,6.15c-2.45,2.44-4.71,4.48-6.8,6.11c-2.09,1.63-3.78,2.88-5.08,3.75
		c-1.3,0.86-2.91,2.05-4.83,3.55c-1.92,1.5-4.62,3.41-8.12,5.74c-3.49,2.33-6.42,4.06-8.78,5.2c-2.36,1.14-6.13,3.05-11.3,5.72
		c-5.17,2.67-9.45,4.82-12.82,6.47c-3.38,1.65-5.97,2.99-7.78,4.03c-1.81,1.04-4.76,2.52-8.84,4.44c-4.08,1.92-7.32,3.48-9.72,4.68
		c-2.39,1.2-4.36,2.22-5.89,3.04c-1.54,0.83-3.48,1.9-5.84,3.21c-2.35,1.31-4.29,2.53-5.81,3.67c-1.52,1.13-2.91,2.47-4.18,4.02
		c-1.27,1.55-2.19,3.48-2.75,5.8c-0.56,2.32-0.8,4.59-0.73,6.82c0.07,2.23,0.12,4,0.14,5.32c0.03,1.31,0.19,2.35,0.48,3.11
		c0.29,0.76,0.86,1.49,1.7,2.19c-0.04-0.13-0.08-0.2-0.1-0.19c-0.18-0.28-2.41-0.34-6.67-0.2c-4.26,0.14-8.54-0.16-12.84-0.93
		c-0.08-0.18-0.19-0.96-0.33-2.35c-0.14-1.39-0.04-2.77,0.3-4.13c0.34-1.37,0.68-2.27,1.04-2.71c0.35-0.44,0.8-0.78,1.35-1.01
		c0.54-0.23,1.64-0.36,3.29-0.39c1.65-0.03,3.1,0,4.36,0.1c1.26,0.09,2.04,0.2,2.33,0.32c0.3,0.12,1.05,0.58,2.27,1.38
		s2.12,1.43,2.71,1.9s0.96,0.76,1.11,0.88c0.15,0.12,0.86,0.81,2.13,2.06c1.27,1.26,2.04,2.37,2.3,3.35
		c0.26,0.98,0.28,1.93,0.05,2.87c-0.23,0.94-0.47,1.59-0.73,1.95c-0.26,0.36-0.59,0.7-0.97,1.03c-0.39,0.33-0.66,0.54-0.84,0.63
		c-0.17,0.09-0.29,0.16-0.36,0.19c-0.07,0.03-0.74,0.1-2.02,0.2c-1.28,0.1-2.33,0.1-3.15,0c-0.82-0.1-1.49-0.28-2-0.54
		s-0.88-0.49-1.08-0.68c-0.2-0.19-0.51-0.81-0.94-1.85"/>
	<path id="STROKE_149deb94-60f6-4020-8078-40e2df40152a" class="st26" d="M1180.84,504.52c-0.47,0.57-0.88,1.01-1.23,1.31
		c-0.35,0.31-0.61,0.48-0.77,0.52c-0.16,0.04-0.36,0.01-0.59-0.1c-0.23-0.11-0.36-0.17-0.38-0.2c-0.02-0.03-0.27-0.33-0.73-0.91
		c-0.46-0.58-0.7-0.87-0.72-0.89c0-0.07-0.51-0.72-1.54-1.93c-1.03-1.21-1.87-2.85-2.53-4.91c-0.66-2.06-0.89-3.84-0.68-5.34
		c0.21-1.5,0.53-2.64,0.98-3.41c0.44-0.77,1.29-1.8,2.54-3.09c1.25-1.28,2.39-2.17,3.4-2.66c1.02-0.49,1.98-0.86,2.89-1.1
		c0.91-0.25,1.89-0.4,2.95-0.44c1.06-0.05,2.19,0.15,3.38,0.61c1.19,0.45,2.15,1.13,2.87,2.02c0.72,0.9,1.29,1.78,1.7,2.66
		c0.41,0.87,0.71,1.82,0.89,2.85c0.19,1.03,0.1,1.94-0.26,2.74c-0.36,0.8-0.97,1.74-1.84,2.83c-0.87,1.09-2.02,2.61-3.47,4.56
		c-1.45,1.95-2.71,3.5-3.78,4.66s-1.91,1.92-2.51,2.3c-0.6,0.37-1.49,0.62-2.67,0.75c-1.18,0.13-2.11,0.09-2.8-0.11
		c-0.69-0.2-1.22-0.44-1.6-0.72c-0.38-0.28-0.77-0.81-1.17-1.59c-0.4-0.78-0.66-1.41-0.79-1.92c-0.12-0.5-0.31-1.24-0.55-2.22"/>
</g>
<g>
	<path id="STROKE_865d15a9-da2c-4c1b-b951-cb964b839e05" class="st27" d="M860.08,769.72c0.89-0.11,3.67-0.93,8.34-2.48
		c4.67-1.54,10.75-2.2,18.23-1.97c0.65,0.65,0.27,2.3-1.15,4.94c-1.42,2.64-3.48,5.83-6.18,9.56c-2.71,3.73-5.05,6.87-7.02,9.43
		c-1.98,2.56-3.91,5.34-5.82,8.33c-1.9,2.99-3.94,6.01-6.12,9.04c-2.17,3.04-4.09,5.39-5.74,7.06c-1.65,1.67-4.07,4.19-7.27,7.57
		c-3.2,3.38-7.04,6.74-11.52,10.08c-4.48,3.34-8.11,5.87-10.89,7.59c-2.78,1.72-5.04,3.06-6.76,4.03c-1.72,0.97-4.67,2.17-8.84,3.6
		c-4.17,1.43-8.24,2.7-12.21,3.78s-7.7,1.81-11.2,2.16c-3.5,0.35-6.42,0.56-8.76,0.62c-2.35,0.06-5.19-0.33-8.54-1.19
		c-3.34-0.85-6.41-1.84-9.19-2.94c-2.78-1.11-5.73-1.91-8.84-2.41c-3.11-0.5-5.46-0.78-7.04-0.85c-1.58-0.07-2.7-0.28-3.36-0.64
		s-1.09-0.68-1.3-0.95c-0.21-0.27-0.38-0.5-0.52-0.69c-0.71-0.14-1.34-0.09-1.89,0.14c-0.56,0.24-1.06,0.53-1.49,0.89
		c-0.44,0.36-1.13,1.02-2.09,1.99c-0.96,0.97-1.83,2.31-2.62,4.02c-0.79,1.71-1.22,3.11-1.29,4.2c-0.07,1.09-0.04,1.91,0.08,2.45
		s0.38,1.11,0.75,1.71c0.37,0.6,1.18,1.17,2.42,1.74c1.24,0.56,2.56,0.82,3.95,0.79c1.39-0.04,2.36-0.23,2.92-0.56
		c0.56-0.34,1.1-0.79,1.61-1.36s0.95-1.46,1.3-2.69c0.35-1.22,0.53-2.15,0.53-2.77c0-0.62-0.02-1.07-0.08-1.34
		c-0.05-0.27-0.11-0.49-0.18-0.65c-0.07-0.17-0.18-0.42-0.32-0.76c-0.15-0.34-0.22-0.53-0.24-0.55c-0.01-0.03-0.25-0.65-0.71-1.89
		c-0.46-1.23-0.85-2.27-1.17-3.11c-0.32-0.84-0.69-1.79-1.11-2.85c-0.42-1.06-0.76-1.79-1.03-2.18c-0.27-0.39-0.54-0.66-0.82-0.8
		c-0.27-0.14-0.77-0.04-1.48,0.3"/>
	<path id="STROKE_47e2539b-90dd-4954-aa2c-b40a7c891059" class="st28" d="M887.18,766.86c-0.29-0.03-0.44-0.05-0.45-0.05
		c-0.01,0-0.19-0.06-0.55-0.18c-0.03-0.11-0.12-0.44-0.24-1.01c-0.13-0.57-0.39-1.21-0.79-1.94c-0.4-0.73-0.7-1.26-0.9-1.6
		c-0.2-0.34-0.33-0.58-0.39-0.73c-0.06-0.15-0.17-0.6-0.32-1.36c-0.15-0.76,0.17-1.71,0.97-2.86c0.8-1.15,1.71-2.16,2.75-3.05
		c1.04-0.89,2.12-1.51,3.26-1.88s2.13-0.53,2.99-0.5c0.86,0.03,1.43,0.12,1.73,0.28c0.3,0.16,0.98,0.53,2.03,1.13
		c1.05,0.6,2.03,1.05,2.93,1.34c0.9,0.3,1.71,0.62,2.44,0.98c0.73,0.35,1.17,0.81,1.33,1.36c0.16,0.56,0.21,1.02,0.13,1.38
		c-0.08,0.36-0.21,0.71-0.39,1.04s-0.58,0.83-1.18,1.49c-0.61,0.66-1.36,1.35-2.27,2.06c-0.91,0.71-1.63,1.24-2.17,1.6
		s-1.22,0.7-2.04,1.01c-0.82,0.32-1.35,0.49-1.59,0.53c-0.25,0.04-0.78-0.26-1.6-0.89c-0.82-0.63-1.45-1.16-1.89-1.59
		s-0.92-0.81-1.45-1.12c-0.53-0.31-2.14-0.61-4.85-0.89"/>
</g>
<g>
	<path id="STROKE_fb1c116a-18b2-4ba4-921b-f2cfd685cb79" class="st29" d="M1187.05,39.86c0-0.02-0.09-0.2-0.25-0.54
		c-0.17-0.33-0.45-0.64-0.86-0.93c-0.41-0.29-1.33-0.18-2.79,0.31c-1.45,0.5-2.95,1.23-4.51,2.2c-1.55,0.97-3.24,2-5.06,3.11
		c-1.82,1.1-3.78,3.01-5.89,5.72s-4.13,5.9-6.05,9.56c-1.93,3.66-3.35,6.47-4.27,8.4c-0.92,1.94-1.75,4.68-2.5,8.21
		c-0.75,3.53-1.16,7.24-1.23,11.11c-0.08,3.87-0.06,7,0.03,9.37c0.1,2.37,0.85,5.41,2.25,9.12c1.4,3.7,2.7,7.77,3.88,12.2
		c1.18,4.43,2.58,9.14,4.19,14.14c1.61,4.99,2.96,9.56,4.06,13.7c1.09,4.14,2.01,8.1,2.75,11.88c0.74,3.78,1.35,8.98,1.83,15.6
		c0.48,6.62,0.71,11.84,0.71,15.67c-0.01,3.83-0.03,7.05-0.07,9.67c-0.04,2.62-1.07,6.66-3.09,12.13
		c-2.02,5.47-3.84,9.79-5.47,12.97c-1.63,3.18-2.86,5.55-3.7,7.13c-0.83,1.58-2.54,3.62-5.13,6.12c-2.58,2.5-4.91,4.43-6.97,5.78
		c-2.06,1.35-3.83,2.38-5.3,3.09l0-0.01c0,0-0.25-0.42-0.75-1.27c-0.49-0.85-1.22-1.57-2.19-2.18c-0.97-0.6-1.96-1.08-2.99-1.43
		c-1.03-0.35-2.14-0.53-3.36-0.54c-1.21-0.01-2.21,0.1-2.99,0.35c-0.78,0.25-1.31,0.48-1.6,0.7c-0.29,0.22-0.61,0.47-0.95,0.77
		c-0.34,0.29-0.85,1.19-1.53,2.68c-0.68,1.49-0.6,3.26,0.24,5.3c0.84,2.04,1.57,3.53,2.18,4.45c0.61,0.92,1.25,1.66,1.91,2.22
		c0.66,0.56,1.16,0.88,1.49,0.96c0.33,0.08,0.55,0.13,0.66,0.16c0.11,0.03,0.59,0.06,1.45,0.09c0.85,0.03,1.92-0.24,3.19-0.8
		c1.28-0.56,2.41-1.33,3.39-2.31c0.99-0.98,1.67-2.13,2.04-3.48c0.38-1.34,0.39-2.76,0.04-4.24c-0.35-1.48-1.27-2.97-2.76-4.45
		l-0.15-0.57"/>
	<path id="STROKE_cac75531-3c13-4521-91c9-892b4df28722" class="st30" d="M1188.57,39.46c-0.05-0.03-0.18-0.01-0.38,0.06
		c-0.2,0.07-0.69,0.03-1.47-0.13c-0.78-0.15-1.32-0.35-1.62-0.59c-0.3-0.24-0.54-0.51-0.73-0.82c-0.18-0.31-0.32-0.58-0.41-0.82
		c-0.08-0.23-0.15-0.79-0.2-1.68c-0.05-0.89,0.2-1.96,0.74-3.22c0.54-1.26,1.4-2.41,2.55-3.47c1.16-1.06,2.63-1.8,4.42-2.24
		c1.79-0.44,3.25-0.66,4.38-0.66c1.13-0.01,2.16,0.21,3.1,0.65c0.94,0.44,1.9,1.41,2.86,2.92c0.97,1.51,1.53,3.48,1.69,5.93
		c0.16,2.44,0.21,4.4,0.15,5.86c-0.06,1.46-0.44,2.65-1.14,3.56c-0.7,0.91-1.32,1.49-1.85,1.74c-0.54,0.25-1.14,0.45-1.82,0.59
		c-0.68,0.14-1.35,0.23-2.03,0.28c-0.67,0.05-1.14,0.07-1.41,0.06c-0.26-0.01-0.7,0-1.31,0.03s-1.33-0.03-2.16-0.16
		c-0.84-0.13-1.8-0.69-2.9-1.68c-1.09-0.99-1.84-3.05-2.23-6.17c-0.09,0-0.28,0.09-0.56,0.29"/>
</g>
</svg>
