<?xml version="1.0" encoding="utf-8"?>
<!-- Generator: Adobe Illustrator 28.0.0, SVG Export Plug-In . SVG Version: 6.00 Build 0)  -->
<svg version="1.1" id="Layer_1" xmlns="http://www.w3.org/2000/svg" xmlns:xlink="http://www.w3.org/1999/xlink" x="0px" y="0px"
	 viewBox="0 0 996 836.5" style="enable-background:new 0 0 996 836.5;" xml:space="preserve">
<style type="text/css">
	.st0{fill:none;stroke:#191815;stroke-width:3.281;stroke-linecap:round;stroke-linejoin:round;stroke-opacity:0.987;}
	.st1{fill:none;stroke:#191815;stroke-width:3.496;stroke-linecap:round;stroke-linejoin:round;stroke-opacity:0.994;}
	.st2{fill:none;stroke:#191815;stroke-width:3.515;stroke-linecap:round;stroke-linejoin:round;stroke-opacity:0.987;}
	.st3{fill:none;stroke:#191815;stroke-width:3.237;stroke-linecap:round;stroke-linejoin:round;stroke-opacity:0.996;}
	.st4{fill:none;stroke:#191815;stroke-width:3.68;stroke-linecap:round;stroke-linejoin:round;stroke-opacity:0.999;}
	.st5{fill:none;stroke:#191815;stroke-width:3.343;stroke-linecap:round;stroke-linejoin:round;stroke-opacity:0.999;}
	.st6{fill:none;stroke:#191815;stroke-width:3.752;stroke-linecap:round;stroke-linejoin:round;stroke-opacity:0.999;}
	.st7{fill:none;stroke:#191815;stroke-width:3.35;stroke-linecap:round;stroke-linejoin:round;stroke-opacity:0.992;}
	.st8{fill:none;stroke:#191815;stroke-width:3.329;stroke-linecap:round;stroke-linejoin:round;stroke-opacity:0.913;}
	.st9{fill:none;stroke:#191815;stroke-width:3.315;stroke-linecap:round;stroke-linejoin:round;stroke-opacity:0.977;}
	.st10{fill:none;stroke:#191815;stroke-width:3.336;stroke-linecap:round;stroke-linejoin:round;stroke-opacity:0.995;}
	.st11{fill:none;stroke:#191815;stroke-width:3.29;stroke-linecap:round;stroke-linejoin:round;stroke-opacity:0.997;}
	.st12{fill:none;stroke:#191815;stroke-width:3.314;stroke-linecap:round;stroke-linejoin:round;stroke-opacity:0.994;}
	.st13{fill:none;stroke:#191815;stroke-width:3.306;stroke-linecap:round;stroke-linejoin:round;stroke-opacity:0.994;}
	.st14{fill:none;stroke:#191815;stroke-width:3.259;stroke-linecap:round;stroke-linejoin:round;stroke-opacity:0.994;}
	.st15{fill:none;stroke:#191815;stroke-width:3.386;stroke-linecap:round;stroke-linejoin:round;stroke-opacity:0.998;}
	.st16{fill:none;stroke:#191815;stroke-width:3.462;stroke-linecap:round;stroke-linejoin:round;stroke-opacity:0.996;}
	.st17{fill:none;stroke:#191815;stroke-width:3.495;stroke-linecap:round;stroke-linejoin:round;stroke-opacity:0.997;}
	.st18{fill:none;stroke:#191815;stroke-width:3.426;stroke-linecap:round;stroke-linejoin:round;stroke-opacity:0.994;}
	.st19{fill:none;stroke:#191815;stroke-width:3.589;stroke-linecap:round;stroke-linejoin:round;stroke-opacity:0.996;}
	.st20{fill:none;stroke:#191815;stroke-width:3.387;stroke-linecap:round;stroke-linejoin:round;}
	.st21{fill:none;stroke:#191815;stroke-width:3.553;stroke-linecap:round;stroke-linejoin:round;}
	.st22{fill:none;stroke:#191815;stroke-width:3.563;stroke-linecap:round;stroke-linejoin:round;}
	.st23{fill:none;stroke:#191815;stroke-width:3.544;stroke-linecap:round;stroke-linejoin:round;stroke-opacity:0.998;}
	.st24{fill:none;stroke:#191815;stroke-width:3.56;stroke-linecap:round;stroke-linejoin:round;stroke-opacity:0.998;}
</style>
<path id="STROKE_189b5e0a-b4d3-47ac-ad23-7e7e47fc50ed" class="st0" d="M39.93,151.27c0.02,0.01-0.24-0.17-0.78-0.54
	c-0.54-0.38-1.05-0.64-1.52-0.79c-0.47-0.15-0.88-0.22-1.21-0.21c-0.34,0.01-0.69,0.07-1.06,0.18c-0.37,0.11-0.6,0.21-0.68,0.28
	c-0.08,0.07-0.22,0.17-0.43,0.3c-0.21,0.13-0.84,0.98-1.89,2.55c-1.05,1.57-1.95,3.22-2.7,4.95c-0.74,1.73-1.42,3.95-2.04,6.66
	c-0.61,2.71-0.96,5.08-1.05,7.1c-0.09,2.02-0.11,3.91-0.07,5.67c0.04,1.75,0.51,3.74,1.42,5.95c0.9,2.22,2.03,4.2,3.38,5.96
	c1.35,1.76,4.98,2.83,10.88,3.23l0.01,0.02c0.05,0.9,0.35,2.8,0.89,5.71c0.55,2.91,1.29,5.53,2.23,7.85
	c0.94,2.32,1.84,4.16,2.69,5.52c0.85,1.36,1.8,2.64,2.84,3.84c1.04,1.2,2.39,2.27,4.03,3.21c1.64,0.94,3.6,1.5,5.87,1.67
	c2.27,0.18,4.26,0.23,5.97,0.17c1.7-0.06,3.45-0.9,5.24-2.51c1.79-1.61,3.09-3.38,3.89-5.31l-0.08,0.02c0,0.48,0.01,0.73,0.05,0.75
	c0.07,0.22,0.17,0.44,0.27,0.65c0.11,0.22,0.76,1.01,1.95,2.37c1.19,1.36,2.76,2.55,4.71,3.58c1.95,1.03,3.52,1.77,4.71,2.23
	c1.19,0.46,2.62,0.85,4.28,1.17c1.66,0.32,3.25,0.52,4.78,0.61c1.52,0.09,3.07-0.11,4.63-0.6c1.57-0.49,2.77-0.98,3.6-1.49
	c0.83-0.5,1.49-0.94,1.97-1.32c0.48-0.38,1.24-1.11,2.28-2.21c1.04-1.1,2.21-2.6,3.49-4.52c1.28-1.92,2.47-6.06,3.57-12.43
	c0-0.02,0.02,0,0.05,0.05c0.03,0.05,0.23,0.18,0.59,0.39c0.36,0.2,0.87,0.39,1.55,0.55c0.68,0.16,1.36,0.25,2.05,0.26
	c0.69,0.01,1.32-0.05,1.91-0.18c0.58-0.13,1.19-0.31,1.82-0.55c0.63-0.24,2.04-1.17,4.23-2.79c2.19-1.62,4.42-3.71,6.68-6.27
	c2.27-2.56,4.34-5.65,6.22-9.28c1.88-3.63,3.46-6.99,4.74-10.09c1.28-3.1,1.78-8.77,1.5-17.01l-0.02-0.05
	c0.02-0.7,0.57-2.43,1.65-5.19c1.08-2.76,1.88-6.01,2.41-9.75c0.53-3.74,0.77-6.98,0.75-9.73c-0.03-2.75-0.44-5.48-1.24-8.19
	c-0.8-2.71-1.63-5.07-2.5-7.07c-0.87-2-1.93-4.01-3.21-6.04c-1.27-2.03-2.37-3.48-3.29-4.37c-0.92-0.89-1.68-1.41-2.27-1.58
	c-0.59-0.17-1.31,0.09-2.16,0.77c-0.85,0.68-1.33,1.96-1.42,3.84c0.55,0.15,0.96-0.61,1.24-2.29c0.28-1.68,0.33-3.26,0.16-4.71
	c-0.17-1.46-0.72-3.05-1.65-4.79c-0.93-1.74-2.58-3.54-4.95-5.4c-2.38-1.87-4.39-3.3-6.05-4.29c-1.66-0.99-3.5-1.88-5.51-2.67
	c-2.01-0.79-4.3-1.37-6.85-1.75c-2.55-0.38-5.24-0.38-8.08,0.02c-2.83,0.39-5.5,1.15-7.99,2.26c-2.49,1.11-4.62,2.38-6.39,3.79
	c-1.77,1.41-3.07,2.67-3.91,3.76c-0.84,1.1-1.44,1.96-1.79,2.6c-0.35,0.64-0.66,1.28-0.92,1.93s-0.42,1.34-0.48,2.07
	c0.11,0.03,0.16,0.04,0.15,0.05c0,0,0.05-0.07,0.15-0.21c0.1-0.15,0.18-0.37,0.22-0.68c0.04-0.31,0.03-0.7-0.04-1.17
	c-0.07-0.47-0.73-1.19-1.99-2.15c-1.26-0.96-3.31-1.65-6.14-2.06c-2.83-0.41-5.61-0.4-8.34,0.02c-2.72,0.43-4.9,0.99-6.53,1.7
	c-1.63,0.7-3.02,1.39-4.18,2.07c-1.16,0.68-2.35,1.44-3.56,2.3c-1.22,0.86-2.71,2.24-4.48,4.17c-1.77,1.92-3.24,4.14-4.41,6.66
	c-1.17,2.52-1.96,4.55-2.37,6.1c-0.41,1.55-0.73,3.56-0.96,6.02c-0.23,2.46,0.08,4.93,0.94,7.43c-0.14,0.06-0.59,0.2-1.33,0.41
	c-0.74,0.21-1.57,0.84-2.49,1.89c-0.91,1.05-1.57,2.5-1.96,4.35c-0.39,1.85-0.57,3.55-0.54,5.11s0.21,2.9,0.53,4.02
	c0.32,1.11,0.66,2.01,1,2.68c0.34,0.67,1.64,1.85,3.9,3.55c2.26,1.69,4.87,3.95,7.85,6.78"/>
<path id="STROKE_54df079b-e1ba-432b-9632-d368c567a3d6" class="st1" d="M48.54,368.42c-0.5-0.59-1.6-2.24-3.3-4.95
	c-0.14-0.05-0.3,1.45-0.47,4.5c-0.18,3.04,0.03,6.38,0.63,10.01c0.6,3.63,1.15,6.4,1.68,8.31c0.52,1.91,1.15,3.6,1.89,5.09
	c0.74,1.49,1.34,2.62,1.8,3.4c0.47,0.78,1.49,1.74,3.07,2.88c1.58,1.14,3.24,1.41,4.96,0.82c1.73-0.59,3.57-1.57,5.54-2.93
	c1.97-1.36,4.87-6.06,8.7-14.09c0.07,0,0.19,0.04,0.35,0.14s0.6,0.62,1.32,1.56c0.72,0.94,1.65,1.88,2.78,2.82
	c1.13,0.94,2.06,1.56,2.8,1.86c0.74,0.3,1.81,0.6,3.21,0.9c1.4,0.3,3.27,0.16,5.61-0.4c2.34-0.56,5.02-2.59,8.05-6.09
	c3.03-3.5,5.31-6.36,6.84-8.6c1.54-2.24,2.92-4.05,4.16-5.45c1.23-1.4,2.52-2.59,3.87-3.58c1.34-0.99,3.14-1.49,5.37-1.5
	c2.24-0.01,4.32,0.1,6.24,0.34c1.92,0.24,3.63,0.3,5.15,0.18c1.51-0.12,3.09-0.7,4.71-1.74c1.63-1.04,2.94-2.06,3.93-3.05
	c0.99-0.99,2.37-3.38,4.12-7.15c1.75-3.78,3-7.16,3.75-10.14c0.75-2.98,1.31-5.44,1.68-7.37c0.37-1.93,0.32-3.85-0.13-5.75
	c-0.46-1.9-1.62-4.11-3.49-6.62c-1.87-2.51-3.01-4.24-3.42-5.2c-0.41-0.96-1.12-2.65-2.13-5.06c-1.01-2.42-2.34-4.73-3.99-6.95
	c-1.65-2.22-3.16-3.91-4.51-5.08c-1.36-1.17-2.8-2.19-4.33-3.07c-1.53-0.88-3.09-1.56-4.68-2.03c-1.59-0.47-3.01-0.57-4.26-0.28
	c-1.25,0.28-2.67,1.03-4.27,2.24c-1.6,1.21-3.78,4.87-6.56,10.97c-0.07-0.21-0.99-1.43-2.78-3.68c-1.78-2.25-3.81-4.28-6.06-6.11
	c-2.26-1.83-4.88-3.33-7.86-4.49c-2.98-1.17-5.69-1.95-8.11-2.35c-2.42-0.4-4.53-0.53-6.32-0.38c-1.79,0.15-3.87,1.02-6.22,2.62
	c-2.35,1.6-4.28,3.16-5.77,4.68c-1.49,1.52-2.91,3.35-4.26,5.51c-1.35,2.15-2.87,7.09-4.57,14.83c-0.11,0.15-1.28-0.17-3.5-0.96
	c-2.22-0.79-4.66-1.28-7.32-1.47c-2.66-0.19-4.82-0.22-6.47-0.08c-1.66,0.14-3.24,0.59-4.75,1.35c-1.51,0.76-2.89,2.02-4.15,3.77
	c-1.26,1.76-2.26,3.89-3.01,6.39c-0.75,2.5-1.35,4.95-1.82,7.34c-0.46,2.39-0.78,5-0.95,7.85c-0.17,2.85-0.18,5.12-0.04,6.84
	c0.14,1.71,0.46,3.32,0.96,4.83c0.5,1.51,1.43,2.7,2.79,3.57c1.36,0.87,3.44,1.66,6.24,2.35c0.32,0.7,0.47,1.57,0.43,2.6
	s0.04,1.96,0.24,2.77c0.2,0.81,0.45,1.39,0.78,1.73c0.32,0.34,3.07,2.02,8.24,5.03"/>
<path id="STROKE_c483323a-9085-4321-8b1e-1c4ffee3677f" class="st2" d="M69.86,530.19c0.25,0.12-0.49-0.44-2.21-1.67
	c-0.3,0.08-1.24,0.98-2.82,2.69c-1.58,1.71-2.87,3.47-3.88,5.27c-1,1.8-1.64,3.99-1.9,6.57c-0.26,2.58-0.21,5,0.15,7.28
	c0.37,2.27,1.13,4.58,2.28,6.91c1.15,2.33,2.46,4.59,3.94,6.78s3.35,4.32,5.61,6.39c2.26,2.08,4.5,3.62,6.71,4.62
	c2.22,1,3.95,1.66,5.2,1.99c1.25,0.33,2.66,0.51,4.23,0.55c1.57,0.04,3.03,0,4.37-0.12c1.35-0.12,2.6-0.62,3.78-1.5
	c1.17-0.88,2.1-1.72,2.8-2.52c0.69-0.8,1.59-2.56,2.7-5.27c1.11-2.71,1.84-6.85,2.21-12.41c-0.01-0.03-0.02,0.03-0.03,0.19
	s0.32,0.58,0.98,1.28c0.66,0.69,1.88,1.48,3.65,2.35c1.77,0.88,3.85,1.52,6.22,1.94c2.38,0.42,5.14,0.28,8.28-0.41
	c3.14-0.69,5.57-1.42,7.28-2.18c1.71-0.76,3.83-1.67,6.35-2.73c2.52-1.06,5.07-2.3,7.66-3.72c2.59-1.42,4.72-2.91,6.4-4.47
	c1.68-1.56,3.26-3.47,4.74-5.74c1.48-2.27,2.6-4.87,3.35-7.79c0.75-2.92,1.26-5.29,1.52-7.11c0.26-1.82,0.46-3.36,0.6-4.61
	c0.14-1.25,0.26-2.72,0.37-4.4c0.11-1.68,0.3-3,0.56-3.94c0.26-0.95,0.48-1.56,0.65-1.84c0.18-0.28,0.42-0.57,0.74-0.86
	c0.32-0.29,0.82-0.47,1.51-0.55c0.69-0.08,1.3-0.12,1.85-0.14c0.54-0.01,0.94-0.08,1.2-0.19c0.26-0.11,0.47-0.26,0.65-0.46
	c0.17-0.2,0.45-1.02,0.83-2.48c0.38-1.46,0.56-3.38,0.54-5.77s-0.13-4.35-0.32-5.87c-0.19-1.52-0.96-3.91-2.3-7.17
	c-1.34-3.26-2.62-5.89-3.83-7.89s-2.66-4.04-4.34-6.11c-1.68-2.07-3.53-3.96-5.55-5.68c-2.02-1.72-4.12-3.3-6.29-4.73
	c-2.17-1.43-4.19-2.51-6.04-3.22c-1.86-0.71-3.5-1.13-4.92-1.26c-1.42-0.13-2.78,0.08-4.07,0.62c-1.29,0.54-2.49,1.46-3.6,2.76
	c-1.11,1.3-1.92,2.66-2.44,4.09c-0.52,1.43-0.79,3.67-0.81,6.7c-0.02,3.03,0.09,4.79,0.34,5.27c0.25,0.48,0.52,0.74,0.82,0.78
	c0.3,0.04,0.57-0.02,0.81-0.19c0.24-0.17,0.48-0.77,0.71-1.82c0.23-1.05,0.03-2.36-0.61-3.95c-0.64-1.58-1.23-2.79-1.75-3.63
	c-0.53-0.84-1.61-1.98-3.25-3.44c-1.64-1.45-3.45-2.79-5.44-4.01c-1.99-1.22-4.79-2.5-8.41-3.85c-3.62-1.35-6.78-2.36-9.46-3.06
	c-2.68-0.69-5.13-1.09-7.32-1.21c-2.2-0.11-4.27,0.19-6.23,0.9s-3.83,1.83-5.62,3.36c-1.79,1.53-3.36,3.3-4.71,5.3
	c-1.35,2-2.4,4-3.17,6.02c-0.77,2.02-1.25,5.08-1.46,9.2c-0.21,4.11-0.31,7.45-0.31,10.01c0,2.56,0.19,4.81,0.55,6.74
	c0.36,1.93,0.89,3.52,1.57,4.76c0.68,1.24,1.51,2.16,2.49,2.76c0.98,0.6,2.03,0.85,3.15,0.76c0.15-0.45-0.62-1.28-2.33-2.49
	c-1.71-1.21-3.85-1.96-6.43-2.27c-2.58-0.31-4.66-0.46-6.26-0.47c-1.59-0.01-3.21,0.26-4.86,0.82c-1.64,0.56-3.21,1.52-4.71,2.87
	c-1.5,1.36-2.73,3.07-3.7,5.15c-0.97,2.08-1.54,4.57-1.73,7.47c-0.18,2.91,0.03,5.75,0.65,8.54c0.62,2.79,1.23,4.81,1.85,6.05
	s1.21,2.38,1.77,3.41c0.57,1.03,1.3,2.33,2.22,3.89c0.91,1.56,3.22,3.46,6.93,5.68c3.71,2.22,6.91,3.94,9.6,5.15
	c2.69,1.21,5.85,3.43,9.49,6.66"/>
<path id="STROKE_544b3e9e-41c4-4e1e-b60d-8354c39db89d" class="st3" d="M72.17,733.69l-0.11,0.09c-0.14,0.14-1.99-0.28-5.55-1.26
	c-3.55-0.98-6.32-1.89-8.3-2.74c-1.98-0.85-3.39-1.54-4.24-2.06c-0.85-0.52-1.78-1.4-2.8-2.65c-1.02-1.24-1.69-3.39-2.03-6.45
	c-0.33-3.06-0.41-5.87-0.24-8.45c0.17-2.58,0.67-4.98,1.48-7.2c0.81-2.22,1.71-4.13,2.69-5.71c0.98-1.58,1.74-2.65,2.29-3.22
	c0.55-0.56,1.11-0.99,1.68-1.28c0.57-0.29,1.17-0.5,1.8-0.63c0.63-0.13,1.31,0.03,2.06,0.47c0.75,0.44,1.22,0.88,1.43,1.32
	c0.2,0.44,0.34,0.75,0.41,0.94s0.13,0.48,0.18,0.9c-0.05-0.03-0.3-0.79-0.74-2.28c-0.44-1.48-0.28-3.64,0.47-6.47
	c0.75-2.83,1.71-5.32,2.88-7.47c1.17-2.15,2.47-3.99,3.9-5.5c1.43-1.51,2.96-2.81,4.58-3.89c1.62-1.08,3.59-1.77,5.89-2.07
	c2.3-0.3,4.32-0.37,6.05-0.23c1.73,0.15,3.41,0.67,5.03,1.58c1.62,0.9,3.04,2.12,4.27,3.65c1.23,1.53,2.19,3.72,2.88,6.58
	c0.69,2.85,0.76,5.69,0.22,8.5l-0.14-0.01c-0.03-0.73-0.04-1.1-0.03-1.12c0.12-0.62,0.53-1.7,1.24-3.26
	c0.71-1.55,1.45-2.71,2.24-3.47c0.79-0.76,1.65-1.34,2.58-1.73c0.93-0.39,1.93-0.64,3.01-0.74c1.07-0.1,2.13-0.16,3.18-0.17
	c1.05-0.02,2.19,0.07,3.44,0.27c1.24,0.2,2.97,0.82,5.16,1.87c2.2,1.05,4.57,2.51,7.12,4.38c2.55,1.87,4.45,3.46,5.71,4.76
	c1.25,1.3,2.24,2.42,2.95,3.34c0.71,0.93,1.42,2.03,2.12,3.31c0.7,1.28,1.19,2.82,1.49,4.63c0.3,1.8,0.3,3.45,0.02,4.94
	c-0.28,1.49-1.03,3.09-2.23,4.8c-0.04-0.04,0.02-0.19,0.17-0.45c0.15-0.26,0.35-0.51,0.6-0.73c0.25-0.22,0.52-0.4,0.8-0.54
	c0.29-0.14,0.61-0.17,0.97-0.1c0.36,0.07,0.7,0.21,1,0.42c0.31,0.21,1.06,0.99,2.27,2.33c1.21,1.35,2.16,2.46,2.87,3.35
	c0.7,0.88,1.46,1.95,2.27,3.2c0.81,1.25,1.5,3.11,2.06,5.57c0.56,2.46,0.69,4.73,0.39,6.81c-0.3,2.08-0.85,3.99-1.65,5.72
	c-0.8,1.73-1.78,3.32-2.96,4.78s-2.68,2.73-4.51,3.82c-1.82,1.09-5.03,1.83-9.6,2.23c0.03-0.06,0.03-0.14,0.01-0.25
	c-0.01-0.1,0.01,0.07,0.09,0.52c0.07,0.45,0.12,1.11,0.15,1.99c0.03,0.88,0.02,1.53-0.01,1.96c-0.03,0.43-0.11,0.94-0.22,1.53
	c-0.11,0.59-0.82,1.92-2.11,4c-1.29,2.08-2.87,3.94-4.74,5.59c-1.87,1.65-3.32,2.92-4.35,3.8c-1.03,0.88-2.63,1.96-4.8,3.24
	c-2.16,1.28-4.7,2.26-7.61,2.95c-2.91,0.69-9.25,0.43-19.03-0.78c-0.24-0.38-0.37-1.84-0.42-4.38c-0.04-2.54,0.55-5.61,1.78-9.21
	l0.09,0.3l0.15,0.82l0.02,0.98c-0.07,0.79-0.65,1.66-1.74,2.62c-1.09,0.96-2.68,1.59-4.77,1.89c-2.09,0.3-3.87,0.46-5.34,0.49
	c-1.47,0.03-3.18-0.39-5.12-1.23c-1.94-0.85-3.43-1.63-4.46-2.35c-1.03-0.72-2.03-1.71-2.99-2.98c-0.96-1.27-1.57-3.55-1.82-6.84
	c-0.26-3.29-0.12-6.39,0.4-9.3c0.52-2.91,1.27-5.51,2.26-7.8c0.99-2.29,1.77-3.9,2.35-4.84c0.58-0.93,1.2-1.62,1.85-2.08
	c0.65-0.45,1.35-0.56,2.07-0.3c0.73,0.25,1.69,1.15,2.89,2.69"/>
<path id="STROKE_e5d7bdee-e582-4984-b67a-efd2609980fc" class="st4" d="M308.37,94.59c-0.54-0.3-0.83-0.48-0.86-0.55l-0.42-0.42
	c-0.59-0.76-2.3-1.36-5.14-1.8c-2.83-0.43-5.08-0.65-6.73-0.64c-1.65,0.01-3.44,0.26-5.35,0.77c-1.91,0.51-4.44,2.6-7.59,6.26
	c-3.15,3.66-5.43,6.53-6.86,8.61c-1.43,2.08-2.56,3.71-3.39,4.9c-0.83,1.19-1.49,2.38-1.96,3.58s-0.77,2.1-0.89,2.69
	c-0.12,0.6-0.19,0.91-0.2,0.93c-0.01,0.02-0.01,0.39-0.01,1.12c0,0.73,0.14,1.38,0.41,1.95c0.27,0.57,0.62,1.1,1.05,1.57
	c0.43,0.47,0.77,0.84,1.03,1.09c0.26,0.25,0.43,0.43,0.53,0.53c0.1,0.1,0.14,0.15,0.14,0.14c-0.39,0.23-0.59,0.34-0.59,0.34
	c0,0-0.43,0.67-1.28,2.01c-0.85,1.34-1.46,2.82-1.82,4.44c-0.36,1.62-0.61,3.24-0.73,4.86c-0.12,1.62,0.13,3.31,0.76,5.05
	c0.63,1.74,1.68,3.64,3.17,5.7c1.49,2.06,5.33,3.42,11.54,4.1l0.04-0.04c-0.18,0.04-0.26,0.07-0.23,0.1
	c-0.14,0.17-0.22,0.25-0.23,0.26c-0.01,0-0.13,0.17-0.35,0.49c-0.22,0.32-0.38,0.58-0.48,0.77c-0.1,0.19-0.19,0.43-0.3,0.74
	c-0.1,0.3-0.2,0.67-0.29,1.1c-0.09,0.43-0.16,0.95-0.22,1.57c-0.05,0.62-0.1,1.17-0.15,1.65c-0.04,0.48,0,1.57,0.13,3.27
	c0.13,1.7,0.62,3.57,1.48,5.62c0.86,2.05,1.77,3.89,2.73,5.51c0.96,1.63,2.21,3,3.75,4.12c1.54,1.12,2.92,1.94,4.15,2.45
	c1.23,0.51,2.75,0.85,4.57,1.01c1.82,0.16,3.87,0.24,6.15,0.25c2.28,0,3.71-0.01,4.29-0.06c0.58-0.04,1.41-0.68,2.51-1.91
	l-0.05,0.01l0.11,0.66c0.1,0.59,0.17,0.9,0.19,0.92c0.11,0.35,0.43,1.05,0.97,2.08c0.53,1.04,1.12,1.92,1.76,2.66
	c0.64,0.73,1.26,1.34,1.87,1.83c0.61,0.48,1.38,0.93,2.31,1.34c0.94,0.41,2.36,0.67,4.26,0.8s4.07-0.17,6.5-0.89
	c2.43-0.72,4.86-1.52,7.3-2.41c2.44-0.89,4.44-1.82,6.02-2.78c1.57-0.96,2.92-1.94,4.04-2.94c1.12-1,2.06-2.44,2.82-4.32
	c0.76-1.88,1.42-4.11,1.99-6.68c0.21-0.1,0.59-0.25,1.14-0.45c0.54-0.19,1.22-0.51,2.04-0.96c0.82-0.44,2.1-1.44,3.85-2.98
	c1.75-1.54,3.27-3.03,4.56-4.46c1.29-1.43,2.43-3.31,3.41-5.65c0.98-2.34,1.73-4.92,2.24-7.76c0.51-2.84,0.58-5.65,0.22-8.43
	c-0.37-2.78-0.9-5.18-1.6-7.21c-0.7-2.03-1.35-3.46-1.93-4.3c-0.58-0.84-1.85-1.57-3.82-2.19c0.05-0.08,0.13-0.19,0.22-0.33
	c0.1-0.14,0.15-0.23,0.17-0.26c0.02-0.03,0.17-0.2,0.47-0.5c0.3-0.3,1.07-1.31,2.31-3.03c1.25-1.72,2.17-3.39,2.77-5.01
	c0.6-1.62,1.06-3.42,1.38-5.39c0.31-1.97,0.14-4.1-0.51-6.39c-0.65-2.29-1.27-3.97-1.84-5.03s-1.28-2.19-2.12-3.39
	c-0.84-1.2-1.62-2.1-2.33-2.71c-0.71-0.61-1.29-1.02-1.72-1.23c-0.44-0.21-0.82-0.35-1.15-0.42c-0.33-0.07-0.82-0.12-1.46-0.14
	c-0.64-0.02-1.22,0-1.71,0.06c-0.5,0.06-1.1,0.16-1.81,0.29l-0.01,0c-0.09-0.34-0.72-1.36-1.89-3.06c-1.17-1.7-2.34-3.08-3.49-4.16
	c-1.16-1.07-2.28-1.94-3.37-2.61c-1.09-0.67-2.65-1.2-4.69-1.58c-2.04-0.39-3.49-0.61-4.35-0.68c-0.86-0.06-1.55-0.1-2.08-0.12
	c-0.53-0.01-1.27-0.03-2.24-0.06c-0.96-0.02-1.97-0.02-3.04,0.03c-1.06,0.04-2.11,0.19-3.13,0.44c-1.02,0.25-2.22,0.64-3.58,1.18
	c-1.36,0.53-2.39,0.97-3.08,1.32c-0.69,0.34-1.53,0.84-2.52,1.5c-0.99,0.66-1.9,1.5-2.73,2.52c-0.83,1.02-1.28,2.46-1.35,4.31
	c-0.07,1.85-0.02,3.32,0.14,4.41c0.17,1.09-0.17,2.27-1.01,3.54"/>
<path id="STROKE_ecf2c3f9-30d1-411a-befe-f03ae1a21d95" class="st5" d="M285.13,300.36c-0.08-0.01-0.31-0.17-0.71-0.48
	c-0.39-0.31-0.9-0.6-1.53-0.89c-0.63-0.28-1.14-0.42-1.51-0.43c-0.38,0-0.73,0.07-1.06,0.21c-0.33,0.14-0.72,0.47-1.16,0.98
	c-0.44,0.51-0.86,1.1-1.25,1.78c-0.39,0.68-0.74,1.32-1.05,1.92c-0.31,0.6-0.84,1.68-1.58,3.24c-0.75,1.56-1.46,3.72-2.16,6.48
	c-0.69,2.76-1.06,5.35-1.09,7.77c-0.03,2.42,0,4.32,0.11,5.7c0.11,1.38,0.4,2.64,0.88,3.76c0.48,1.12,1.08,2.16,1.79,3.11
	c0.71,0.95,2.13,1.78,4.24,2.48c2.12,0.7,4.39,1.06,6.82,1.07c2.43,0.01,4.66-0.25,6.69-0.78c2.03-0.53,3.63-1,4.81-1.43
	c1.18-0.43,2.52-1.79,4.02-4.09c-0.33-0.31-0.5-0.47-0.5-0.48s-0.26-0.03-0.76-0.05c-0.5-0.02-0.91,0.61-1.24,1.91
	c-0.33,1.3-0.53,2.52-0.63,3.66c-0.09,1.15-0.11,2.43-0.06,3.83c0.05,1.41,0.22,2.55,0.49,3.41c0.27,0.87,0.56,1.59,0.86,2.16
	c0.3,0.57,0.65,1.13,1.03,1.68c0.39,0.55,1,1.22,1.84,2.02c0.84,0.8,2.56,1.82,5.17,3.06c2.61,1.25,5.64,2.06,9.08,2.44
	c3.45,0.38,6.24,0.52,8.38,0.41c2.14-0.1,4.47-0.73,6.99-1.89c2.52-1.16,5.06-2.73,7.62-4.73c2.56-2,4.59-3.62,6.08-4.87
	c1.49-1.25,2.72-2.71,3.69-4.38c0.97-1.67,1.6-3.07,1.91-4.22c0.3-1.14,0.49-2.13,0.55-2.94s0.17-1.93,0.3-3.35
	c0.14-1.41-0.32-3.6-1.38-6.55c-1.06-2.96-2.29-5.61-3.69-7.97c-1.4-2.36-2.54-4.07-3.42-5.15c-0.88-1.08-1.64-1.8-2.28-2.17
	c-0.64-0.37-1.13-0.56-1.46-0.58c-0.33-0.02-0.6-0.02-0.79,0.01c-0.19,0.02-0.33,0.04-0.42,0.04c-0.09,0.01-0.35,0.37-0.78,1.09
	c0.71,0.27,1.93-0.09,3.66-1.07c1.73-0.98,3.31-2.3,4.74-3.97c1.43-1.67,2.48-3.25,3.15-4.75c0.66-1.49,1.11-3.13,1.33-4.9
	c0.22-1.77-0.15-3.98-1.13-6.62c-0.98-2.64-1.84-4.62-2.59-5.94c-0.75-1.32-1.66-2.58-2.74-3.79c-1.08-1.21-2.61-2.07-4.59-2.58
	c-1.98-0.52-4.11-0.61-6.39-0.29c-2.28,0.32-4.78,1.24-7.49,2.75c-2.71,1.51-4.96,2.93-6.75,4.27c-1.79,1.34-3.04,2.71-3.75,4.11
	c-0.71,1.4-0.82,2.97-0.32,4.7c0.06,0.04,0.26,0.12,0.62,0.24c0.07-0.05,0.15-0.05,0.24,0.01c0.09,0.06,0.19-0.35,0.31-1.22
	c0.12-0.87,0.15-1.65,0.09-2.32c-0.06-0.67-0.13-1.09-0.2-1.24c-0.07-0.15-0.33-0.64-0.79-1.46c-0.46-0.82-1.27-1.94-2.43-3.37
	c-1.16-1.42-2.29-2.52-3.39-3.3c-1.1-0.78-2.62-1.25-4.57-1.41c-1.94-0.16-4.09,0.11-6.43,0.81s-4.45,1.49-6.31,2.36
	c-1.86,0.87-3.31,2.27-4.36,4.17c-1.04,1.91-1.84,4.2-2.4,6.87c-0.56,2.68-0.86,4.79-0.89,6.33s0.08,2.83,0.35,3.86
	c0.27,1.03,1.43,2.97,3.48,5.8"/>
<path id="STROKE_eae57e71-5dd6-46f8-a277-e10194145c05" class="st6" d="M298.03,428.34c0.06,0.18-0.43-0.62-1.46-2.4l-0.67-0.03
	c-0.38,0.26-0.71,0.6-1,1.02c-0.29,0.41-0.52,0.79-0.7,1.12c-0.18,0.33-0.32,0.62-0.43,0.86c-0.11,0.24-0.22,0.47-0.34,0.67
	c-0.12,0.2-0.47,1.14-1.07,2.81c-0.6,1.67-0.93,3.83-1.01,6.46c-0.08,2.64-0.1,4.8-0.07,6.5c0.03,1.7,0.06,3.06,0.1,4.08
	c0.04,1.02,0.18,2.48,0.43,4.36c0.25,1.89,0.77,3.71,1.58,5.47c0.8,1.76,1.7,3.19,2.67,4.3c0.98,1.1,2.03,2.07,3.17,2.89
	c1.13,0.83,2.72,1.42,4.77,1.79c2.05,0.37,4.09,0.39,6.11,0.07c2.02-0.32,3.88-0.96,5.56-1.93c1.68-0.96,2.86-1.77,3.54-2.41
	c0.68-0.64,1.17-1.15,1.47-1.54s0.5-0.66,0.6-0.82s0.23-0.44,0.4-0.83c0.16-0.39,0.28-0.73,0.33-1.02c0.06-0.29-0.15-0.84-0.61-1.63
	l0.03,0.37c0.11,0.18,0.34,0.47,0.69,0.86c0.35,0.39,1.04,0.92,2.08,1.57s1.79,1.1,2.27,1.32c0.48,0.23,1.54,0.5,3.17,0.81
	c1.63,0.31,3.38,0.27,5.23-0.14s3.8-1.27,5.86-2.59c2.06-1.32,3.73-2.58,5-3.77c1.27-1.19,2.45-2.57,3.54-4.13
	c1.08-1.56,1.9-3.55,2.44-5.97c0.54-2.42,0.85-4.28,0.92-5.6c0.07-1.32-0.16-2.92-0.7-4.8c-0.54-1.88-0.99-3.14-1.36-3.77
	c-0.37-0.63-0.73-1.16-1.08-1.59c-0.35-0.43-0.72-0.78-1.11-1.05c-0.39-0.27-0.68-0.44-0.87-0.51c-0.19-0.07-0.44-0.14-0.76-0.22
	s-0.82-0.15-1.53-0.22c-0.7-0.07-1.48-0.15-2.34-0.24c-0.86-0.09-1.55-0.15-2.06-0.2c-0.52-0.04-0.8-0.06-0.84-0.05
	c-0.04,0.01-0.58-0.02-1.63-0.07c-1.05-0.05-2.37,0.65-3.95,2.1c0,0.04,0.57-0.03,1.71-0.22c1.14-0.19,2.53-1.01,4.17-2.48
	s2.83-2.68,3.56-3.66c0.73-0.98,1.32-1.93,1.76-2.87c0.44-0.94,0.74-1.96,0.92-3.06c0.17-1.1,0.19-1.94,0.06-2.53
	s-0.67-1.58-1.62-2.97c-0.95-1.39-1.8-2.49-2.55-3.3s-1.34-1.41-1.75-1.78c-0.42-0.37-1.67-0.71-3.76-1.01
	c-2.09-0.3-3.89-0.51-5.4-0.63c-1.51-0.12-3.1,0.01-4.76,0.37c-1.66,0.36-3,0.76-4.03,1.19c-1.03,0.43-1.86,0.86-2.51,1.28
	c-0.65,0.42-1.3,1.04-1.95,1.86c-0.66,0.81-1.17,1.72-1.53,2.71c-0.37,0.99-0.49,2.07-0.37,3.23l0.49,0.1
	c0.37-0.37,0.55-0.58,0.56-0.62c0.1-0.25,0.21-1.05,0.34-2.37c0.12-1.33-0.01-2.51-0.4-3.55c-0.39-1.04-0.95-1.8-1.67-2.3
	c-0.72-0.49-1.9-0.82-3.53-0.99c-1.63-0.17-3.27-0.11-4.9,0.18c-1.63,0.29-3.04,0.67-4.23,1.14c-1.19,0.47-2.1,0.91-2.71,1.32
	c-0.62,0.41-0.98,0.69-1.08,0.82c-0.1,0.14-0.22,0.29-0.36,0.46c-0.14,0.17-0.29,0.38-0.46,0.62c-0.17,0.25-0.31,0.47-0.43,0.66
	c-0.12,0.19-0.3,0.49-0.53,0.91c-0.23,0.41-0.4,0.71-0.48,0.9c-0.09,0.19-0.18,0.35-0.29,0.49c-0.11,0.14-0.99,3.76-2.64,10.86
	l0.05,0.14c-0.24,0.66-0.39,1.03-0.46,1.09"/>
<path id="STROKE_eeb815bf-2b62-41ae-bf53-571dabacc3d9" class="st7" d="M284.98,584.73l-0.25,0.31c-0.72,0.29-1.21,0.54-1.49,0.72
	c-0.28,0.19-0.42,0.3-0.44,0.33c-0.02,0.03-0.21,0.25-0.57,0.67c-0.36,0.42-0.72,1.54-1.06,3.36c-0.34,1.83-0.52,3.15-0.52,3.97
	c0,0.82,0.05,1.57,0.14,2.26c0.1,0.69,0.42,1.24,0.95,1.67c0.54,0.43,1.25,0.25,2.13-0.52l-0.22-0.05l-0.31,0.09
	c-0.06-0.03-0.42,0.24-1.07,0.82c-0.65,0.58-1.22,1.3-1.69,2.18c-0.47,0.88-0.83,1.77-1.08,2.67c-0.24,0.9-0.41,1.97-0.51,3.2
	c-0.1,1.23-0.04,2.2,0.16,2.9c0.2,0.7,0.37,1.16,0.51,1.36c0.14,0.2,0.42,0.48,0.84,0.83c0.43,0.35,0.75,0.6,0.98,0.74
	c0.22,0.14,0.5,0.36,0.83,0.67l0.1,0.35c-0.04,0.77-0.06,1.17-0.07,1.19c-0.01,0.02-0.16,1.22-0.46,3.61
	c-0.3,2.39-0.32,4.47-0.07,6.25c0.25,1.78,0.54,3.1,0.88,3.98c0.33,0.87,0.84,1.67,1.52,2.39c0.68,0.72,1.38,1.01,2.1,0.89
	c0.72-0.13,1.11-0.21,1.18-0.25c0.07-0.04,0.16-0.11,0.28-0.23c0.12-0.11,0.27-0.31,0.45-0.59c-0.14-0.03-0.34,0.82-0.63,2.55
	c-0.28,1.72-0.15,3.4,0.4,5.02c0.55,1.62,1.35,3.13,2.4,4.52c1.05,1.39,2.41,2.55,4.08,3.49l-0.04-0.12
	c-0.24,0.1-0.38,0.61-0.44,1.54c-0.06,0.93-0.07,1.71-0.02,2.35c0.05,0.64,0.21,1.21,0.47,1.71c0.27,0.5,0.63,0.97,1.11,1.43
	c0.47,0.45,1.15,0.98,2.03,1.57c0.88,0.6,2.18,1.06,3.91,1.39c1.72,0.33,3.15,0.5,4.29,0.51c1.14,0.01,1.97-0.24,2.49-0.77
	l-0.21,0.04l-0.06,0.74c-0.06,0.41,0.27,1.62,0.98,3.65c0.72,2.03,1.38,3.63,1.98,4.81c0.61,1.18,1.17,2.05,1.69,2.59
	c0.52,0.54,1.12,0.88,1.81,1.01c0.69,0.13,1.43,0.05,2.24-0.23c0.81-0.28,1.58-0.85,2.31-1.71c0.73-0.85,1.74-2.4,3.01-4.63
	l0.13,0.49c0.01,0.34,0.73,1,2.17,1.99c1.43,0.98,2.87,1.58,4.29,1.78c1.43,0.2,2.79,0.32,4.09,0.37c1.3,0.05,2.52-0.09,3.66-0.41
	c1.14-0.32,2.35-1.02,3.61-2.1c1.26-1.08,2.51-3.01,3.75-5.81l0.59-0.22c0.4-0.09,1.54,0.02,3.4,0.32c1.86,0.3,3.44,0.41,4.73,0.31
	c1.29-0.1,2.51-0.53,3.67-1.31c1.16-0.78,2.2-1.9,3.11-3.37c0.92-1.47,1.85-3.75,2.82-6.85c0.27,0.07,0.84,0.19,1.71,0.35
	c0.88,0.16,1.83,0.11,2.87-0.14c1.04-0.25,2.23-0.96,3.58-2.12c1.35-1.16,2.32-2.07,2.94-2.73c0.61-0.66,1.15-1.27,1.62-1.82
	c0.47-0.55,1.06-3.8,1.76-9.75l-0.06-0.21c0.48-0.87,1.17-2.83,2.06-5.87c0.9-3.04,1.4-5.36,1.5-6.97c0.1-1.61,0.02-3.03-0.23-4.26
	c-0.25-1.23-0.6-2.12-1.03-2.67c-0.43-0.55-0.75-0.95-0.95-1.2l0.27-0.26c0.07-0.02,0.52-0.79,1.35-2.31
	c0.83-1.52,1.35-3.24,1.56-5.16c0.21-1.92,0.11-3.6-0.3-5.04c-0.41-1.43-1-2.7-1.77-3.79c-0.77-1.09-1.57-1.84-2.42-2.24
	c-0.07,0.05-0.06,0.1,0.03,0.15c0.09,0.05,0.22,0.09,0.38,0.1c0.16,0.01,0.33-0.11,0.51-0.36c0.18-0.25,0.34-0.63,0.46-1.15
	c0.12-0.51,0.19-1.51,0.21-2.97c0.02-1.47-0.37-3.03-1.17-4.67c-0.8-1.64-1.82-3.26-3.06-4.85c-1.24-1.59-3.26-2.31-6.06-2.17
	c-0.03,0.03-0.05,0.12-0.05,0.28l0.4-0.05c0.29-0.23,0.53-0.73,0.7-1.49c0.17-0.76-0.03-1.92-0.61-3.47
	c-0.58-1.56-1.36-2.87-2.35-3.93c-0.99-1.06-1.9-1.91-2.73-2.55c-0.84-0.64-1.99-1.11-3.45-1.41c-1.47-0.3-2.36-0.29-2.69,0.03
	c-0.33,0.32-0.48,0.64-0.46,0.96l0.25-0.05c0.18-0.39-0.08-1.28-0.77-2.68c-0.69-1.4-1.61-2.56-2.76-3.47s-2.23-1.5-3.23-1.75
	c-1-0.26-2.26-0.32-3.77-0.19c-1.51,0.13-2.95,0.89-4.3,2.28c-1.36,1.39-2.31,2.96-2.86,4.71c-0.01,0.03,0.05,0.04,0.19,0.05
	c0.13,0,0.34-0.17,0.62-0.5c0.28-0.33,0.46-0.65,0.53-0.93c0.07-0.29,0.14-0.74,0.19-1.35c0.05-0.61-0.12-1.49-0.5-2.64
	c-0.39-1.14-1.51-2-3.37-2.58c-1.86-0.57-3.37-0.91-4.55-1.02c-1.17-0.11-2.4-0.04-3.68,0.2c-1.28,0.23-2.34,0.63-3.18,1.19
	c-0.84,0.56-1.42,1.02-1.74,1.38c-0.32,0.36-0.61,0.74-0.85,1.15c-0.24,0.41-0.32,0.93-0.23,1.57c0.34,0.11,0.6,0.08,0.81-0.08
	c0.2-0.16,0.37-0.56,0.5-1.2c0.13-0.63,0.13-1.2,0-1.69c-0.13-0.49-0.37-0.91-0.73-1.27c-0.36-0.35-1.43-0.71-3.2-1.06
	c-1.78-0.36-3.42-0.44-4.93-0.25c-1.51,0.19-3.01,0.82-4.5,1.88c-1.49,1.06-2.79,2.37-3.88,3.93c-1.09,1.56-1.7,2.93-1.84,4.1
	l0.13,0.03c0.09-0.25-0.82-0.6-2.73-1.04c-1.91-0.44-3.84-0.48-5.8-0.1c-1.96,0.37-3.57,0.9-4.82,1.58
	c-1.25,0.68-2.85,1.95-4.8,3.81c-1.94,1.86-2.9,5.18-2.86,9.96c0.19,0.32,0.81,0.45,1.84,0.37l0.01-0.04
	c-0.21,0.1-0.32,0.17-0.32,0.24c-0.2,0.23-0.54,1.23-1.01,3.01c-0.47,1.78-0.75,3.26-0.83,4.45c-0.09,1.19-0.05,2.06,0.11,2.6
	c0.16,0.54,0.4,0.96,0.73,1.25c0.32,0.29,0.75,0.6,1.28,0.93"/>
<path id="STROKE_0ea68a10-3afe-46ec-99d1-49a7a4debaff" class="st8" d="M333.32,612.27l-0.62,0.64l-0.72,0.42l-0.83,0.15
	c-0.07,0.04-0.28-0.04-0.63-0.25c-0.35-0.21-0.62-0.51-0.81-0.89c-0.19-0.39-0.34-0.78-0.46-1.17c-0.12-0.39-0.21-0.78-0.28-1.18
	c-0.06-0.4-0.12-0.73-0.16-1c-0.04-0.27-0.07-0.94-0.09-1.99c-0.01-1.06,0.06-1.79,0.2-2.18c0.15-0.4,0.29-0.67,0.43-0.83
	c0.15-0.15,0.3-0.3,0.47-0.44c0.17-0.14,0.39-0.27,0.67-0.4c0.28-0.13,0.58-0.2,0.91-0.23c0.32-0.02,0.64,0.05,0.96,0.21
	c0.32,0.16,0.64,0.37,0.98,0.63c0.34,0.26,0.53,0.39,0.58,0.4c0.05,0.01,0.31,0.33,0.79,0.95s0.84,1.24,1.09,1.87
	c0.25,0.63,0.43,1.14,0.54,1.55c0.11,0.41,0.17,0.63,0.19,0.66c0.02,0.03,0.02,0.19,0.02,0.48c-0.01,0.29-0.11,0.62-0.32,0.99
	c-0.21,0.37-0.33,0.56-0.37,0.56c-0.04,0.01-0.07,0.02-0.07,0.03c-0.01,0.02-0.15,0.08-0.42,0.19c-0.27,0.11-1.54-0.08-3.82-0.56"/>
<path id="STROKE_cafd2553-3c82-44a7-8e82-b3e46e871780" class="st9" d="M369.94,710.67c-0.09-0.02-0.27-0.12-0.54-0.3
	c-0.28-0.18-0.6-0.42-0.98-0.72c-0.38-0.3-0.71-0.59-0.99-0.86c-0.29-0.27-0.44-0.41-0.47-0.42s-0.29-0.22-0.77-0.64
	c-0.48-0.41-1.62-0.92-3.42-1.51c-1.79-0.59-3.21-0.91-4.24-0.97c-1.04-0.05-2.03-0.05-2.99-0.01s-1.58,0.1-1.86,0.16
	c-0.28,0.06-0.91,0.32-1.9,0.78c-0.98,0.46-1.99,1.32-3,2.58s-2.06,2.77-3.12,4.54c-1.06,1.76-1.83,3.02-2.32,3.77
	c-0.48,0.75-0.89,1.43-1.22,2.04c-0.33,0.61-0.58,1.15-0.76,1.62c-0.17,0.47-0.28,0.73-0.31,0.76c-0.03,0.03-0.15,0.69-0.35,1.97
	c-0.2,1.28-0.28,2.41-0.23,3.37c0.05,0.97,0.21,1.67,0.49,2.11c0.28,0.44,0.51,0.72,0.7,0.85s0.28,0.21,0.3,0.23
	c0.01,0.02,0.31,0.11,0.88,0.28c0.57,0.17,1.2,0.35,1.89,0.55c0.69,0.2,1.23,0.4,1.62,0.6c0.39,0.2,0.68,0.39,0.88,0.57
	c0.19,0.18,0.36,0.42,0.5,0.73c-0.06,0.02-0.49,0.22-1.3,0.59c-0.8,0.37-1.46,0.79-1.97,1.26c-0.51,0.47-0.8,0.75-0.89,0.84
	c-0.09,0.09-0.48,0.62-1.17,1.6c-0.69,0.97-1.36,2-2,3.07c-0.64,1.07-1.13,1.92-1.47,2.56c-0.34,0.64-0.67,1.28-0.98,1.92
	c-0.31,0.64-0.54,1.14-0.69,1.5c-0.15,0.36-0.33,0.82-0.54,1.38c-0.21,0.56-0.33,0.86-0.37,0.89c-0.03,0.03-0.24,0.8-0.6,2.3
	c-0.37,1.5-0.59,2.63-0.65,3.38c-0.07,0.75,0.14,1.79,0.62,3.1c0.48,1.32,1.36,3.1,2.65,5.34c1.28,2.24,2.39,4.16,3.32,5.75
	c0.93,1.59,2,3.32,3.19,5.19c1.2,1.87,2.56,3.22,4.09,4.05c1.53,0.83,3.08,1.16,4.66,1c-0.12-0.24-0.19-0.35-0.22-0.34l-0.58-0.3
	l-0.63-0.21c-0.18-0.05-0.52-0.02-1.03,0.1c-0.23,0.51-0.35,0.78-0.36,0.81l-0.08,1.03c-0.01,0.72,0.17,2.51,0.55,5.35
	c0.38,2.84,0.99,5.48,1.85,7.92c0.86,2.44,1.97,4.57,3.34,6.39c1.37,1.82,2.67,3.17,3.89,4.03c1.23,0.86,2.29,1.54,3.18,2.04
	c0.89,0.5,2.26,1.02,4.11,1.57c1.85,0.55,4.03,0.83,6.52,0.84c2.49,0.01,4.95-0.34,7.36-1.06c2.41-0.72,4.5-1.55,6.27-2.51
	c1.77-0.96,3.36-2.18,4.77-3.66c1.41-1.48,2.45-2.99,3.11-4.52s1.19-3.11,1.59-4.76c0.4-1.64,0.61-2.86,0.64-3.65
	c0.03-0.8,0.02-1.38-0.04-1.77c-0.06-0.38-0.14-0.68-0.23-0.91c-0.1-0.22-0.22-0.44-0.37-0.66c-0.15-0.22-0.24-0.33-0.25-0.33
	c-0.02-0.01-0.03-0.03-0.03-0.06c0-0.04-0.41-0.17-1.21-0.38c0.19,0.44,0.67,1.1,1.43,1.98c0.76,0.88,1.91,1.69,3.43,2.4
	c1.53,0.72,3.24,1.15,5.13,1.29c1.89,0.14,3.63,0.13,5.24-0.04c1.6-0.17,3.18-0.69,4.73-1.58c1.55-0.89,3.4-2.39,5.54-4.5
	c2.14-2.11,4.13-4.45,5.97-7c1.84-2.55,3.26-4.74,4.25-6.57s1.85-4,2.56-6.51c0.71-2.51,1.13-5.05,1.25-7.62
	c0.12-2.57,0-4.61-0.36-6.14c-0.36-1.53-1.13-3.12-2.3-4.79c-1.18-1.67-2.96-3.06-5.36-4.18c-2.4-1.13-5.04-1.72-7.92-1.79
	c0.38,0.43,0.94,0.83,1.67,1.22c0.73,0.38,1.31,0.65,1.75,0.79c0.44,0.15,0.86,0.26,1.24,0.34c0.39,0.08,0.63,0.13,0.73,0.14
	c0.1,0.01,0.59,0.04,1.48,0.07c0.89,0.04,1.85-0.15,2.88-0.56c1.03-0.41,1.8-0.86,2.3-1.34c0.5-0.48,1.07-1.31,1.71-2.47
	c0.64-1.16,1.09-2.9,1.36-5.21c0.27-2.32-0.03-5.07-0.9-8.25c-0.87-3.19-2-6.05-3.4-8.6c-1.39-2.55-2.66-4.56-3.8-6.04
	c-1.14-1.48-2.57-2.88-4.29-4.21c-1.72-1.33-3.54-2.38-5.45-3.13c-1.91-0.76-4.02-1.18-6.32-1.25c-2.3-0.08-4.55,0.1-6.75,0.53
	c-2.2,0.43-4.66,1.69-7.38,3.79c-0.09,0.06,0.04,0.03,0.39-0.07c0.04,0.01,0.08-0.76,0.1-2.3c0.02-1.54-0.2-2.92-0.66-4.14
	s-0.95-2.27-1.48-3.15c-0.52-0.88-1-1.53-1.42-1.96c-0.42-0.42-0.7-0.69-0.83-0.78c-0.13-0.1-0.25-0.2-0.36-0.3
	c-0.11-0.1-0.5-0.32-1.15-0.64c-0.66-0.33-1.22-0.54-1.67-0.63c-0.46-0.09-0.86-0.15-1.22-0.17s-0.54-0.03-0.55-0.03
	c-0.01,0-0.24-0.01-0.7-0.04c-0.46-0.03-1.61,0.41-3.47,1.32c-1.86,0.91-3.47,2.05-4.85,3.41c-1.38,1.36-2.28,2.41-2.7,3.14
	c-0.43,0.73-0.82,1.37-1.19,1.91c-0.37,0.55-0.81,1.12-1.34,1.71c-0.53,0.59-0.86,1.03-0.99,1.32c-0.14,0.29-0.22,1.08-0.25,2.39
	c-0.03,1.31,0.12,4.03,0.46,8.17"/>
<path id="STROKE_43918365-1d58-4b2f-a7a0-1bfdec099c53" class="st10" d="M508.41,86.56c0-0.04-0.14-0.39-0.44-1.06
	c-0.3-0.67-0.7-1.3-1.21-1.9c-0.51-0.59-1.05-0.93-1.64-1c-0.59-0.07-1.11-0.05-1.58,0.07c-0.47,0.12-0.96,0.32-1.48,0.59
	c-0.52,0.27-1,0.52-1.44,0.76c-0.45,0.24-1.19,0.71-2.24,1.42c-1.05,0.71-1.99,1.4-2.81,2.07c-0.82,0.68-1.86,1.61-3.11,2.8
	c-1.25,1.19-2.53,2.73-3.84,4.62c-1.31,1.89-2.34,4.12-3.09,6.69c-0.74,2.57-1.18,5.12-1.3,7.66c-0.12,2.54-0.14,4.81-0.05,6.8
	c0.09,2,0.62,4.08,1.58,6.23c0.96,2.16,1.94,3.86,2.94,5.11c1,1.25,1.99,2.35,2.99,3.32c1,0.96,2.35,1.8,4.07,2.52
	s2.92,1.08,3.63,1.08c0.71,0.01,1.19,0.02,1.46,0.04c0.27,0.02,0.7-0.23,1.3-0.74c0.6-0.51,0.98-1.02,1.14-1.53l-0.06,0.01
	l0.06,0.45c0.11,0.45,0.68,1.62,1.69,3.51c1.01,1.89,2.36,3.8,4.05,5.73c1.69,1.93,3.24,3.46,4.64,4.58
	c1.4,1.12,2.84,2.04,4.31,2.77c1.47,0.73,3.61,1.25,6.4,1.55c2.8,0.31,5.18,0.42,7.15,0.33c1.97-0.09,3.49-0.29,4.56-0.63
	c1.07-0.33,1.87-0.64,2.4-0.92c0.53-0.28,1.34-0.79,2.44-1.53c1.09-0.74,2.24-1.78,3.45-3.11c1.2-1.33,2.04-2.81,2.5-4.44
	c0.46-1.62,0.72-2.88,0.76-3.76c0.04-0.88,0.08-1.58,0.13-2.08s0.34-1.3,0.89-2.39c1.08,0.14,2.41,0.45,3.98,0.95
	c1.57,0.49,2.97,0.66,4.21,0.51c1.24-0.16,2.27-0.48,3.09-0.99c0.82-0.5,1.43-0.91,1.8-1.21s1.16-1.05,2.34-2.24
	s2.63-2.87,4.34-5.06c1.71-2.19,3.08-4.19,4.1-6c1.02-1.81,1.78-3.4,2.27-4.75c0.5-1.36,0.83-3.67,1-6.93s0.17-6.63,0-10.09
	c-0.17-3.46-0.88-7.39-2.13-11.79l0.05-0.04l0.35-0.27c0.41-0.58,0.86-1.99,1.33-4.21s0.54-4.52,0.19-6.87
	c-0.35-2.36-0.96-4.31-1.84-5.87c-0.88-1.56-1.66-2.71-2.32-3.44c-0.67-0.74-1.64-1.47-2.93-2.19c-1.29-0.72-3.03-1.18-5.22-1.39
	c-2.2-0.2-4.9,0.03-8.1,0.69c-3.2,0.66-5.8,1.37-7.78,2.12s-3.45,1.44-4.4,2.05c-0.95,0.62-1.75,1.25-2.38,1.89
	c-0.64,0.65-1.05,1.42-1.24,2.31c-0.19,0.89-0.26,1.6-0.2,2.14c0.06,0.53,0.37,0.95,0.91,1.26c0.55,0.31,1,0.47,1.35,0.5
	c0.36,0.03,0.66,0.03,0.9,0.01c0.25-0.02,0.4-0.04,0.46-0.04c0.06,0,0.21-0.33,0.43-0.98c0.22-0.65,0.29-1.28,0.19-1.87
	c-0.1-0.6-0.23-1.11-0.4-1.55c-0.17-0.44-0.57-1.17-1.18-2.18c-0.61-1.02-1.43-1.92-2.47-2.73c-1.03-0.8-1.9-1.36-2.59-1.68
	c-0.69-0.32-1.76-0.54-3.2-0.66s-2.76-0.09-3.96,0.12c-1.2,0.21-2.72,0.46-4.55,0.77c-1.83,0.31-3.73,0.76-5.69,1.36
	c-1.96,0.6-3.57,1.24-4.84,1.93c-1.27,0.69-2.79,2.2-4.58,4.52c-1.79,2.33-3.12,4.33-3.99,6.01c-0.87,1.68-1.43,2.98-1.69,3.92
	c-0.25,0.94-0.38,1.59-0.36,1.98c0.01,0.38,0.06,0.68,0.15,0.89c0.09,0.21,0.26,0.43,0.5,0.67c0.24,0.24,0.47,0.42,0.68,0.57
	c0.21,0.14,0.48,0.29,0.82,0.45c0.33,0.15,1.84,1.6,4.52,4.34"/>
<path id="STROKE_02dedf53-d317-4213-8461-a6c1615abad6" class="st11" d="M478.47,252.64c-0.46-0.26-0.97-0.57-1.54-0.92
	c-0.57-0.35-1.06-0.59-1.47-0.72c-0.41-0.13-0.63-0.19-0.65-0.18l-1.03,0.08c-0.73,0.44-1.65,2.23-2.78,5.39
	c-1.12,3.15-1.8,6.27-2.02,9.35s-0.3,5.68-0.22,7.78c0.08,2.1,0.56,4.33,1.44,6.69c0.88,2.35,1.88,4.29,2.99,5.8
	c1.11,1.51,2.14,2.68,3.09,3.51c0.95,0.83,1.65,1.38,2.11,1.66c0.45,0.28,0.8,0.48,1.04,0.61c0.24,0.13,1.28,0.4,3.11,0.81
	c1.83,0.41,5.69-0.6,11.59-3.02l0.23-0.35l0.33-0.12c0.13-0.15,0.4,0.29,0.83,1.33c0.43,1.04,1.21,2.59,2.33,4.65
	c1.13,2.06,2.34,3.73,3.64,5.02c1.3,1.28,2.76,2.36,4.37,3.23c1.61,0.87,3.31,1.41,5.08,1.6c1.77,0.2,3.38,0.27,4.81,0.22
	c1.44-0.05,3.02-0.52,4.74-1.42c1.72-0.9,3.46-2.82,5.2-5.77c1.75-2.95,2.88-5.27,3.41-6.98c0.53-1.7,1.11-3.01,1.74-3.92
	c0.63-0.91,1.29-1.67,1.97-2.26c0.68-0.59,1.18-1.05,1.51-1.36c0.32-0.31,0.63-0.68,0.93-1.09c0.3-0.41,0.56-0.71,0.79-0.89
	c0.23-0.18,0.44-0.32,0.64-0.42c0.2-0.1,0.7-0.21,1.51-0.32c0.8-0.12,1.69-0.17,2.65-0.17c0.96,0,2.04-0.35,3.26-1.04
	c1.21-0.7,2.65-2.29,4.32-4.77c1.67-2.48,2.97-4.85,3.91-7.12s1.59-4.67,1.95-7.23c0.36-2.56,0.29-5.15-0.23-7.77
	c-0.52-2.62-1.23-4.99-2.16-7.09c-0.92-2.1-1.9-3.78-2.93-5.02c0.11-0.14,0.26-0.52,0.43-1.16c0.18-0.64,0.31-1.13,0.39-1.47
	c0.08-0.35,0.23-1.49,0.45-3.43s0.09-3.84-0.36-5.72c-0.45-1.87-1.19-3.62-2.22-5.23c-1.02-1.61-2.12-2.86-3.27-3.74
	c-1.16-0.88-2.64-1.46-4.43-1.72c-1.8-0.27-3.86-0.17-6.18,0.29c-2.32,0.46-4.33,1.12-6.03,1.98s-2.96,1.69-3.79,2.48
	c-0.83,0.79-1.34,1.5-1.54,2.11c-0.2,0.62-0.16,1.12,0.11,1.51c0.27,0.39,0.52,0.63,0.75,0.73c0.23,0.1,0.39,0.15,0.47,0.16
	c0.08,0.01,0.19,0.02,0.32,0.04c0.13,0.02,0.43,0.01,0.91-0.03c0.48-0.04,0.79-0.11,0.93-0.22c0.14-0.1,0.33-0.32,0.56-0.64
	c0.23-0.33,0.39-0.62,0.48-0.87c0.09-0.26,0.06-0.93-0.08-2.01c-0.14-1.08-0.48-2.01-1.01-2.76c-0.53-0.76-0.89-1.27-1.11-1.53
	c-0.21-0.27-0.78-0.82-1.71-1.66s-1.92-1.64-2.98-2.38c-1.06-0.74-3.16-1.27-6.29-1.58c-3.13-0.31-5.58-0.49-7.36-0.53
	c-1.78-0.04-3.74,0.2-5.89,0.71c-2.15,0.51-4.3,1.22-6.46,2.12c-2.16,0.91-3.83,1.82-5,2.73c-1.17,0.92-2.01,1.63-2.51,2.14
	c-0.5,0.51-0.88,1.12-1.12,1.85c-0.25,0.72-0.29,1.34-0.13,1.86c0.16,0.52,0.31,0.81,0.45,0.89c-0.29,0.08-1.36,1.03-3.21,2.85
	c-1.85,1.82-3.48,3.89-4.88,6.23c-1.4,2.34-2.43,4.55-3.09,6.62c-0.66,2.07-1.06,3.86-1.2,5.38c-0.14,1.52-0.16,2.83-0.05,3.95
	c0.11,1.12,0.61,2.22,1.49,3.3c0.89,1.08,2.98,2.38,6.29,3.91"/>
<path id="STROKE_d83da886-89ab-450d-b43d-cf21e8da20b3" class="st12" d="M477.93,396.36l-1-0.16l-0.91,0.04
	c-0.42,0.14-1.19,1.8-2.31,4.98c-1.12,3.18-1.89,6.68-2.32,10.52c-0.43,3.83-0.61,6.77-0.56,8.82s0.22,3.92,0.49,5.63
	c0.27,1.71,0.81,3.24,1.63,4.6c0.82,1.36,2.25,2.61,4.28,3.77c2.04,1.16,5.23,2.24,9.57,3.24c-0.13,0.1-0.35,1.36-0.66,3.78
	c-0.31,2.42-0.39,4.56-0.26,6.4c0.14,1.84,0.48,3.38,1.02,4.61c0.55,1.23,1.35,2.43,2.41,3.6c1.06,1.17,2.63,1.97,4.7,2.4
	c2.07,0.43,4.26,0.4,6.56-0.07c2.3-0.48,4.29-0.89,5.97-1.24c1.67-0.35,3.64-0.15,5.9,0.62c2.26,0.77,3.89,1.39,4.88,1.88
	c0.99,0.48,2.54,1.03,4.64,1.63c2.1,0.6,4.63,0.56,7.59-0.12c2.97-0.68,5.27-1.21,6.92-1.58c1.65-0.37,3.15-1.01,4.49-1.92
	c1.35-0.91,2.28-1.83,2.81-2.76c0.53-0.93,1.04-1.91,1.55-2.95c0.5-1.04,0.92-1.76,1.25-2.17c0.33-0.41,0.54-0.65,0.63-0.73
	c0.09-0.07,0.64-0.18,1.65-0.32c1.01-0.14,1.94-0.19,2.79-0.17c0.85,0.03,1.84-0.2,2.98-0.67c1.14-0.47,2.09-0.95,2.84-1.42
	c0.75-0.47,1.99-1.49,3.72-3.05c1.73-1.56,3.27-3.28,4.62-5.15c1.35-1.87,2.47-3.92,3.37-6.14c0.9-2.22,1.55-5.35,1.96-9.39
	c0.41-4.04-0.49-10.58-2.69-19.61c-0.12-0.16-0.38-1.55-0.78-4.15c-0.4-2.61-0.94-5.06-1.62-7.37c-0.68-2.31-2.01-4.6-4-6.9
	c-1.99-2.29-3.66-4.02-5.01-5.17c-1.35-1.15-2.57-2.04-3.65-2.67s-2.49-0.6-4.24,0.1c-1.75,0.7-3.08,1.34-4,1.94
	c-0.92,0.59-1.61,0.96-2.07,1.1c-0.46,0.14-0.72,0.21-0.78,0.2c-0.06,0-0.13,0.02-0.23,0.07s-0.86-0.68-2.31-2.19
	c-1.45-1.51-2.96-2.9-4.54-4.17c-1.58-1.27-3.18-2.37-4.8-3.29c-1.62-0.92-4.32-1.7-8.1-2.34c-3.78-0.64-6.67-1.06-8.66-1.28
	c-1.99-0.22-3.55-0.28-4.67-0.19c-1.13,0.09-2.06,0.31-2.79,0.67c-0.73,0.36-1.46,0.83-2.16,1.42c-0.71,0.59-2.06,2.18-4.07,4.78
	c-2,2.6-3.43,4.59-4.27,5.99c-0.85,1.39-1.63,2.4-2.35,3.01c-0.72,0.61-1.35,0.99-1.89,1.12s-0.89,0.21-1.07,0.21
	c-0.17,0.01-0.43,0.02-0.78,0.04s-1.37-0.1-3.06-0.34c-1.7-0.25-3.08-0.4-4.16-0.47c-1.08-0.07-1.88,0.03-2.41,0.3
	s-1.11,0.9-1.73,1.9s-1.43,2.64-2.4,4.95c-0.98,2.3-1.68,4.2-2.11,5.67c-0.43,1.48-0.7,2.64-0.82,3.5
	c-0.12,0.86,0.72,2.45,2.54,4.78"/>
<path id="STROKE_a74d89f6-55fd-45eb-8016-3ece8cd7b959" class="st13" d="M507.8,583.27c-0.02-0.02-0.19-0.12-0.51-0.3
	c-0.33-0.18-0.7-0.2-1.12-0.05c-0.42,0.14-0.64,0.22-0.65,0.24c-0.01,0.02-0.4,0.92-1.17,2.69c-0.77,1.77-1.36,4.69-1.75,8.75
	c-0.4,4.06-0.61,7.18-0.64,9.37c-0.03,2.19,0.05,3.93,0.25,5.22c0.2,1.29,0.52,2.38,0.98,3.24c0.45,0.87,1.04,1.48,1.75,1.84
	c0.71,0.36,1.57,0.49,2.57,0.4c1-0.09,1.86-0.32,2.6-0.68c0.73-0.36,1.84-1.14,3.31-2.33c1.47-1.2,2.71-2.24,3.71-3.14
	s2.14-0.78,3.43,0.36c1.29,1.13,2.46,2.2,3.53,3.19c1.07,0.99,2.67,1.76,4.82,2.3c2.14,0.54,4.39,0.71,6.74,0.51
	c2.35-0.19,4.76-1.02,7.22-2.46c2.46-1.45,4.7-3.25,6.73-5.39c2.03-2.14,3.54-3.73,4.54-4.76c1-1.03,1.89-1.73,2.66-2.1
	c0.77-0.37,1.56-0.51,2.36-0.41c0.8,0.1,1.62,0.13,2.47,0.08c0.85-0.04,2.03-1.01,3.54-2.9c1.51-1.89,2.97-4.34,4.36-7.36
	c1.4-3.02,2.56-8.15,3.49-15.39c0.46-0.7,0.69-1.07,0.69-1.12c0.46-0.5,0.95-2.24,1.48-5.22c0.53-2.98,0.82-5.39,0.87-7.22
	c0.05-1.83-0.02-3.57-0.2-5.22c-0.18-1.65-0.76-3.74-1.75-6.29c-0.98-2.54-1.87-4.56-2.67-6.04c-0.8-1.49-1.65-2.74-2.55-3.76
	c-0.9-1.02-1.93-1.65-3.07-1.89c-1.14-0.24-2.07-0.32-2.76-0.25c-0.7,0.07-1.24,0.18-1.62,0.32c-0.39,0.14-1.22,0.54-2.51,1.2
	c-1.29,0.66-2.33,1.14-3.14,1.45c-0.81,0.31-1.52,0.45-2.14,0.44s-1.3-0.39-2.05-1.12c-0.75-0.73-1.78-1.71-3.1-2.94
	c-1.32-1.23-2.73-2.32-4.22-3.28c-1.49-0.96-3.08-1.75-4.77-2.37c-1.69-0.62-3.29-1.01-4.79-1.17c-1.5-0.16-3.02-0.2-4.57-0.12
	c-1.55,0.08-3.18,0.61-4.89,1.57c-1.71,0.96-3.61,2.47-5.71,4.52c-2.09,2.05-4.17,5.82-6.24,11.33c-0.63,0.08-1.33-0.02-2.1-0.28
	c-0.77-0.26-2.09-0.48-3.97-0.65c-1.88-0.17-3.29-0.2-4.22-0.11c-0.93,0.1-1.76,0.27-2.47,0.51c-0.72,0.24-1.75,0.91-3.12,2
	c-1.36,1.09-2.18,3.44-2.46,7.05c-0.28,3.61-0.39,6.43-0.34,8.45c0.05,2.02,0.16,3.52,0.34,4.5c0.17,0.98,0.64,2.66,1.41,5.03
	c0.76,2.37,2.68,4.99,5.75,7.88c-0.26-0.02-0.41,0-0.44,0.07c-0.49,0.16-0.75,0.27-0.78,0.35c-0.31,0.36-0.56,0.98-0.76,1.84
	c-0.2,0.87-0.06,2.3,0.4,4.29c0.46,2,1.72,4.34,3.77,7.02"/>
<path id="STROKE_b371a40d-47e2-4d31-bfbd-61c6ce090152" class="st14" d="M542.24,723.34c-0.04-0.02-0.24-0.27-0.59-0.75
	c-0.35-0.48-0.69-0.96-1.03-1.43c-0.34-0.47-0.62-0.82-0.84-1.03c-0.22-0.21-0.43-0.37-0.64-0.48c-0.2-0.11-0.46-0.11-0.78-0.01
	c-0.32,0.1-0.61,0.35-0.87,0.75c-0.26,0.4-0.53,1.28-0.81,2.64c-0.28,1.36-0.43,2.49-0.46,3.39c-0.03,0.9-0.06,2.65-0.11,5.26
	c-0.05,2.61,0.19,5.22,0.7,7.84c0.51,2.62,1.13,4.79,1.87,6.5c0.74,1.71,1.41,2.98,2.01,3.79c0.61,0.81,1.44,1.55,2.5,2.22
	c1.06,0.66,2.06,1.1,2.99,1.32c0.93,0.22,1.99,0.13,3.18-0.25s2.49-1.1,3.92-2.15c1.43-1.05,3.18-3.26,5.27-6.64
	c0.15,0.08,0.74,0.97,1.77,2.67c1.03,1.7,2.15,3.15,3.35,4.34c1.2,1.19,2.64,1.99,4.31,2.38c1.67,0.39,3.24,0.53,4.72,0.43
	c1.47-0.1,3.18-0.66,5.11-1.67c1.93-1.01,4.21-2.68,6.82-4.99c2.62-2.32,6.24-8.66,10.88-19.02c0.95,0.01,2.33-0.6,4.13-1.82
	c1.81-1.22,3.48-2.78,5.02-4.68c1.54-1.9,2.87-3.85,3.97-5.84c1.11-1.99,1.93-4.03,2.47-6.1c0.54-2.07,0.61-4.15,0.23-6.22
	c-0.38-2.08-1.13-4.08-2.23-6.01c-1.11-1.93-1.84-3.59-2.21-4.96c-0.36-1.37-0.51-2.73-0.42-4.06c0.08-1.33,0.11-2.39,0.1-3.17
	c-0.02-0.78-0.43-2.12-1.24-4.04c-0.81-1.92-2.23-3.88-4.27-5.88c-2.03-2-4.14-3.69-6.32-5.07c-2.18-1.38-4.1-2.43-5.76-3.16
	c-1.66-0.73-3.33-1.18-5.03-1.35c-1.7-0.17-3.63,0.38-5.78,1.66c-2.15,1.28-4.77,4-7.84,8.15c-0.01-0.26-0.23-0.79-0.68-1.58
	c-0.44-0.79-0.77-1.27-0.96-1.44c-0.2-0.17-0.75-0.56-1.65-1.17c-0.9-0.61-2.69-1.12-5.37-1.53c-2.67-0.41-4.89-0.55-6.65-0.43
	c-1.76,0.12-2.94,0.23-3.54,0.34c-0.6,0.11-1.73,0.54-3.39,1.3c-1.66,0.76-3.08,1.65-4.26,2.69c-1.17,1.04-2.26,2.2-3.25,3.48
	c-0.99,1.29-1.9,2.86-2.73,4.73c-0.83,1.87-1.46,3.46-1.89,4.76c-0.43,1.3-0.59,4.28-0.48,8.94c-0.55,0.27-0.83,0.43-0.85,0.5
	c-0.52,0.23-1.11,2.13-1.76,5.72c-0.65,3.59-0.96,6.51-0.91,8.75c0.05,2.24,0.19,3.97,0.41,5.17c0.23,1.21,0.61,2.32,1.14,3.34
	c0.53,1.02,1.46,1.84,2.79,2.44c1.33,0.61,3.51,0.65,6.55,0.12"/>
<path id="STROKE_a11baecf-4e20-42c7-ad5a-bcb80f405b87" class="st15" d="M744.98,755.86c0.03-0.08-0.91-0.16-2.82-0.23
	c-1.9-0.07-3.52-0.11-4.84-0.14c-1.32-0.02-2.51-0.24-3.55-0.66c-1.04-0.42-2.57-1.67-4.6-3.76s-3.7-4.01-5.03-5.76
	c-1.33-1.75-2.39-3.65-3.17-5.69c-0.79-2.04-1.25-4.05-1.39-6.03s-0.05-3.73,0.28-5.26c0.33-1.53,0.87-2.86,1.62-4
	c0.75-1.14,1.43-1.97,2.01-2.5c0.59-0.53,1.34-0.89,2.25-1.07c0.91-0.18,1.77-0.28,2.56-0.27c0.79,0,3.48,2.48,8.07,7.43
	c0-0.07-0.06-0.3-0.2-0.7s-0.31-0.94-0.52-1.62s-0.47-1.79-0.78-3.31c-0.31-1.52,0.14-3.35,1.35-5.51c1.21-2.15,2.31-3.79,3.29-4.91
	c0.98-1.12,1.75-1.95,2.28-2.48c0.54-0.53,1.11-1.03,1.71-1.5c0.61-0.47,1.16-0.84,1.68-1.12c0.51-0.28,0.97-0.48,1.37-0.6
	c0.4-0.12,1.01-0.25,1.83-0.38c0.81-0.13,1.57,0.07,2.27,0.61c0.7,0.53,2.71,2.46,6.02,5.79c0.16-0.13,0.62-0.71,1.37-1.72
	c0.75-1.01,1.5-1.78,2.23-2.29c0.74-0.52,1.3-0.84,1.69-0.99c0.39-0.14,1.28-0.27,2.68-0.37c1.4-0.1,2.65-0.02,3.76,0.26
	c1.11,0.28,2.39,0.94,3.86,2c1.46,1.06,2.79,2.38,3.99,3.97c1.2,1.59,1.48,5.51,0.86,11.75c0.27,0.04,1.39,0.75,3.37,2.15
	c1.98,1.4,3.72,3.13,5.22,5.2c1.49,2.07,2.5,3.85,3.01,5.36c0.51,1.5,0.77,3.03,0.75,4.58c-0.01,1.55-0.62,3.19-1.82,4.93
	c-1.2,1.74-3.68,4.28-7.43,7.62c0.05,0.05,0.23,0.14,0.54,0.26s0.62,0.71,0.94,1.76c0.32,1.05,0.48,2.23,0.47,3.56
	c-0.01,1.33-0.47,2.85-1.39,4.56c-0.92,1.71-2.46,3.17-4.61,4.39c-2.15,1.22-3.81,1.99-4.97,2.33c-1.16,0.34-2.4,0.59-3.72,0.74
	c-1.32,0.15-2.39,0.12-3.22-0.1c-0.82-0.22-1.46-0.5-1.91-0.82c-0.45-0.32-0.74-0.55-0.85-0.68c-0.12-0.13-0.28-0.39-0.48-0.79
	l0.12,0.05c0.07,0.43,0.1,0.65,0.09,0.67l0.02,0.91c0,0.19-0.03,0.48-0.1,0.88c-0.06,0.4-0.39,0.94-0.97,1.63s-1.26,1.22-2.03,1.61
	c-0.77,0.39-2.07,0.69-3.9,0.91c-1.83,0.22-3.62,0.23-5.36,0.02c-1.75-0.21-3.52-0.8-5.32-1.79c-1.8-0.98-3.33-2.26-4.59-3.84
	c-1.26-1.58-2.35-3.44-3.27-5.59c-0.92-2.15,0.17-5.07,3.26-8.78"/>
<path id="STROKE_690db485-678f-427c-a8e1-81e5cee1872e" class="st16" d="M705.46,558.72c-0.39,0.05-1.15,0.19-2.27,0.41
	c-1.13,0.22-2.01,0.36-2.64,0.43s-1.25,0.04-1.84-0.08c-0.59-0.12-1.79-0.9-3.59-2.35c-1.8-1.45-3.36-2.86-4.69-4.24
	c-1.33-1.38-2.53-2.81-3.61-4.29c-1.07-1.49-1.93-2.95-2.56-4.41c-0.64-1.45-1.04-2.9-1.21-4.35s-0.09-2.77,0.27-3.96
	c0.35-1.19,1.19-2.5,2.5-3.92c1.31-1.43,2.75-2.49,4.33-3.19c1.57-0.7,2.76-1.07,3.57-1.12c0.8-0.05,1.65,0.2,2.53,0.75
	s1.44,1.97,1.66,4.27c-0.01,0.06-0.15,0.07-0.43,0.02c-0.27-0.05-0.59-0.79-0.94-2.22c-0.35-1.43-0.5-2.75-0.44-3.96
	c0.06-1.21,0.43-2.44,1.12-3.69c0.68-1.25,1.69-2.41,3.03-3.48c1.34-1.07,3.09-1.84,5.25-2.32c2.16-0.48,3.69-0.71,4.6-0.69
	c0.91,0.02,1.64,0.16,2.2,0.42c0.56,0.26,0.95,0.51,1.17,0.76c0.22,0.25,0.36,0.5,0.41,0.75c0.05,0.25,0.07,0.42,0.06,0.51
	c-0.01,0.08-0.06,0.21-0.13,0.39c-0.08,0.18-0.17,0.32-0.29,0.44c-0.12,0.12-0.18,0.18-0.19,0.2c-0.01,0.02-0.31,0.12-0.9,0.28
	c-0.02-0.01-0.04-0.1-0.05-0.26c-0.01-0.16,0.35-0.57,1.07-1.23c0.72-0.66,1.41-1.16,2.07-1.5c0.66-0.34,1.26-0.6,1.79-0.78
	c0.53-0.18,1.57-0.34,3.12-0.48c1.54-0.14,3.26,0.27,5.16,1.22c1.89,0.95,3.54,2.15,4.95,3.62c1.41,1.46,2.56,3.14,3.44,5.02
	c0.89,1.89,0.5,4.81-1.15,8.77c-0.02,0.06,0.4,0.07,1.25,0.04c0.85-0.03,1.63,0,2.33,0.1c0.7,0.1,1.46,0.44,2.29,1.02
	c0.83,0.58,1.63,1.6,2.42,3.04c0.79,1.45,1.32,3.32,1.6,5.63c0.28,2.31,0.29,4.23,0.02,5.77c-0.27,1.54-0.85,3.18-1.74,4.93
	c-0.89,1.75-1.87,3.19-2.94,4.33c-1.07,1.14-2.14,1.89-3.22,2.25c-1.07,0.36-1.78,0.49-2.12,0.4c-0.34-0.09-0.54-0.25-0.6-0.46
	c-0.06-0.21-0.05-0.45,0.02-0.71c0.07-0.26,0.3-0.46,0.68-0.6c0.39-0.14,0.71-0.19,0.98-0.14c0.26,0.05,0.53,0.2,0.79,0.45
	c0.26,0.25,0.47,0.52,0.64,0.81s0.34,0.72,0.52,1.3c0.19,0.58,0.28,0.88,0.28,0.92c0,0.03,0.06,0.38,0.18,1.03
	c0.12,0.65,0.01,1.62-0.32,2.9c-0.33,1.28-1.05,2.59-2.16,3.93c-1.1,1.33-2.58,2.36-4.43,3.09c-1.85,0.72-3.92,1.14-6.2,1.23
	c-2.28,0.1-5.07-0.5-8.35-1.78c-3.28-1.29-5.84-2.43-7.67-3.43c-1.83-1-3.32-1.97-4.49-2.91c-1.16-0.94-1.63-3.48-1.41-7.62"/>
<path id="STROKE_c26c4611-d43f-455b-b899-64f5ccb53586" class="st17" d="M687.31,354.09c-0.31-0.13-1.01-0.66-2.09-1.59
	c-1.08-0.93-1.96-1.68-2.63-2.25s-1.1-0.88-1.27-0.94c-0.18-0.06-0.34-0.11-0.51-0.18c-0.16-0.06-0.93-0.07-2.29-0.02
	c-1.37,0.05-2.76,0.76-4.17,2.12c-1.41,1.37-2.74,3.29-3.97,5.77c-1.23,2.48-2.28,5.15-3.15,8.01c-0.87,2.87-1.33,5.62-1.38,8.26
	c-0.05,2.64-0.02,4.73,0.09,6.28c0.11,1.55,0.62,3.15,1.51,4.81c0.89,1.66,2.16,3.32,3.78,4.98c1.63,1.67,4.21,2.39,7.75,2.16
	c-0.01-0.62-0.05-0.93-0.13-0.95c-0.13-0.14-0.3-0.29-0.53-0.43c-0.22-0.14-0.51-0.28-0.87-0.42c-0.36-0.14-0.55-0.21-0.59-0.21
	s-0.57-0.03-1.6-0.1c-1.04-0.07-2.1,0.29-3.2,1.08c-1.1,0.79-2.03,1.93-2.78,3.41c-0.76,1.48-1.36,3.28-1.81,5.39
	c-0.45,2.11-0.7,4.04-0.76,5.8c-0.06,1.76,0.13,3.45,0.55,5.07c0.43,1.62,1.17,3.17,2.22,4.65c1.05,1.48,2.44,2.79,4.16,3.94
	c1.72,1.15,3.42,2,5.11,2.56c1.69,0.56,3.22,0.87,4.6,0.93c1.38,0.06,2.84-0.08,4.37-0.43c1.53-0.35,3.07-1.2,4.63-2.55
	c1.56-1.35,2.61-3.28,3.14-5.79l-0.35-0.35c-0.07-0.21-0.14,0.09-0.21,0.9c-0.07,0.81,0.06,1.76,0.41,2.83s0.89,2.03,1.63,2.85
	c0.74,0.83,1.57,1.44,2.49,1.84c0.92,0.4,2.09,0.64,3.51,0.72s3.07-0.24,4.95-0.95c1.88-0.71,3.81-1.8,5.82-3.28
	c2-1.48,3.61-3.13,4.81-4.96c1.2-1.83,2.23-4.4,3.07-7.71s1.89-7.38,3.15-12.21l0.38,0.18c0.56,0.3,0.87,0.45,0.94,0.44
	c2.06,0.19,3.71-0.05,4.94-0.74s2.61-1.98,4.15-3.87c1.53-1.89,2.87-3.9,4-6.02c1.13-2.12,1.98-4.43,2.53-6.93
	c0.56-2.49,0.42-5.21-0.41-8.15c-0.83-2.94-1.53-5.12-2.1-6.54c-0.57-1.43-1.09-2.43-1.54-3.02s-0.86-0.97-1.22-1.17
	c-0.36-0.19-0.55-0.29-0.56-0.28c-0.01,0-0.16,0.07-0.44,0.2c-0.28,0.13-0.48,0.49-0.59,1.07c0.18-0.25,0.39-1.33,0.62-3.24
	c0.24-1.91,0.1-3.88-0.4-5.91c-0.5-2.03-1.46-4.11-2.87-6.24c-1.41-2.14-2.7-3.83-3.85-5.09c-1.16-1.26-2.33-2.17-3.51-2.73
	s-2.31-0.96-3.39-1.19c-1.08-0.23-3.02,0.36-5.82,1.78c-2.8,1.42-5.84,2.76-9.12,4.02c-3.28,1.27-5.81,2.22-7.59,2.87
	c-1.78,0.65-3.15,1.24-4.1,1.76c-0.95,0.53-1.68,1.28-2.17,2.25s0.35,4.52,2.51,10.64"/>
<path id="STROKE_f927551d-fb71-408b-a933-8208c3524126" class="st18" d="M656.25,204.87c0.09-0.07-0.26-1.03-1.05-2.87
	c-0.16-0.03-0.36-0.1-0.6-0.21c-0.24-0.11-0.87,0.51-1.89,1.85c-1.02,1.34-1.99,3.12-2.9,5.34s-1.72,4.95-2.42,8.19
	c-0.7,3.24-1.13,6.44-1.3,9.61c-0.17,3.16-0.19,5.68-0.06,7.55c0.13,1.87,0.34,3.36,0.63,4.47c0.29,1.11,0.82,2.23,1.6,3.38
	c0.78,1.14,1.53,2.01,2.26,2.59s1.86,1.05,3.41,1.4c1.55,0.35,3.13,0.42,4.74,0.19c1.61-0.22,3.01-0.73,4.2-1.53
	c1.19-0.8,2.02-1.54,2.48-2.23c0.46-0.69,0.71-1.32,0.74-1.88c0.03-0.57-0.34-0.86-1.09-0.89c-0.05,0.01-0.17,0.77-0.37,2.29
	c-0.2,1.52,0.07,3.15,0.79,4.88c0.73,1.74,1.67,3.39,2.84,4.97c1.17,1.57,2.53,2.89,4.09,3.94c1.56,1.05,3.11,1.74,4.67,2.08
	c1.55,0.34,3.36,0.46,5.42,0.36c2.06-0.1,3.89-0.47,5.47-1.13c1.58-0.65,3.18-1.57,4.79-2.74c1.61-1.17,3.16-2.55,4.63-4.15
	c1.47-1.6,2.6-3.28,3.38-5.04c0.78-1.76,1.27-3.15,1.48-4.16c0.2-1.01,0.31-1.79,0.32-2.34s-0.04-0.98-0.15-1.29
	c-0.11-0.31-0.2-0.51-0.29-0.59c-0.08-0.08-0.28-0.21-0.58-0.39c-0.3-0.18-0.48-0.28-0.53-0.3s-0.13,0.18-0.23,0.6
	c-0.1,0.43-0.12,0.94-0.06,1.53c0.06,0.59,0.5,1.17,1.31,1.73s1.47,0.91,1.98,1.06c0.51,0.14,1.28,0.19,2.31,0.15
	c1.03-0.05,2.03-0.18,3-0.39c0.97-0.21,2.36-0.94,4.19-2.18c1.83-1.24,3.59-2.99,5.29-5.26s2.99-4.26,3.89-6
	c0.89-1.74,1.63-3.43,2.21-5.09c0.58-1.65,1-3.46,1.25-5.44c0.26-1.97,0.28-3.71,0.08-5.21c-0.2-1.5-0.59-2.79-1.16-3.86
	c-0.57-1.08-1.03-1.79-1.38-2.14c-0.35-0.35-0.52-0.54-0.52-0.56c0-0.02-0.05-0.07-0.15-0.15c-0.1-0.08-0.14-0.17-0.14-0.27
	c0-0.1-0.3-1.28-0.9-3.53c-0.6-2.25-1.65-4.46-3.13-6.63c-1.49-2.16-3.03-3.95-4.63-5.35c-1.6-1.4-3.17-2.45-4.72-3.15
	c-1.54-0.7-3.14-1.12-4.79-1.25c-1.65-0.13-3.16-0.09-4.53,0.14c-1.37,0.23-2.75,1.04-4.16,2.43c-1.41,1.39-2.3,3.2-2.67,5.44
	l0.38,0.06c0.04,0.03,0.1-0.21,0.19-0.71c0.09-0.5,0.11-0.9,0.07-1.2c-0.04-0.3-0.36-0.92-0.95-1.86c-0.59-0.94-1.75-2.06-3.49-3.38
	c-1.74-1.31-3.73-2.41-5.98-3.28s-4.25-1.42-5.98-1.64c-1.74-0.22-3.36,0.04-4.88,0.8c-1.52,0.75-2.92,1.8-4.2,3.14
	c-1.29,1.34-2.45,2.61-3.5,3.8c-1.05,1.19-1.83,2.69-2.34,4.48c-0.51,1.79-0.66,3.51-0.45,5.16c0.21,1.65,0.79,3.23,1.73,4.75"/>
<path id="STROKE_6a0efd3a-ab67-4953-9061-f9d46679a767" class="st19" d="M647.52,94.92c-0.49-0.72-1.01-1.56-1.56-2.53
	c-0.09,0.13,0.09,1.62,0.54,4.46c0.45,2.84,1.17,5.38,2.16,7.61c0.99,2.24,1.99,4.05,3.01,5.44c1.02,1.39,2.2,2.6,3.53,3.64
	c1.33,1.04,3.05,1.7,5.16,1.98c2.11,0.28,3.98,0.33,5.6,0.15c1.63-0.19,3.33-0.86,5.12-2.02c1.79-1.16,3.32-2.67,4.59-4.54
	c1.28-1.86,2.13-3.38,2.57-4.54c0.43-1.16,0.63-2.09,0.59-2.78c-0.04-0.69-0.26-1.2-0.66-1.52c0.01,0.45,0.56,1.11,1.64,1.95
	c1.08,0.85,2.47,1.35,4.17,1.51c1.71,0.16,3.28,0.03,4.71-0.37s2.87-1.3,4.31-2.7c1.44-1.4,2.74-3.46,3.89-6.17
	c1.15-2.71,1.78-6.71,1.88-12c-0.02-0.02,0.09,0.11,0.32,0.4s0.74,0.5,1.52,0.65c0.78,0.15,1.7-0.16,2.76-0.94s1.99-2.02,2.8-3.75
	c0.81-1.72,1.37-3.31,1.7-4.77c0.32-1.45,0.29-3.34-0.1-5.67c-0.39-2.32-1.58-4.9-3.56-7.72c-1.99-2.82-3.61-4.92-4.86-6.28
	c-1.26-1.36-2.31-2.31-3.18-2.83c-0.86-0.52-1.76-0.89-2.7-1.09c-0.94-0.21-2.27,0.15-3.99,1.06c-1.72,0.91-4.08,3.42-7.09,7.51
	c-0.02,0.08,0.03-0.47,0.16-1.65c0.13-1.18-0.15-2.56-0.85-4.15c-0.7-1.58-1.62-2.88-2.77-3.9c-1.14-1.02-2.33-1.84-3.55-2.47
	c-1.22-0.63-2.7-1.03-4.42-1.19c-1.73-0.17-3.31-0.15-4.75,0.05c-1.44,0.2-3.06,0.93-4.87,2.21c-1.81,1.28-3.35,2.64-4.64,4.08
	c-1.28,1.44-2.2,3.47-2.75,6.07l0.06,0.09c-0.43-0.14-0.69-0.2-0.78-0.17c-0.13,0-1.26-0.09-3.41-0.27
	c-2.15-0.18-4.28,0.22-6.39,1.2c-2.11,0.98-4.06,2.32-5.84,4.04c-1.78,1.71-3.21,3.46-4.3,5.24c-1.08,1.78-1.92,3.81-2.52,6.09
	c-0.59,2.29-0.96,4.4-1.11,6.33c-0.15,1.93,0.07,3.77,0.65,5.5c0.58,1.73,1.61,3.38,3.09,4.93c1.48,1.56,3.23,2.95,5.23,4.19
	c2,1.24,4.71,3.53,8.11,6.88"/>
<path id="STROKE_cd2fb82a-9a2c-4786-9ba3-b6906fcfe884" class="st20" d="M912.65,745.7c0.11,0.11,0.16,0.18,0.17,0.21
	c-0.1,0.02-0.12,0.05-0.08,0.1c0.04,0.04-0.95-0.09-2.96-0.39c-2.01-0.3-3.47-0.52-4.38-0.66c-0.9-0.14-2.02-0.55-3.36-1.23
	s-2.48-2.1-3.42-4.26c-0.94-2.16-1.59-3.81-1.95-4.94c-0.36-1.13-0.65-2.52-0.86-4.15c-0.21-1.63-0.31-2.9-0.29-3.82
	c0.02-0.92,0.41-1.86,1.18-2.81c0.77-0.95,1.63-1.75,2.58-2.39c0.95-0.64,2.16-1.09,3.63-1.34c1.46-0.25,2.59-0.24,3.38,0.02
	s1.36,0.89,1.71,1.86c-0.11,0.09-0.15,0.17-0.12,0.24c0.03,0.07-0.22,0.11-0.73,0.12c-0.51,0.01-0.95,0.02-1.3,0.03
	c-0.36,0.01-0.89-0.27-1.59-0.83c-0.7-0.56-1.21-1.08-1.53-1.56c-0.32-0.48-0.57-0.9-0.73-1.24c-0.16-0.35-0.34-0.71-0.53-1.09
	c-0.19-0.38-0.46-1.44-0.8-3.17c-0.34-1.73-0.49-3.65-0.45-5.75c0.04-2.1,0.37-4.05,0.98-5.82c0.61-1.78,1.63-3.6,3.07-5.46
	c1.44-1.87,2.99-3.41,4.66-4.65c1.66-1.23,3.25-2.1,4.75-2.59c1.5-0.49,2.91-0.65,4.23-0.48c1.31,0.18,2.41,0.67,3.28,1.47
	c0.87,0.8,1.65,1.66,2.34,2.59c0.69,0.93,1.78,3.15,3.29,6.67c-0.01,0.04-0.16,0.02-0.46-0.05c-0.3-0.08-0.54-0.2-0.73-0.36
	c-0.18-0.17-0.31-0.3-0.39-0.4c-0.08-0.1-0.14-0.15-0.21-0.16s-0.19-0.31-0.38-0.91c-0.19-0.6-0.31-1.25-0.36-1.95
	c-0.05-0.7,0-1.47,0.15-2.31c0.15-0.84,0.34-1.6,0.59-2.3c0.25-0.7,1.09-1.91,2.54-3.63c1.45-1.72,2.73-3.1,3.85-4.15
	s2.42-2.04,3.91-3c1.49-0.96,2.95-1.65,4.37-2.07c1.42-0.42,2.62-0.65,3.59-0.68s2.2,0.78,3.68,2.45c1.48,1.66,2.78,3.61,3.88,5.85
	c1.11,2.23,1.86,4.04,2.27,5.41c0.41,1.37,0.68,2.53,0.81,3.47c0.13,0.94,0.23,2.17,0.32,3.7c0.08,1.53,0.04,3-0.12,4.42
	c-0.17,1.41-0.47,2.6-0.9,3.57c-0.43,0.97-1.1,1.91-2,2.82c-0.05-0.1-0.11-0.14-0.17-0.12c-0.06,0.01,0.25-0.42,0.92-1.3
	c0.67-0.88,1.43-1.59,2.28-2.12c0.84-0.53,1.53-0.88,2.07-1.06c0.54-0.17,1.48-0.3,2.81-0.37c1.34-0.07,2.64,0.12,3.92,0.57
	c1.28,0.46,2.26,1.01,2.94,1.66c0.68,0.65,1.34,1.7,1.99,3.14c0.65,1.44,1.08,2.94,1.3,4.5c0.22,1.56,0.39,3.55,0.51,5.98
	c0.12,2.42,0.15,4.47,0.1,6.14c-0.05,1.67-0.45,3.3-1.21,4.89c-0.76,1.59-1.84,3.08-3.25,4.47c-1.41,1.39-3.78,2.18-7.11,2.38
	l-0.07-0.25c-0.04-0.01,0.15-0.04,0.57-0.08c0.41-0.04,0.91,0.04,1.48,0.26c0.57,0.22,0.99,0.45,1.26,0.68
	c0.26,0.23,0.52,0.56,0.78,1.01c0.26,0.44,0.47,1.19,0.64,2.24c0.17,1.05,0.21,2.44,0.12,4.18c-0.09,1.74-0.46,3.41-1.11,5
	c-0.65,1.6-1.44,3.2-2.36,4.81c-0.92,1.61-2.07,3.02-3.46,4.22c-1.39,1.2-2.69,2.03-3.89,2.49c-1.21,0.46-2.49,0.8-3.87,1.03
	c-1.37,0.23-3.26,0.14-5.66-0.28c-2.4-0.42-4.04-0.76-4.93-1.02c-0.88-0.26-1.22-0.35-1-0.25c0.22,0.1,0.34,0.16,0.36,0.2
	c0.02,0.03,0.12,0.24,0.28,0.64c0.16,0.4,0.24,0.6,0.23,0.61c0,0.01-0.01,0.11-0.01,0.3c0,0.19,0.02,0.28,0.05,0.29
	c0.04,0.01-0.09,0.37-0.38,1.09c-0.29,0.72-0.72,1.43-1.29,2.12c-0.57,0.7-1.32,1.42-2.25,2.16s-1.84,1.27-2.72,1.58
	c-0.88,0.31-1.75,0.52-2.61,0.61c-0.86,0.1-1.91-0.01-3.16-0.3c-1.25-0.3-2.97-1.33-5.15-3.11c-2.18-1.77-3.86-3.3-5.04-4.58
	c-1.18-1.28-2.05-2.25-2.61-2.92c-0.56-0.67-1.42-1.45-2.59-2.36c-0.44-0.92-0.69-1.52-0.75-1.79c-0.06-0.28-0.1-0.55-0.12-0.83
	c-0.03-0.28-0.06-0.78-0.12-1.51c-0.05-0.73-0.03-1.48,0.06-2.26c0.09-0.78,0.25-1.48,0.48-2.11c0.23-0.63,1.56-1.58,4-2.85"/>
<path id="STROKE_48f3b6c9-d1c5-46ec-acf3-498fe272b426" class="st21" d="M906.75,511.02c-0.16-0.58-0.27-0.89-0.34-0.92l-0.33-0.4
	c-0.93-0.49-1.98-0.6-3.15-0.33c-1.17,0.27-2.09,0.64-2.76,1.11c-0.67,0.46-1.79,1.25-3.35,2.35c-1.56,1.1-3.1,2.34-4.61,3.71
	c-1.51,1.37-2.68,3.08-3.5,5.1c-0.82,2.03-1.35,3.57-1.57,4.61c-0.22,1.05-0.4,2.73-0.54,5.06c-0.14,2.33-0.16,4.41-0.06,6.24
	c0.1,1.83,0.43,3.35,0.99,4.54c0.56,1.19,1.17,2.07,1.83,2.63c0.66,0.56,1.26,0.94,1.79,1.12c0.53,0.19,0.91,0.3,1.15,0.33
	c0.23,0.04,0.49,0.1,0.78,0.18c0.29,0.09,2.06-0.21,5.3-0.89c0.08-0.09-0.26-0.31-1.01-0.66c-0.75-0.34-1.42-0.53-1.99-0.57
	c-0.57-0.03-1.19,0.04-1.87,0.22c-0.67,0.18-1.12,0.36-1.34,0.52c-0.22,0.16-0.35,0.26-0.39,0.28c-0.04,0.03-0.17,0.15-0.39,0.37
	c-0.22,0.22-0.36,0.35-0.41,0.41c-0.05,0.05-0.44,0.67-1.15,1.84c-0.72,1.18-1.37,2.69-1.95,4.54c-0.58,1.85-0.99,3.8-1.22,5.85
	c-0.23,2.05-0.32,3.93-0.27,5.62c0.05,1.69,1.13,4.14,3.25,7.33c2.12,3.2,3.91,5.64,5.37,7.33c1.46,1.7,2.6,2.93,3.43,3.71
	c0.83,0.78,2.08,1.38,3.74,1.79c1.66,0.42,3.18,0.23,4.56-0.55c1.38-0.78,2.34-1.87,2.88-3.26c-0.01,0-0.03-0.12-0.05-0.36
	l-0.02,0.01c-0.02,0.4-0.02,1.35,0.02,2.83c0.04,1.49,0.18,2.75,0.43,3.8c0.25,1.04,1,2.45,2.24,4.21c1.25,1.77,2.79,3.01,4.61,3.72
	c1.83,0.72,3.49,1.17,4.97,1.36c1.48,0.19,3.17-0.05,5.05-0.72c1.88-0.67,3.85-1.65,5.88-2.95c2.04-1.3,3.53-2.26,4.47-2.88
	c0.94-0.62,1.61-1.21,2.02-1.78c0.4-0.57,0.66-0.98,0.77-1.24c0.11-0.26,0.21-0.55,0.31-0.87c0.1-0.32,0.16-0.55,0.2-0.7
	c0.03-0.15,0.11-0.51,0.23-1.1c0.12-0.59,0.27-1.35,0.45-2.28l0.1,0.09c0.36,0.19,0.56,0.29,0.6,0.28c0.46,0.23,1.87,0.55,4.21,0.94
	c2.34,0.4,4.56,0.44,6.65,0.13c2.09-0.31,4.4-1.21,6.91-2.69c2.51-1.48,4.53-2.84,6.05-4.07c1.52-1.23,2.74-2.46,3.67-3.67
	c0.92-1.22,1.49-3.72,1.7-7.53c0.21-3.8-0.18-7.96-1.17-12.49c0.05-0.06,0.21-0.26,0.45-0.62c0.25-0.36,0.49-0.74,0.73-1.15
	c0.24-0.41,0.49-0.93,0.76-1.54c0.27-0.62,0.46-1.11,0.58-1.46c0.12-0.36,0.35-1.21,0.7-2.57c0.34-1.36,0.59-3.24,0.75-5.64
	c0.16-2.4-0.09-4.9-0.74-7.5c-0.65-2.59-1.4-4.45-2.24-5.57c-0.84-1.12-2.31-2.28-4.4-3.48c-2.09-1.21-3.68-2.1-4.77-2.69
	s-1.9-0.94-2.43-1.07c-0.52-0.13-0.94-0.16-1.26-0.08c-0.08,0.1-0.09,0.38-0.03,0.84c-0.01,0.03,0.18,0.11,0.59,0.22
	c0.4,0.11,0.81,0.01,1.23-0.29c0.41-0.31,0.76-0.74,1.03-1.3c0.28-0.56,0.43-0.92,0.48-1.06c0.04-0.15,0.1-0.47,0.19-0.97
	c0.09-0.5,0.18-1.3,0.28-2.39c0.1-1.09-0.12-2.36-0.65-3.79c-0.53-1.43-1.08-2.62-1.64-3.58s-1.33-1.93-2.3-2.93
	c-0.98-0.99-2.34-1.95-4.08-2.86c-1.74-0.92-5.86-1.45-12.33-1.6c-0.01,0.01-0.01-0.01,0-0.04c0.02-0.09-0.35-0.74-1.13-1.95
	c-0.78-1.21-1.63-2.27-2.54-3.17c-0.92-0.9-1.56-1.45-1.92-1.65c-0.37-0.2-0.73-0.37-1.09-0.52c-0.36-0.14-0.9-0.27-1.61-0.39
	c-0.71-0.12-1.37-0.19-1.98-0.21c-0.6-0.02-1.41,0.1-2.42,0.36s-2.15,0.61-3.4,1.03c-1.25,0.43-3.02,0.95-5.3,1.54
	c-2.28,0.6-4.33,1.21-6.14,1.83c-1.82,0.62-3.44,1.64-4.86,3.08s-2.48,2.88-3.15,4.36c-0.68,1.48-1.09,2.77-1.23,3.88
	c-0.14,1.11-0.21,2.1-0.2,2.96c0.01,0.86,0.05,1.68,0.11,2.46c0.06,0.78,0.41,1.72,1.03,2.82c0.62,1.1,1.28,1.74,1.99,1.93
	l0.41-0.24"/>
<path id="STROKE_fbfead95-1231-414e-8133-ddb8a5876277" class="st22" d="M866.96,336.98c-0.16-0.05-0.41-0.18-0.75-0.37
	c-0.35-0.19-0.54-0.29-0.57-0.3l-0.77-0.17c-0.46-0.08-1.15,0.2-2.06,0.85c-0.92,0.65-1.66,1.27-2.24,1.86
	c-0.57,0.59-0.97,1.01-1.19,1.26c-0.22,0.24-0.85,1.19-1.91,2.85c-1.05,1.66-1.91,3.76-2.57,6.32c-0.66,2.55-1.05,5.17-1.16,7.84
	c-0.11,2.67-0.1,5.02,0.03,7.03s0.73,3.92,1.79,5.71s2.01,3.15,2.84,4.06c0.83,0.92,1.79,1.68,2.89,2.28
	c1.09,0.6,1.98,0.91,2.66,0.92c0.68,0.01,1.13-0.02,1.35-0.08c0.22-0.07,0.42-0.2,0.6-0.39c0.18-0.19,0.32-0.52,0.42-0.99
	c0.09-0.47,0.13-0.71,0.12-0.73c-0.01-0.01-0.08-0.15-0.21-0.4s-0.19-0.38-0.21-0.4c-0.01-0.01-0.08-0.08-0.21-0.21
	c-0.13-0.13-0.3-0.27-0.52-0.42c-0.22-0.15-0.33-0.24-0.35-0.25c-0.02-0.02-0.2-0.08-0.55-0.2c-0.35-0.12-0.68-0.16-0.97-0.12
	c-0.29,0.03-0.56,0.15-0.8,0.34c-0.24,0.2-0.65,0.66-1.22,1.4s-1.2,2.14-1.89,4.22c-0.68,2.08-1.11,4.16-1.27,6.24
	c-0.16,2.08-0.16,4.05,0.01,5.89c0.17,1.85,0.67,3.8,1.52,5.85c0.85,2.06,1.84,3.77,2.96,5.13c1.12,1.36,2.49,2.36,4.1,2.99
	c1.62,0.63,3.26,1,4.93,1.11c1.67,0.11,3.34-0.1,5.01-0.63c1.67-0.53,3.29-1.27,4.86-2.22c1.57-0.95,2.8-1.77,3.69-2.47
	c0.89-0.69,1.63-1.65,2.21-2.88c0.59-1.22,1.2-2.87,1.85-4.95c0.1,0.1,0.32,0.39,0.67,0.87c0.35,0.49,1.65,1.29,3.9,2.41
	c2.25,1.12,4.6,1.76,7.07,1.93c2.46,0.17,4.51,0.09,6.14-0.26c1.63-0.34,2.86-0.78,3.68-1.3c0.82-0.53,1.53-1.02,2.12-1.47
	c0.59-0.46,1.21-1.08,1.85-1.86c0.64-0.78,1.52-2.13,2.65-4.04c1.13-1.92,1.94-3.86,2.44-5.83c0.5-1.97,0.77-3.71,0.82-5.22
	c0.04-1.51-0.11-3.1-0.48-4.77s-0.92-3.13-1.69-4.38c-0.76-1.25-1.3-2.02-1.61-2.32c-0.31-0.3-0.75-0.64-1.31-1.04
	c-0.56-0.39-0.98-0.64-1.25-0.73c-0.27-0.1-0.51-0.17-0.71-0.21c-0.2-0.05-0.41-0.08-0.63-0.1c0.19,0.05,0.29,0.06,0.29,0.05
	c0.36,0,0.56,0.02,0.59,0.04c0.03,0.02,0.57-0.1,1.62-0.35c1.05-0.25,2.18-0.76,3.39-1.53c1.21-0.77,2.25-1.64,3.14-2.61
	c0.89-0.97,1.7-1.9,2.45-2.79c0.75-0.89,1.35-2.27,1.81-4.11c0.46-1.85,0.49-4,0.09-6.46c-0.4-2.46-0.89-4.62-1.49-6.49
	s-1.21-3.34-1.83-4.42c-0.62-1.07-1.98-2.12-4.08-3.14c-2.1-1.02-4.17-1.71-6.2-2.07c-2.03-0.36-3.42-0.51-4.15-0.47
	c-0.73,0.05-1.34,0.18-1.82,0.39s-0.97,0.48-1.46,0.79c-0.49,0.31-0.75,0.48-0.76,0.49c-0.01,0.02-0.22,0.16-0.61,0.42
	c-0.4,0.26-1.02,0.79-1.88,1.59c-0.85,0.8-1.47,1.51-1.86,2.12c-0.39,0.61-0.59,1.07-0.62,1.37c-0.03,0.3-0.04,0.47-0.04,0.51
	c0,0.03,0.08,0.12,0.23,0.27c0.15,0.14,0.35,0.24,0.59,0.3c0.24,0.06,0.38,0.09,0.43,0.09c0.05,0,0.26-0.04,0.64-0.12
	s0.64-0.17,0.78-0.26c0.14-0.1,0.22-0.15,0.23-0.15c0.01,0,0.26-0.36,0.73-1.07c0.48-0.71,0.8-1.85,0.97-3.43
	c0.17-1.58,0.24-2.84,0.21-3.77c-0.03-0.93-0.18-1.92-0.44-2.95c-0.26-1.04-0.72-2.05-1.39-3.04s-1.23-1.65-1.68-1.98
	c-0.45-0.33-0.79-0.56-1.02-0.68c-0.23-0.12-0.47-0.24-0.74-0.36s-1.13-0.48-2.58-1.1c-1.45-0.62-2.56-1.06-3.32-1.33
	c-0.76-0.27-1.86-0.47-3.29-0.6c-1.43-0.13-3.06-0.12-4.87,0.04c-1.81,0.16-3.35,0.72-4.61,1.69c-1.26,0.97-2.39,2.02-3.39,3.14
	c-1,1.12-1.84,1.97-2.52,2.54c-0.68,0.57-1.23,0.99-1.63,1.24c-0.4,0.25-0.86,0.57-1.37,0.94c-0.51,0.37-0.91,0.72-1.2,1.04
	c-0.28,0.32-0.47,0.55-0.57,0.7c-0.09,0.14-0.21,0.36-0.34,0.64c-0.14,0.28-0.44,1.19-0.91,2.72c-0.47,1.53-0.76,2.64-0.88,3.34
	c-0.12,0.7-0.19,1.29-0.21,1.77c-0.02,0.48-0.03,0.85-0.01,1.12c0.02,0.27,0.11,0.62,0.27,1.06c0.17,0.44,0.28,0.67,0.33,0.7
	c0.18,0.09,0.63,0.63,1.35,1.62"/>
<path id="STROKE_07d2dd7f-bac7-4678-9d06-0440d54ab897" class="st23" d="M860.85,174.02c0.19-0.68,0.3-1.04,0.32-1.08
	c0.02-0.04,0.06-0.2,0.11-0.49c0.06-0.29,0.09-0.47,0.09-0.55c0-0.08-0.07-0.29-0.22-0.63c-0.15-0.34-0.28-0.53-0.38-0.56
	c-0.53-0.25-1.35-0.45-2.45-0.58s-2.14-0.04-3.12,0.26c-0.98,0.3-2.02,0.83-3.11,1.58c-1.09,0.75-2.05,1.52-2.88,2.32
	c-0.83,0.79-1.46,1.54-1.89,2.25c-0.43,0.71-1.19,3.2-2.26,7.48c-1.07,4.28-1.84,8.08-2.29,11.4c-0.45,3.32-0.69,5.74-0.72,7.25
	c-0.03,1.51,0.16,3.12,0.56,4.84c0.4,1.72,0.7,2.83,0.9,3.33c0.19,0.5,0.59,1.37,1.18,2.62c0.6,1.25,1.53,2.66,2.8,4.23
	c1.27,1.57,3.09,2.71,5.44,3.43c2.35,0.72,4.37,1.09,6.05,1.11c1.68,0.02,3.27-0.17,4.77-0.57c1.5-0.4,2.93-1.26,4.3-2.57
	c1.37-1.31,2.33-2.41,2.87-3.31c0.54-0.9,0.84-1.56,0.9-1.97c0.06-0.42,0.07-0.78,0.04-1.08c-0.03-0.3-0.05-0.48-0.06-0.52
	c-0.01-0.04-0.15-0.21-0.42-0.5c-0.27-0.29-0.53-0.5-0.78-0.62c-0.24-0.12-0.4-0.19-0.47-0.19c-0.07-0.01-0.12-0.03-0.16-0.06
	c-0.03-0.03-0.21-0.02-0.54,0.05c-0.32,0.07-0.5,0.11-0.52,0.15c-0.02,0.03-0.18,0.26-0.49,0.67c-0.3,0.41-0.48,0.69-0.53,0.83
	c-0.05,0.14-0.14,0.38-0.25,0.73c-0.11,0.35-0.27,1.4-0.48,3.14c-0.2,1.74-0.28,3.18-0.23,4.3c0.05,1.12,0.23,2.1,0.54,2.95
	c0.32,0.84,1.05,1.93,2.21,3.27c1.15,1.34,2.57,2.62,4.25,3.86c1.68,1.24,3.18,2.15,4.5,2.73c1.32,0.58,2.86,1.03,4.64,1.33
	c1.77,0.3,3.75,0.25,5.93-0.15c2.18-0.4,4.19-0.99,6.02-1.78c1.84-0.79,3.49-1.67,4.97-2.65c1.48-0.98,2.57-1.85,3.27-2.61
	c0.7-0.76,1.39-1.65,2.06-2.68c0.67-1.02,1.27-2.16,1.8-3.42c0.52-1.26,0.91-2.73,1.17-4.43c0.26-1.7,0.31-3.21,0.17-4.53
	c-0.15-1.32-0.33-2.44-0.55-3.38c-0.22-0.93-0.33-1.79-0.35-2.58c0.26,0.39,0.78,0.82,1.57,1.3c0.79,0.48,1.86,0.75,3.2,0.82
	c1.35,0.07,2.52,0.08,3.53,0.03c1.01-0.05,2.67-0.55,4.99-1.5c2.32-0.95,4.23-1.94,5.73-2.94c1.5-1.01,2.68-2.1,3.52-3.29
	c0.84-1.18,1.47-3.03,1.87-5.54c0.41-2.51,0.54-4.61,0.41-6.3s-0.34-2.96-0.62-3.81c-0.28-0.84-0.61-1.79-0.98-2.83
	c-0.37-1.04-0.68-1.87-0.93-2.48c-0.25-0.61-0.51-1.18-0.76-1.71c-0.25-0.53-0.7-1.39-1.34-2.57s-1.43-2.23-2.37-3.17
	c-0.94-0.93-2.03-1.55-3.25-1.84c-1.22-0.3-2.35-0.47-3.38-0.52c-1.03-0.05-1.97,0.01-2.82,0.18c-0.85,0.17-1.37,0.33-1.56,0.48
	c-0.19,0.15-0.36,0.34-0.49,0.57c-0.13,0.23-0.21,0.36-0.22,0.41c-0.01,0.04,0.02,0.25,0.1,0.63c0.27,0.11,0.68,0.2,1.21,0.27
	c0.54,0.07,1.44-0.18,2.72-0.76c1.28-0.58,2.34-1.27,3.18-2.09c0.84-0.81,1.47-1.69,1.88-2.62c0.41-0.93,0.69-2.02,0.83-3.28
	c0.14-1.25-0.05-2.52-0.57-3.82c-0.52-1.29-1.06-2.28-1.63-2.95c-0.57-0.68-0.99-1.16-1.25-1.44c-0.26-0.28-0.96-0.89-2.11-1.82
	s-2.08-1.65-2.8-2.15c-0.72-0.5-1.42-0.9-2.1-1.19c-0.68-0.29-1.67-0.65-2.95-1.09c-1.28-0.44-2.76-0.83-4.44-1.18
	c-1.68-0.35-2.97-0.58-3.89-0.68c-0.92-0.1-1.89,0.06-2.91,0.48c-1.02,0.43-1.87,0.9-2.55,1.42c-0.68,0.52-1.45,1.15-2.3,1.89
	c-0.85,0.74-1.48,1.78-1.88,3.11c-0.4,1.33-0.6,2.31-0.61,2.93c-0.01,0.63,0.02,1.14,0.08,1.53c0.06,0.39,0.69,0.79,1.9,1.19
	c0.1,0.03,0.24-0.37,0.41-1.2c0.17-0.83,0.21-1.63,0.12-2.41c-0.09-0.78-0.22-1.38-0.4-1.81c-0.17-0.43-0.54-1.09-1.11-1.97
	c-0.57-0.88-1.49-1.9-2.77-3.05c-1.28-1.15-2.86-1.97-4.75-2.45c-1.89-0.48-3.85-0.76-5.9-0.84c-2.05-0.08-3.65-0.01-4.79,0.21
	c-1.14,0.22-2.14,0.57-3,1.07c-0.86,0.49-1.59,1.06-2.21,1.72c-0.62,0.65-1.17,1.35-1.66,2.09s-0.74,1.15-0.77,1.22
	c-0.02,0.07-0.66,1.04-1.92,2.93c-1.26,1.88-2.24,3.87-2.93,5.97c-0.69,2.1-1.11,3.77-1.25,5.03c-0.14,1.26-0.15,2.3-0.01,3.14
	s0.27,1.54,0.42,2.09c0.14,0.55,0.29,1.24,0.43,2.05"/>
<path id="STROKE_efbbc500-7e4f-4561-912b-6ca788fe96d6" class="st24" d="M861.45,59.09c-0.22-0.08-0.51-0.25-0.87-0.49
	c-0.36-0.25-0.54-0.37-0.54-0.36c-0.03-0.05-0.65,0.76-1.85,2.42c-1.2,1.66-2.37,3.75-3.49,6.29c-1.13,2.54-1.91,5-2.34,7.4
	c-0.44,2.4-0.63,4.24-0.57,5.54c0.05,1.29,0.15,2.25,0.3,2.86c0.14,0.61,0.45,1.4,0.92,2.37c0.47,0.97,1.3,2.07,2.47,3.31
	c1.18,1.24,2.11,2.05,2.8,2.45c0.69,0.39,1.36,0.71,2.01,0.94c0.65,0.23,1.59,0.41,2.81,0.54c1.23,0.12,2.41-0.25,3.54-1.12
	c1.13-0.87,1.9-1.53,2.3-1.97c0.4-0.45,0.68-0.78,0.84-1c0.16-0.22,0.35-0.55,0.56-0.97c0.21-0.42,0.35-0.84,0.42-1.24
	s0.1-0.73,0.08-0.97c-0.12-0.07-0.18-0.13-0.16-0.17c0.01-0.04-0.12-0.01-0.39,0.08c-0.28,0.09-0.53,0.37-0.75,0.82
	c-0.23,0.46-0.37,0.76-0.44,0.92c-0.07,0.16-0.21,0.86-0.42,2.12c-0.21,1.26-0.18,2.6,0.09,4.02c0.28,1.43,0.8,2.64,1.59,3.63
	c0.78,0.99,2.07,1.95,3.86,2.88c1.79,0.93,3.59,1.53,5.4,1.79s3.6,0.41,5.37,0.46c1.77,0.05,3.11,0.02,4.04-0.07
	c0.92-0.09,2.05-0.4,3.39-0.94c1.34-0.53,2.38-0.96,3.12-1.26c0.74-0.31,1.72-0.73,2.92-1.25s2.38-1.16,3.54-1.89
	c1.16-0.73,1.97-1.39,2.45-1.99s0.93-1.4,1.37-2.43c0.44-1.02,0.7-2.4,0.79-4.13c0.09-1.73-0.55-4.83-1.95-9.31
	c-0.05,0.01,0.74,0.06,2.36,0.14c1.62,0.09,3.35-0.23,5.18-0.95c1.83-0.73,3.59-1.84,5.28-3.34c1.69-1.5,3.06-3.32,4.11-5.46
	c1.05-2.14,1.74-4.07,2.08-5.81c0.34-1.73,0.32-3.34-0.04-4.83c-0.36-1.48-0.82-2.83-1.38-4.05c-0.56-1.22-1.07-2.34-1.55-3.38
	c-0.48-1.04-1.04-1.97-1.7-2.8c-0.66-0.83-1.59-1.46-2.81-1.91c-1.22-0.45-2.14-0.74-2.76-0.87c-0.63-0.13-1.49-0.23-2.6-0.29
	c-1.1-0.06-1.98-0.01-2.62,0.16c-0.64,0.17-1.19,0.38-1.66,0.63c-0.46,0.25-0.87,0.57-1.22,0.96c-0.35,0.39-0.6,0.78-0.74,1.16
	c-0.14,0.38-0.22,0.66-0.22,0.82c0,0.16,0.03,0.38,0.11,0.64l0.69,0.13c0.52-0.19,0.79-0.3,0.8-0.32c0.57-0.43,1.27-1.21,2.1-2.36
	c0.83-1.15,1.32-2.6,1.47-4.36c0.14-1.75,0.01-3.26-0.39-4.51c-0.4-1.25-1.15-2.42-2.23-3.51c-1.09-1.09-2.29-1.91-3.61-2.48
	c-1.32-0.56-2.74-1.12-4.26-1.66c-1.52-0.54-3.32-0.95-5.4-1.23c-2.08-0.27-3.94-0.27-5.58-0.01c-1.63,0.27-2.88,0.56-3.72,0.89
	c-0.85,0.33-1.5,0.63-1.97,0.91c-0.47,0.28-1.04,0.72-1.72,1.32c-0.68,0.6-1.28,1.39-1.8,2.37c-0.52,0.98-0.88,2.03-1.09,3.16
	c-0.21,1.13,0.54,2.85,2.25,5.19c0.03,0.05,0.03-0.02-0.02-0.23c-0.05-0.2-0.24-0.48-0.56-0.84c-0.32-0.35-0.66-0.67-1.02-0.96
	c-0.35-0.29-0.63-0.49-0.82-0.62c-0.19-0.13-0.68-0.32-1.46-0.59c-0.78-0.27-1.7-0.48-2.75-0.63c-1.05-0.16-2.08-0.2-3.11-0.14
	c-1.02,0.07-1.67,0.13-1.94,0.18c-0.27,0.05-0.89,0.31-1.86,0.75c-0.97,0.45-1.64,0.82-2,1.12c-0.36,0.3-0.68,0.59-0.94,0.87
	c-0.26,0.28-0.4,0.43-0.41,0.46c-0.01,0.03-0.18,0.24-0.5,0.64c-0.32,0.4-0.88,1.12-1.66,2.16c-0.78,1.04-1.38,2.31-1.81,3.83
	s-0.7,2.78-0.81,3.77c-0.12,1-0.2,1.73-0.25,2.19c-0.05,0.46,0.06,1.25,0.33,2.38c0.27,1.13,0.84,2.24,1.72,3.32
	c0.88,1.08,1.48,2.02,1.82,2.81c0.34,0.79,0.5,1.35,0.48,1.7c-0.02,0.35-0.09,0.66-0.23,0.94c-0.14,0.28-0.44,0.69-0.9,1.24"/>
</svg>
