<?xml version="1.0" encoding="utf-8"?>
<!-- Generator: Adobe Illustrator 28.0.0, SVG Export Plug-In . SVG Version: 6.00 Build 0)  -->
<svg version="1.1" id="Layer_1" xmlns="http://www.w3.org/2000/svg" xmlns:xlink="http://www.w3.org/1999/xlink" x="0px" y="0px"
	 viewBox="0 0 1158.49 898.84" style="enable-background:new 0 0 1158.49 898.84;" xml:space="preserve">
<style type="text/css">
	.st0{fill:none;stroke:#191815;stroke-width:3.116;stroke-linecap:round;stroke-linejoin:round;stroke-opacity:0.976;}
	.st1{fill:none;stroke:#191815;stroke-width:2.72;stroke-linecap:round;stroke-linejoin:round;stroke-opacity:0.908;}
	.st2{fill:none;stroke:#191815;stroke-width:2.956;stroke-linecap:round;stroke-linejoin:round;stroke-opacity:0.898;}
	.st3{fill:none;stroke:#191815;stroke-width:3.066;stroke-linecap:round;stroke-linejoin:round;stroke-opacity:0.966;}
	.st4{fill:none;stroke:#191815;stroke-width:3.244;stroke-linecap:round;stroke-linejoin:round;stroke-opacity:0.96;}
	.st5{fill:none;stroke:#191815;stroke-width:2.877;stroke-linecap:round;stroke-linejoin:round;stroke-opacity:0.886;}
	.st6{fill:none;stroke:#191815;stroke-width:2.898;stroke-linecap:round;stroke-linejoin:round;stroke-opacity:0.897;}
	.st7{fill:none;stroke:#191815;stroke-width:2.844;stroke-linecap:round;stroke-linejoin:round;stroke-opacity:0.909;}
	.st8{fill:none;stroke:#191815;stroke-width:3.169;stroke-linecap:round;stroke-linejoin:round;stroke-opacity:0.953;}
	.st9{fill:none;stroke:#191815;stroke-width:2.99;stroke-linecap:round;stroke-linejoin:round;stroke-opacity:0.897;}
	.st10{fill:none;stroke:#191815;stroke-width:2.949;stroke-linecap:round;stroke-linejoin:round;stroke-opacity:0.927;}
	.st11{fill:none;stroke:#191815;stroke-width:3.095;stroke-linecap:round;stroke-linejoin:round;stroke-opacity:0.946;}
	.st12{fill:none;stroke:#191815;stroke-width:2.847;stroke-linecap:round;stroke-linejoin:round;stroke-opacity:0.917;}
	.st13{fill:none;stroke:#191815;stroke-width:2.925;stroke-linecap:round;stroke-linejoin:round;stroke-opacity:0.902;}
	.st14{fill:none;stroke:#191815;stroke-width:2.824;stroke-linecap:round;stroke-linejoin:round;stroke-opacity:0.936;}
	.st15{fill:none;stroke:#191815;stroke-width:3.088;stroke-linecap:round;stroke-linejoin:round;stroke-opacity:0.968;}
	.st16{fill:none;stroke:#191815;stroke-width:2.87;stroke-linecap:round;stroke-linejoin:round;stroke-opacity:0.94;}
	.st17{fill:none;stroke:#191815;stroke-width:2.712;stroke-linecap:round;stroke-linejoin:round;stroke-opacity:0.899;}
	.st18{fill:none;stroke:#191815;stroke-width:2.988;stroke-linecap:round;stroke-linejoin:round;stroke-opacity:0.953;}
	.st19{fill:none;stroke:#191815;stroke-width:3.103;stroke-linecap:round;stroke-linejoin:round;stroke-opacity:0.983;}
	.st20{fill:none;stroke:#191815;stroke-width:3.087;stroke-linecap:round;stroke-linejoin:round;stroke-opacity:0.945;}
	.st21{fill:none;stroke:#191815;stroke-width:2.879;stroke-linecap:round;stroke-linejoin:round;stroke-opacity:0.9;}
	.st22{fill:none;stroke:#191815;stroke-width:2.925;stroke-linecap:round;stroke-linejoin:round;stroke-opacity:0.939;}
	.st23{fill:none;stroke:#191815;stroke-width:3.079;stroke-linecap:round;stroke-linejoin:round;stroke-opacity:0.96;}
	.st24{fill:none;stroke:#191815;stroke-width:3.097;stroke-linecap:round;stroke-linejoin:round;stroke-opacity:0.98;}
	.st25{fill:none;stroke:#191815;stroke-width:3.074;stroke-linecap:round;stroke-linejoin:round;stroke-opacity:0.965;}
	.st26{fill:none;stroke:#191815;stroke-width:2.993;stroke-linecap:round;stroke-linejoin:round;stroke-opacity:0.968;}
	.st27{fill:none;stroke:#191815;stroke-width:2.977;stroke-linecap:round;stroke-linejoin:round;stroke-opacity:0.94;}
	.st28{fill:none;stroke:#191815;stroke-width:2.987;stroke-linecap:round;stroke-linejoin:round;stroke-opacity:0.963;}
	.st29{fill:none;stroke:#191815;stroke-width:2.916;stroke-linecap:round;stroke-linejoin:round;stroke-opacity:0.939;}
	.st30{fill:none;stroke:#191815;stroke-width:2.859;stroke-linecap:round;stroke-linejoin:round;stroke-opacity:0.936;}
	.st31{fill:none;stroke:#191815;stroke-width:2.698;stroke-linecap:round;stroke-linejoin:round;stroke-opacity:0.902;}
	.st32{fill:none;stroke:#191815;stroke-width:2.743;stroke-linecap:round;stroke-linejoin:round;stroke-opacity:0.91;}
	.st33{fill:none;stroke:#191815;stroke-width:2.766;stroke-linecap:round;stroke-linejoin:round;stroke-opacity:0.918;}
	.st34{fill:none;stroke:#191815;stroke-width:2.912;stroke-linecap:round;stroke-linejoin:round;stroke-opacity:0.947;}
	.st35{fill:none;stroke:#191815;stroke-width:2.839;stroke-linecap:round;stroke-linejoin:round;stroke-opacity:0.941;}
	.st36{fill:none;stroke:#191815;stroke-width:2.774;stroke-linecap:round;stroke-linejoin:round;stroke-opacity:0.904;}
	.st37{fill:none;stroke:#191815;stroke-width:2.665;stroke-linecap:round;stroke-linejoin:round;stroke-opacity:0.854;}
	.st38{fill:none;stroke:#191815;stroke-width:2.809;stroke-linecap:round;stroke-linejoin:round;stroke-opacity:0.918;}
	.st39{fill:none;stroke:#191815;stroke-width:2.74;stroke-linecap:round;stroke-linejoin:round;stroke-opacity:0.834;}
	.st40{fill:none;stroke:#191815;stroke-width:2.578;stroke-linecap:round;stroke-linejoin:round;stroke-opacity:0.877;}
	.st41{fill:none;stroke:#191815;stroke-width:2.588;stroke-linecap:round;stroke-linejoin:round;stroke-opacity:0.884;}
	.st42{fill:none;stroke:#191815;stroke-width:2.847;stroke-linecap:round;stroke-linejoin:round;stroke-opacity:0.825;}
	.st43{fill:none;stroke:#191815;stroke-width:3.152;stroke-linecap:round;stroke-linejoin:round;stroke-opacity:0.929;}
	.st44{fill:none;stroke:#191815;stroke-width:3.18;stroke-linecap:round;stroke-linejoin:round;stroke-opacity:0.977;}
	.st45{fill:none;stroke:#191815;stroke-width:3.364;stroke-linecap:round;stroke-linejoin:round;stroke-opacity:0.999;}
	.st46{fill:none;stroke:#191815;stroke-width:3.179;stroke-linecap:round;stroke-linejoin:round;stroke-opacity:0.901;}
	.st47{fill:none;stroke:#191815;stroke-width:3.072;stroke-linecap:round;stroke-linejoin:round;stroke-opacity:0.936;}
	.st48{fill:none;stroke:#191815;stroke-width:3.171;stroke-linecap:round;stroke-linejoin:round;stroke-opacity:0.942;}
	.st49{fill:none;stroke:#191815;stroke-width:2.733;stroke-linecap:round;stroke-linejoin:round;stroke-opacity:0.864;}
	.st50{fill:none;stroke:#191815;stroke-width:2.907;stroke-linecap:round;stroke-linejoin:round;stroke-opacity:0.9;}
	.st51{fill:none;stroke:#191815;stroke-width:3.058;stroke-linecap:round;stroke-linejoin:round;stroke-opacity:0.928;}
	.st52{fill:none;stroke:#191815;stroke-width:2.705;stroke-linecap:round;stroke-linejoin:round;stroke-opacity:0.906;}
	.st53{fill:none;stroke:#191815;stroke-width:2.728;stroke-linecap:round;stroke-linejoin:round;stroke-opacity:0.892;}
	.st54{fill:none;stroke:#191815;stroke-width:3.183;stroke-linecap:round;stroke-linejoin:round;stroke-opacity:0.983;}
	.st55{fill:none;stroke:#191815;stroke-width:3.34;stroke-linecap:round;stroke-linejoin:round;stroke-opacity:0.99;}
	.st56{fill:none;stroke:#191815;stroke-width:2.996;stroke-linecap:round;stroke-linejoin:round;stroke-opacity:0.966;}
	.st57{fill:none;stroke:#191815;stroke-width:2.845;stroke-linecap:round;stroke-linejoin:round;stroke-opacity:0.927;}
	.st58{fill:none;stroke:#191815;stroke-width:2.692;stroke-linecap:round;stroke-linejoin:round;stroke-opacity:0.885;}
	.st59{fill:none;stroke:#191815;stroke-width:2.798;stroke-linecap:round;stroke-linejoin:round;stroke-opacity:0.93;}
	.st60{fill:none;stroke:#191815;stroke-width:2.97;stroke-linecap:round;stroke-linejoin:round;stroke-opacity:0.939;}
	.st61{fill:none;stroke:#191815;stroke-width:2.799;stroke-linecap:round;stroke-linejoin:round;stroke-opacity:0.916;}
</style>
<g>
	<path id="STROKE_93f2a838-a56c-4ae6-adf3-b6ebf55fe1d6" class="st0" d="M67.76,80.57c0.15,0.11-0.29-0.38-1.33-1.46
		c0.06-0.05,1.82,1.61,5.29,4.99c3.47,3.37,6.85,6.59,10.15,9.65c3.3,3.06,6.44,5.65,9.42,7.78c2.98,2.13,6.14,4.06,9.46,5.8
		c-0.12,0.03-1.06,0-2.8-0.08"/>
	<path id="STROKE_5719c8de-c868-4ff1-ba8d-866a4e878734" class="st1" d="M69.95,119.38c-0.29-1.1-0.41-1.69-0.36-1.77
		c0-0.5,1.57-2.95,4.72-7.37c3.15-4.41,6.08-8.66,8.8-12.74c2.72-4.08,4.76-7.16,6.11-9.23c1.36-2.07,2.67-4.09,3.92-6.04
		c1.25-1.95,2.49-3.88,3.73-5.8c1.24-1.91,2.42-3.88,3.54-5.9c1.13-2.02,2.05-3.71,2.75-5.05c0.71-1.35,1.1-2.81,1.17-4.39
		c-0.16-0.03-0.86,0.8-2.08,2.49"/>
</g>
<g>
	<path id="STROKE_77b3db0b-bc5a-4452-8914-2e035e3d77ff" class="st2" d="M84.58,192.51l0.14-0.1c0.12,0.18,10.02,10.47,29.71,30.85
		l0.2,0.36"/>
	<path id="STROKE_ab09bd46-add2-4008-b2cd-11fdb82e11f9" class="st3" d="M98.61,220.37c-0.21-0.4-0.49-0.93-0.84-1.58
		c-0.34-0.65,0.24-2.69,1.76-6.13c1.52-3.44,3.46-7.05,5.83-10.82c2.37-3.77,4.43-6.88,6.2-9.33c1.77-2.45,3.59-4.5,5.46-6.18"/>
</g>
<g>
	<path id="STROKE_e1615be8-216b-42f9-9a99-b3896215584f" class="st4" d="M62.4,301.32c-0.44-0.59-0.83-1.8-1.17-3.64
		c0.53-0.7,4.45,1.49,11.77,6.57c7.32,5.07,13.1,9.2,17.36,12.39c4.26,3.19,7.44,5.44,9.54,6.76c2.1,1.32,3.61,2.31,4.53,2.99
		c0.91,0.68,1.47,1.32,1.66,1.93c-0.18,0.31-1.21,0.81-3.1,1.52"/>
	<path id="STROKE_dd90636a-0745-4434-ae58-b8c239950f29" class="st5" d="M43.98,340.93c-0.29-0.01-0.83-0.06-1.62-0.13
		c-0.79-0.07-1.3-0.11-1.54-0.1c0.11,0.12,2.89-2.18,8.32-6.89c5.43-4.71,10.43-9.12,15.01-13.22s8.07-7.17,10.5-9.19
		c2.42-2.03,5.39-4.54,8.9-7.54c3.51-3,7.02-5.85,10.53-8.55c3.51-2.7,6.62-5.13,9.35-7.29c2.73-2.16,5.17-4.68,7.34-7.55
		c-0.23-0.12-1.45,0.79-3.66,2.75"/>
</g>
<g>
	<path id="STROKE_e59c52d0-f220-4915-a604-a82f2cc155f4" class="st6" d="M49.61,413.38c0.07-0.01,0.73,0.92,1.99,2.8
		c1.26,1.88,2.63,4.49,4.1,7.83c1.48,3.34,2.8,6.33,3.95,8.95c1.15,2.62,2.16,5.01,3.02,7.16c0.86,2.15,1.86,4.7,2.99,7.65
		c1.13,2.94,2.1,5.5,2.9,7.65c0.8,2.16,2.15,5.42,4.05,9.79c1.9,4.37,3.54,7.83,4.93,10.39c1.38,2.56,2.63,4.59,3.74,6.11
		c1.11,1.51,3.08,4.92,5.9,10.2c-0.1,0.1-0.8-0.2-2.08-0.89"/>
	<path id="STROKE_b3b6c279-4e25-45c7-a364-497e6d3c9d23" class="st7" d="M31.01,435.48c-0.23-0.06-1.68,0.59-4.36,1.95
		c0.41,0.32,2.76-0.23,7.05-1.63c4.29-1.4,9.91-4.04,16.86-7.91c6.94-3.87,13.06-7.52,18.35-10.96c5.29-3.44,9.2-5.99,11.72-7.67
		c2.52-1.68,4.54-3.1,6.06-4.26c1.52-1.16,5.22-5.24,11.11-12.22c-0.11-0.1-1.46,1.02-4.04,3.36"/>
</g>
<g>
	<path id="STROKE_2e9658cf-57bf-40b2-92c2-af3eed19cd4a" class="st8" d="M102.26,562.81c-0.19-0.26,1.42,1.44,4.83,5.09
		c3.42,3.65,7.6,8.23,12.55,13.76c4.95,5.53,8.95,10.03,11.99,13.52c3.04,3.49,5.44,6.74,7.2,9.75c-0.34,0.25-2.45-0.08-6.31-0.98"
		/>
	<path id="STROKE_373c9007-edd9-4d43-a86b-0e2fc8ccb044" class="st9" d="M104.38,609.38c-0.24,0.25-0.89,0.84-1.95,1.79
		c0.04-0.01,0.6-0.73,1.69-2.16c1.09-1.42,1.99-2.62,2.71-3.59c0.72-0.97,1.34-1.83,1.87-2.58s3.63-4.78,9.31-12.08
		c5.68-7.3,10.01-12.89,13-16.75c2.99-3.86,6.05-7.53,9.19-11c3.14-3.47,6-6.56,8.58-9.28c2.58-2.71,5.33-6.51,8.25-11.39
		c-0.62-0.06-0.94-0.07-0.98-0.03c-1.1,0.64-2.93,2.91-5.47,6.82"/>
</g>
<g>
	<path id="STROKE_64f1a0f1-6767-47a3-819e-d24874d65c82" class="st10" d="M109.61,774.54l0,0.04c-0.05-0.12,1.58-2.16,4.9-6.12
		c3.32-3.96,6.42-7.58,9.3-10.86c2.88-3.28,5.09-5.75,6.63-7.43c1.54-1.68,3.45-3.38,5.74-5.1c2.29-1.72,7.19-5.12,14.7-10.2
		c-0.19,0.04-1.44,1.31-3.73,3.84"/>
	<path id="STROKE_4681b64d-2712-4f58-b6dd-cf3e47513ee1" class="st11" d="M111.05,734.99c-0.12,0.64,0.97,1.73,3.28,3.27
		c2.31,1.54,5.39,4.02,9.25,7.44c3.86,3.41,7.4,6.51,10.63,9.29c3.23,2.78,5.8,4.95,7.7,6.52c1.9,1.57,4.29,3.73,7.16,6.47
		c2.87,2.74,5.31,5.18,7.3,7.31c2,2.13,3.61,3.83,4.85,5.1c1.23,1.27,2.15,3.39,2.75,6.35"/>
</g>
<g>
	<path id="STROKE_c847ebb9-f2f6-4349-98e3-0ab020b5ed2e" class="st12" d="M294.93,582.79c-0.08-0.01-0.34-0.17-0.79-0.46
		c0.07,0.11,1.55,2.56,4.44,7.36c2.89,4.8,6.11,9.69,9.68,14.66c3.56,4.97,6.59,9.03,9.08,12.16c2.49,3.14,5.18,6.29,8.09,9.46
		c2.9,3.17,5.27,6.13,7.09,8.86c-0.04,0.02-0.27,0.01-0.69-0.04"/>
	<path id="STROKE_157b8cb5-0bff-4862-bdca-4cf4cef7b49c" class="st13" d="M337.7,581.85l-0.68-0.04c-0.22-0.07-1.61,1.62-4.14,5.07
		c-2.54,3.45-4.42,6-5.64,7.64c-1.22,1.64-2.21,2.96-2.97,3.94c-0.76,0.98-1.3,1.72-1.61,2.22c-0.32,0.49-2.46,3.01-6.43,7.55
		c-3.97,4.54-7.48,8.29-10.52,11.27s-5.45,5.34-7.22,7.1c-1.77,1.76-3.47,3.42-5.12,4.98c-1.64,1.56-6.42,5.86-14.34,12.89
		c-0.05,0.02,3.04-1.74,9.28-5.28"/>
</g>
<g>
	<path id="STROKE_d9c3aa4d-8942-4797-8c15-39c33441e9fc" class="st14" d="M329.76,377.29c-0.06,0.05-0.11,0.08-0.14,0.1
		c-0.03,0.01-0.79,1.71-2.26,5.08c-1.47,3.37-2.83,6.27-4.08,8.67c-1.25,2.41-2.69,4.89-4.34,7.44c-1.64,2.55-3.32,4.97-5.04,7.27
		c-1.72,2.3-4.25,5.05-7.6,8.26c-3.35,3.21-5.89,5.67-7.64,7.36c-1.75,1.69-3.09,2.87-4.03,3.54c-0.94,0.66-1.78,1.06-2.53,1.2
		c-0.74,0.13-1.42,0.09-2.03-0.12c-0.61-0.21-1.6-1.7-2.97-4.47"/>
	<path id="STROKE_9a71daf8-20bf-45ba-8dc0-a52cd1cf7351" class="st15" d="M291.31,397.2c0.25-0.25,0.89-0.56,1.92-0.92
		s2.29,0.27,3.78,1.88c1.49,1.61,2.88,3.35,4.17,5.22c1.29,1.87,3.18,4.91,5.67,9.13c2.49,4.22,4.76,7.97,6.81,11.24
		c2.05,3.27,3.62,5.67,4.73,7.22c1.11,1.54,2.06,2.8,2.87,3.78c0.8,0.98,1.91,1.98,3.34,3"/>
</g>
<g>
	<path id="STROKE_3c3e3db4-d48d-4f80-803e-aa95cde671bb" class="st16" d="M236.4,228.01l0.28-1.69c0.13-0.15,0.56-0.06,1.29,0.27
		c0.73,0.33,2.09,1.82,4.09,4.48s4.21,6.29,6.64,10.9c2.42,4.61,4.53,9.89,6.3,15.85c1.78,5.96,3.08,10.99,3.92,15.1
		c0.83,4.11,1.16,7.72,0.98,10.83l-0.27,0.45"/>
	<path id="STROKE_0aab3853-2ccd-443c-862e-850c4c0f1eb2" class="st17" d="M234.22,270.13c-0.56,0.15-2.36,0.22-5.38,0.2
		c-0.25-0.48,3.25-3.57,10.5-9.26c7.25-5.69,12.94-10.07,17.06-13.14c4.12-3.07,7.15-5.24,9.09-6.51c1.94-1.27,3.36-2.19,4.25-2.75
		c0.89-0.57,2.84-1.82,5.84-3.75c3-1.93,9.15-5.97,18.44-12.1"/>
</g>
<g>
	<path id="STROKE_f322ec59-f41c-4f4b-a57c-b74789d94e2b" class="st18" d="M340.23,271.52l0.04-0.03c0.3-0.1,3.17,1.49,8.61,4.77
		c5.43,3.28,9.94,6.32,13.53,9.12c3.58,2.81,6.36,5.07,8.33,6.78c1.97,1.72,3.59,3.12,4.86,4.2c1.27,1.09,2.17,2.02,2.69,2.8
		c0.52,0.78,0.81,1.61,0.85,2.47c0.04,0.87-0.54,1.68-1.76,2.45"/>
	<path id="STROKE_4c1aceb6-117a-4e7b-b880-8d810f8d7e3f" class="st19" d="M355.46,300.59c-0.37-0.69-0.7-1.49-0.99-2.4
		c-0.29-0.91-0.29-1.99,0.01-3.25c0.29-1.26,0.8-2.45,1.51-3.59c0.71-1.13,1.91-3.05,3.59-5.74c1.68-2.7,7.06-11,16.14-24.9"/>
</g>
<g>
	<path id="STROKE_039f0346-8409-4d5e-b21f-5c2add327245" class="st20" d="M375.85,41.82c0.09-0.21,0.83-1.55,2.23-4.02
		c0.92,0.08,2.05,4.05,3.39,11.91c1.33,7.86,2.13,15.11,2.4,21.74c0.26,6.63,0.39,11.56,0.39,14.79c-0.01,3.23-0.2,6.59-0.59,10.08
		c-0.39,3.49-0.82,6.95-1.3,10.36c-0.48,3.41-0.95,6.04-1.43,7.88c-0.48,1.84-0.92,3.21-1.34,4.13s-1.44,1.7-3.07,2.35"/>
	<path id="STROKE_0560249e-9ec1-4555-a567-0905569004d0" class="st21" d="M347.25,90.32c-0.27,0.17-0.57,0.33-0.91,0.48
		c0.41,0.09,0.73,0.14,0.96,0.15c0.24,0.01,0.55,0.07,0.95,0.19c0.4,0.12,3.91-0.31,10.55-1.26c6.63-0.96,11.97-1.89,16-2.79
		c4.03-0.9,7.03-1.57,8.99-2c1.96-0.43,6.24-1.3,12.84-2.63c6.6-1.33,12.02-2.39,16.27-3.19c4.25-0.8,8.5-1.65,12.76-2.53
		c4.26-0.89,8.28-1.68,12.05-2.37c3.77-0.69,7.16-1.41,10.16-2.16c3-0.75,5.46-1.14,7.37-1.18l0.33,0.46"/>
</g>
<g>
	<path id="STROKE_7fa7a6b6-053e-45bb-ac3a-9db38be3d883" class="st22" d="M273.15,43.62c-0.68,0.54-0.51,3.84,0.51,9.88
		c1.02,6.05,1.85,11.04,2.49,14.99c0.64,3.95,1.01,7.22,1.1,9.82c0.09,2.6-0.03,4.9-0.35,6.91c-0.33,2-0.85,3.88-1.59,5.64
		c-0.73,1.76-2,3.33-3.8,4.71"/>
	<path id="STROKE_0c0a7cee-dd3d-4cab-b98c-4a2c5e446c55" class="st23" d="M259.92,80.77c0-0.27,0.23-0.68,0.68-1.23
		c0.45-0.55,1.55-0.95,3.29-1.19c1.74-0.24,5.23-0.75,10.47-1.52c5.24-0.77,9.63-1.56,13.17-2.37c3.54-0.81,6.54-1.67,8.98-2.57
		c2.45-0.9,5.03-2.41,7.75-4.52"/>
</g>
<g>
	<path id="STROKE_d10d0a57-6518-4714-a74f-4e92a72ea6db" class="st24" d="M587.08,392.82c0.87-0.76,1.54-1.26,2.01-1.48
		c0.47-0.22,1.63-0.23,3.49-0.03c1.86,0.2,4.37,1.63,7.53,4.27c3.16,2.64,6.47,5.34,9.94,8.09c3.47,2.75,6.78,5.53,9.95,8.33"/>
	<path id="STROKE_f1e34978-d15c-4583-9930-fa6aa0197b4f" class="st25" d="M614.63,390.7c-1.22,0.13-2.72,1.04-4.5,2.71
		s-3.43,3.72-4.96,6.14c-1.53,2.42-3.13,5.22-4.78,8.41c-1.66,3.19-2.91,5.73-3.75,7.62c-0.85,1.89-1.38,3.44-1.6,4.66
		c-0.22,1.22,0,2.58,0.66,4.09"/>
</g>
<g>
	<path id="STROKE_64241e26-8e7b-4050-90ba-45c14c4c4342" class="st26" d="M587.93,286.99c0.17,0.8,0.93,1.8,2.27,3
		c1.34,1.2,2.99,2.32,4.96,3.36c1.96,1.04,4.12,2.32,6.47,3.85c2.35,1.53,4.16,2.81,5.44,3.84c1.27,1.03,2.21,2.03,2.83,2.99
		c0.62,0.96,1.24,2.1,1.88,3.42c0.64,1.32,1.52,2.67,2.65,4.08"/>
	<path id="STROKE_6f9e05df-8bea-4321-a8f1-ae30e2117bd1" class="st27" d="M616.67,282.81c-1.03,0.59-2.46,1.73-4.3,3.43
		c-1.84,1.7-3.79,4.32-5.85,7.86c-2.07,3.55-3.62,6.18-4.66,7.89c-1.04,1.71-2.07,3.48-3.09,5.3c-1.02,1.82-2.13,3.89-3.32,6.19
		c-1.19,2.3-2.55,6.3-4.06,11.99"/>
</g>
<g>
	<path id="STROKE_9edd4b2d-7268-4e26-ba9a-5565149b8122" class="st28" d="M600.64,226.34c0.37-0.06,2.41,0.56,6.12,1.85
		c3.71,1.29,6.8,2.57,9.28,3.84c2.48,1.27,4.47,2.51,5.97,3.72c1.51,1.21,2.77,2.31,3.78,3.3c1.02,0.99,3.25,1.56,6.7,1.71"/>
	<path id="STROKE_78746d5a-2a98-428e-8277-333b1fcb7732" class="st29" d="M630.51,218.85c-0.42,0.17-1.35,0.39-2.79,0.64
		c-1.43,0.26-3.57,1.97-6.42,5.13c-2.85,3.16-5.59,6.31-8.23,9.43c-2.64,3.12-4.79,5.74-6.47,7.84c-1.67,2.1-3.7,5.15-6.09,9.13"/>
</g>
<path id="STROKE_b894d02e-90af-4664-9467-765cb59a76c2" class="st30" d="M469.69,146.46c0-0.11,0.45-0.29,1.34-0.55
	c0.89-0.25,3.16,0.51,6.82,2.29c3.66,1.78,6.97,3.59,9.95,5.44c2.98,1.85,5.96,4.45,8.93,7.81c2.97,3.36,5.12,5.93,6.44,7.72
	c1.32,1.79,2.24,3.09,2.77,3.9c0.53,0.81,1.62,2.31,3.29,4.51s3.03,5.51,4.09,9.95"/>
<path id="STROKE_dd4658d3-97c8-4aa8-9e14-c47fb335a32a" class="st31" d="M522.59,136.37c-1.06,0.28-2.95,2.3-5.67,6.05
	c-2.72,3.75-4.87,6.94-6.44,9.55c-1.57,2.62-2.99,4.65-4.27,6.11c-1.28,1.46-4.49,5.67-9.64,12.63c-5.15,6.97-9.1,12.4-11.86,16.31
	c-2.76,3.91-5.04,7.28-6.84,10.11c-1.8,2.83-3.34,7.35-4.62,13.55"/>
<g>
	<path id="STROKE_81d1ce3e-5d41-43a1-89d8-d03607a41d6a" class="st32" d="M454.97,545.29c-0.03-0.02-0.05-0.28-0.07-0.76
		c1.18-0.56,3.97,0.51,8.36,3.22c4.39,2.71,8.42,6.02,12.09,9.93c3.66,3.91,6.93,7.89,9.79,11.93c2.86,4.04,6.56,11.91,11.1,23.59"
		/>
	<path id="STROKE_18ef7d45-e5d8-4470-a89b-50cfdf1dbfa1" class="st33" d="M495.7,539.26c-0.26,1.15-0.89,2.76-1.91,4.82
		c-1.02,2.06-1.82,4.25-2.39,6.59c-0.57,2.33-1.03,4.38-1.35,6.16c-0.33,1.77-1.4,5.45-3.22,11.03c-1.82,5.58-3.65,10.49-5.49,14.71
		s-3.47,7.91-4.88,11.06c-1.41,3.15-2.64,6.31-3.71,9.47c-1.07,3.16-1.54,7.14-1.42,11.93"/>
</g>
<g>
	<path id="STROKE_ff84d900-a219-492d-847a-9daf2e488f3d" class="st34" d="M476.77,744.35c0.28,0.62,1.69,1.55,4.21,2.79
		c2.52,1.23,5.37,3.14,8.56,5.71c3.18,2.57,5.79,4.77,7.83,6.61c2.03,1.83,4.37,4.5,7,7.99c2.63,3.49,5.68,9.57,9.16,18.24"/>
	<path id="STROKE_eb33fe1f-e1f8-41b6-b3c6-2676ca846e9c" class="st35" d="M511.39,753.96c-0.22,0.53-1.29,2.08-3.19,4.65
		c-1.9,2.57-3.72,5.84-5.45,9.82c-1.74,3.98-3.09,7.17-4.06,9.59c-0.97,2.42-2.43,5.74-4.37,9.99c-1.95,4.24-3.91,10.7-5.9,19.38"/>
</g>
<g>
	<path id="STROKE_5063c07e-8078-4e95-8fd0-7cf2dae17287" class="st36" d="M675.14,620.87c-0.17,0.01-0.79,0.1-1.87,0.29
		c-0.28,0.31,0.43,1.73,2.13,4.28c1.7,2.55,4.24,6.37,7.61,11.49c3.37,5.11,6.54,10.01,9.5,14.71c2.96,4.7,5.13,8.28,6.52,10.75
		c1.38,2.47,2.78,5.36,4.18,8.67c1.41,3.31,2.54,6.28,3.39,8.91s1.4,4.98,1.63,7.06c0.23,2.08,0.31,3.73,0.22,4.95
		c-0.09,1.22-0.82,2.33-2.19,3.34"/>
	<path id="STROKE_72544ee8-ec54-46d1-8a44-c5f342bd743d" class="st37" d="M704.01,626.31c-0.25,0.29-1.08,1.8-2.48,4.54
		c-1.4,2.74-3,7.07-4.8,13c-1.8,5.93-3.3,10.5-4.49,13.71c-1.19,3.21-2.65,7.56-4.36,13.04c-1.71,5.48-2.99,9.61-3.83,12.38
		c-0.84,2.77-1.46,5.33-1.88,7.68c-0.41,2.35-0.65,4.14-0.72,5.36c-0.07,1.22,0.01,2.3,0.22,3.22c0.21,0.92,0.88,1.43,2.01,1.52"/>
</g>
<g>
	<path id="STROKE_0eb3a84d-e0f1-4383-9525-46d65ff84009" class="st38" d="M663.7,493.68l0.31-0.28c0.3-0.08,1.04-0.03,2.19,0.16
		s3.2,1.11,6.12,2.76c2.92,1.65,5.98,3.67,9.17,6.07c3.19,2.4,9.22,10.75,18.08,25.05"/>
	<path id="STROKE_80e1e6f4-5b40-42a5-ba77-1dfd57042190" class="st39" d="M702.36,486.71c-0.28,0.24-1.69,1.13-4.21,2.69
		c-2.52,1.55-5.4,4.14-8.64,7.76c-3.23,3.62-5.79,6.61-7.66,8.96c-1.87,2.35-3.84,4.64-5.9,6.89c-2.06,2.25-3.88,4.23-5.47,5.94
		c-1.59,1.71-3.99,4.32-7.19,7.83"/>
</g>
<g>
	<path id="STROKE_82956df9-2c17-4785-ac84-bc227fe647f6" class="st40" d="M899.67,386.65c0.14-0.08,0.5-0.13,1.08-0.14
		c0.42,0.33,0.93,1.79,1.52,4.39c0.59,2.59,0.96,6.18,1.1,10.75c0.14,4.57-0.38,10.83-1.58,18.78c-1.19,7.94-2.5,15.77-3.93,23.48
		c-1.42,7.71-2.57,13.88-3.43,18.52c-0.86,4.63-2.36,13.45-4.49,26.44c-0.08,0-0.37-0.28-0.87-0.83"/>
	<path id="STROKE_897099ff-152f-4c5e-a72a-03aaf18715b6" class="st41" d="M864.13,396.67c-0.99-0.95-2-2.11-3.03-3.48
		c-1.03-1.37-1.54-2.84-1.54-4.4c0.36-0.34,2.15,0.36,5.36,2.1c3.21,1.74,7.13,4.96,11.76,9.67c4.63,4.71,8.23,8.65,10.81,11.83
		s4.55,5.67,5.93,7.47c1.37,1.8,3.32,4.65,5.86,8.55c2.53,3.9,6.16,10.61,10.88,20.14c4.72,9.53,8.24,16.79,10.56,21.79
		c2.32,4.99,4,8.62,5.04,10.88c1.04,2.26,1.66,4.1,1.84,5.51c0.19,1.41,0.21,2.43,0.08,3.06c-0.13,0.63-0.25,1.04-0.36,1.22
		c-0.11,0.18-0.34,0.35-0.71,0.51c-0.37,0.16-1,0.19-1.91,0.1"/>
</g>
<g>
	<path id="STROKE_56ef3437-eb3e-4cad-a7b6-5181c497e243" class="st42" d="M778.57,212.48c-0.82,0.48,0.88,12.23,5.11,35.23"/>
	<path id="STROKE_eff8b8b5-f188-4585-9ecf-c2b83dfb352c" class="st43" d="M783.53,220.1c-0.33,0.41-1.71,2-4.14,4.76
		c-2.43,2.76-4.65,5.75-6.68,8.98l0.16,0.53"/>
</g>
<g>
	<path id="STROKE_b0c290ce-7975-4b4d-95ce-026ff7fa41d3" class="st44" d="M755.53,96.17c-0.02-0.18,0.03,1.43,0.13,4.84
		c0.1,3.41,0.87,8.17,2.29,14.29l0.03,0.01l-0.05-0.35c-0.08-0.16-0.18-0.34-0.3-0.53"/>
	<path id="STROKE_a6810be1-3ae4-4b04-a633-57a7a7097885" class="st45" d="M749.63,106.51c-0.26,0.18-0.42,0.31-0.47,0.4
		c0.09,0.07,1.45-0.52,4.07-1.77c2.62-1.25,4.84-2.28,6.66-3.07c1.82-0.79,3.36-1.45,4.61-1.98c0.21-0.11-0.34,0.15-1.64,0.78"/>
</g>
<g>
	<path id="STROKE_781c5724-e2fb-4b3a-be91-3457484d2191" class="st46" d="M674.62,113.68c0.02-0.06,0.06-0.23,0.1-0.49
		c0.86,1.18,3.29,12.48,7.29,33.88l0.14,0.05c0.12,0.1,0.08-1.02-0.11-3.38"/>
	<path id="STROKE_8ad67d0e-756a-471d-8233-db8b93f92fd0" class="st47" d="M662.88,135.98c-0.62,0.2-1.7,0.56-3.25,1.07
		c0.33-0.06,2.55-1.02,6.68-2.89c4.12-1.87,9.32-4.14,15.6-6.82c6.28-2.68,11.38-4.77,15.3-6.28c3.92-1.51,6.79-2.98,8.6-4.41
		c-0.48-0.02-0.91,0.09-1.31,0.32c-0.4,0.23-0.92,0.61-1.55,1.16"/>
</g>
<g>
	<path id="STROKE_83f2de9e-e860-4f76-9554-f1fb24210214" class="st48" d="M1069.06,277.1c-0.17-0.88,0.05-2.8,0.68-5.77
		c0.25,0.17,0.49,2.91,0.71,8.2c0.22,5.29,0.59,10.71,1.11,16.26c0.52,5.55,0.95,10.01,1.3,13.39c0.35,3.38,0.69,6.25,1,8.63
		c0.31,2.38,0.9,6.2,1.76,11.48c0.86,5.27,1.47,14.54,1.83,27.81c-0.01-0.09-0.01-0.58-0.01-1.46c0-0.89-0.43-2.15-1.28-3.81"/>
	<path id="STROKE_34128def-1a93-4ae9-82b3-2514a2022b67" class="st49" d="M1019.6,304.84c-0.71,0.01-2.05-0.01-4.01-0.05
		c-1.95-0.05-3.7,0-5.24,0.13l0,0.03c0.2,0.21,6.54,0.34,19.02,0.39c12.48,0.05,22.8,0.01,30.94-0.12
		c8.15-0.13,14.64-0.3,19.49-0.51c4.85-0.21,10.94-0.51,18.28-0.9c7.34-0.39,12.97-0.68,16.9-0.85c3.93-0.17,7.08-0.36,9.46-0.55
		s4.51-0.48,6.4-0.86c0.03-0.04,0.04-0.07,0.03-0.1c0-0.02,0.04-0.15,0.14-0.39"/>
</g>
<g>
	<path id="STROKE_36786afb-70d8-4e21-9570-1fad461d3368" class="st50" d="M889.81,646.01l-0.51-0.85c-0.34-0.49-0.54-0.77-0.6-0.83
		c-0.22,0.12-0.96,2.66-2.22,7.62c-1.25,4.96-2.29,9.67-3.11,14.11s-1.45,7.86-1.88,10.25c-0.43,2.39-0.91,4.8-1.42,7.23
		c-0.52,2.42-2.01,11.87-4.48,28.34c0.01,0.04-0.13-0.3-0.41-1.03"/>
	<path id="STROKE_aa8c4e1c-d02a-4f71-9283-90d2c6f8ab72" class="st51" d="M923.18,681.24c-0.48-0.63-0.75-0.95-0.83-0.97l-0.53-0.38
		c-0.4-0.19-3.11-0.22-8.15-0.09c-5.04,0.13-10.25,0.02-15.63-0.33c-5.39-0.35-10.47-0.84-15.26-1.48
		c-4.79-0.63-9.21-1.28-13.25-1.94c-4.04-0.66-9.53-1.77-16.44-3.32c0.05-0.07,0.86,0.22,2.43,0.88"/>
</g>
<g>
	<path id="STROKE_19e63adc-f0d0-4f9b-a52c-ae367eeedf51" class="st52" d="M803.33,855.56c-0.22,0.04-0.34,0.06-0.35,0.07
		c-0.01,0-0.31-0.07-0.89-0.22c-0.01-0.01-0.73-2.67-2.14-7.99c-1.41-5.32-2.72-12.98-3.91-22.98c-1.19-10-1.95-17.47-2.29-22.4
		c-0.34-4.93-0.57-8.7-0.71-11.3c-0.14-2.6-0.25-5.92-0.34-9.97c-0.09-4.05,0.15-7.68,0.7-10.89c0.12,0.54,0.37,1.36,0.73,2.47"/>
	<path id="STROKE_61b298ec-9ab6-4f10-a54d-5eac38822518" class="st53" d="M822.8,765.77l-0.24-0.53l-0.41-0.57
		c-1.24-0.52-3.52,2-6.87,7.58c-3.34,5.57-6.52,10.86-9.53,15.86c-3.01,5-5.38,8.87-7.11,11.6c-1.73,2.73-3.95,6.11-6.64,10.14
		c-2.69,4.03-5.79,8.06-9.31,12.09c-3.52,4.03-6.38,7.29-8.59,9.8c-2.21,2.5-4.42,5.24-6.63,8.2c-2.22,2.97-4.12,4.48-5.7,4.55
		c-0.38-0.52,1.16-2.34,4.63-5.46"/>
</g>
<g>
	<path id="STROKE_675296c4-dc4e-4a26-9f61-f8e320cd5c61" class="st54" d="M962.97,820.98c-0.64,0.54-0.56,2.11,0.25,4.71
		c0.8,2.6,2.56,5.63,5.28,9.07c2.72,3.44,5.56,6.47,8.53,9.08c2.97,2.61,5.27,4.65,6.9,6.11c1.63,1.47,2.93,2.84,3.89,4.11
		c0.97,1.27,1.59,2.45,1.86,3.54c0.28,1.08,0.32,1.78,0.15,2.1c-0.18,0.31-0.42,0.55-0.72,0.71c-0.3,0.16-0.67,0.26-1.1,0.29
		c-0.44,0.03-1.01-0.1-1.71-0.38"/>
	<path id="STROKE_3474bd14-2fdf-4766-940c-b63e0ee19c74" class="st55" d="M984.96,835.77c-0.07-0.26-0.45-0.56-1.15-0.91
		c-0.51,0.18-6.86,8.08-19.05,23.71c-0.11-0.34-0.16-0.9-0.18-1.69"/>
</g>
<g>
	<path id="STROKE_b71183b2-9316-49fa-8c97-1d87ac63c5a4" class="st56" d="M1044.88,636.73l0.27-1.7l0.1-0.05
		c0.3,0.26,0.77,1.31,1.41,3.14c0.64,1.83,1.21,5.49,1.73,10.98c0.51,5.49,0.79,9.76,0.84,12.8c0.05,3.04,0.03,6.09-0.06,9.15
		c-0.09,3.06-1.34,6.86-3.74,11.41"/>
	<path id="STROKE_f0d9ec34-9c47-47d3-a704-3fa1a1ee4fd9" class="st57" d="M1062.89,652.59c-0.03-0.01-0.27-0.07-0.75-0.18
		c-0.47-0.11-1.95,0.77-4.43,2.65c-2.48,1.87-5.03,3.78-7.64,5.71c-2.62,1.93-7.1,5.12-13.47,9.57c-6.36,4.44-13.32,9.54-20.87,15.3
		"/>
</g>
<g>
	<path id="STROKE_ac232f25-310c-4965-88ef-23a948352b70" class="st58" d="M399.63,396.73c-0.11,0.41-0.76,5.53-1.95,15.36
		c-1.19,9.83-2.17,17.55-2.94,23.16c-0.77,5.62-1.33,9.94-1.68,12.96c-0.35,3.03-0.59,6.09-0.72,9.19c-0.14,3.1-0.71,6.06-1.71,8.88
		"/>
	<path id="STROKE_208f642e-aec2-42f7-90c0-789e1d7bdd1e" class="st59" d="M409.43,405.09c-0.86-0.37-2.37,0.56-4.52,2.8
		c-2.16,2.24-3.78,4.09-4.88,5.53c-1.1,1.44-2.36,2.94-3.78,4.51s-4.21,4.47-8.38,8.69c-4.17,4.22-7.46,7.5-9.88,9.82
		c-2.42,2.32-4.21,3.98-5.36,4.96c-1.16,0.99-2.02,1.65-2.58,1.99c-0.56,0.34-1.2,0.48-1.9,0.41c-0.7-0.07-1.11-0.19-1.24-0.36"/>
</g>
<g>
	<path id="STROKE_53fc39bb-da8f-4056-b4a8-1f0bba1608a1" class="st60" d="M237.99,782.7c0.33,0.6,1.36,2.14,3.07,4.63
		c1.72,2.48,4,4.95,6.85,7.39c2.85,2.45,5.43,4.74,7.74,6.89c2.31,2.15,5.52,6.84,9.62,14.07"/>
	<path id="STROKE_c89df615-d89d-4244-9372-5cdbc26645ea" class="st61" d="M257.92,772.74c-0.46,0.62-1.5,3.38-3.11,8.3
		c-1.62,4.91-3.73,9.93-6.33,15.04c-2.61,5.11-4.76,8.95-6.45,11.52c-1.69,2.57-3.03,4.56-4,5.98c-0.97,1.42-2.88,4.56-5.72,9.4"/>
</g>
</svg>
